Monoto-SemiCondensedBold.ufo
<glyph name="exclam" format="2">
  <advance width="530"/>
  <unicode hex="0021"/>
  <outline>
    <contour>
      <point x="188" y="242" type="line"/>
      <point x="312" y="242" type="line"/>
      <point x="334" y="714" type="line"/>
      <point x="165" y="714" type="line"/>
    </contour>
    <contour>
      <point x="250" y="-11" type="curve" smooth="yes"/>
      <point x="301" y="-11"/>
      <point x="333" y="20"/>
      <point x="333" y="76" type="curve" smooth="yes"/>
      <point x="333" y="133"/>
      <point x="303" y="164"/>
      <point x="250" y="164" type="curve" smooth="yes"/>
      <point x="194" y="164"/>
      <point x="165" y="132"/>
      <point x="165" y="76" type="curve" smooth="yes"/>
      <point x="165" y="20"/>
      <point x="198" y="-11"/>
    </contour>
  </outline>
</glyph>
<glyph name="dollar" format="2">
  <advance width="530"/>
  <unicode hex="0024"/>
  <outline>
    <contour>
      <point x="223" y="-58" type="line"/>
      <point x="290" y="-58" type="line"/>
      <point x="290" y="41" type="line"/>
      <point x="393" y="61"/>
      <point x="451" y="134"/>
      <point x="451" y="231" type="curve" smooth="yes"/>
      <point x="451" y="326"/>
      <point x="401" y="373"/>
      <point x="290" y="416" type="curve"/>
      <point x="290" y="573" type="line"/>
      <point x="328" y="568"/>
      <point x="369" y="556"/>
      <point x="406" y="535" type="curve"/>
      <point x="438" y="644" type="line"/>
      <point x="390" y="670"/>
      <point x="339" y="685"/>
      <point x="290" y="689" type="curve"/>
      <point x="290" y="759" type="line"/>
      <point x="223" y="759" type="line"/>
      <point x="223" y="688" type="line"/>
      <point x="125" y="675"/>
      <point x="56" y="616"/>
      <point x="56" y="511" type="curve" smooth="yes"/>
      <point x="56" y="414"/>
      <point x="111" y="360"/>
      <point x="223" y="315" type="curve"/>
      <point x="223" y="148" type="line"/>
      <point x="170" y="150"/>
      <point x="107" y="178"/>
      <point x="61" y="209" type="curve"/>
      <point x="61" y="78" type="line"/>
      <point x="109" y="55"/>
      <point x="169" y="40"/>
      <point x="223" y="37" type="curve"/>
    </contour>
    <contour>
      <point x="290" y="157" type="curve"/>
      <point x="290" y="286" type="line"/>
      <point x="320" y="270"/>
      <point x="336" y="251"/>
      <point x="336" y="221" type="curve" smooth="yes"/>
      <point x="336" y="191"/>
      <point x="323" y="168"/>
    </contour>
    <contour>
      <point x="223" y="444" type="line"/>
      <point x="188" y="463"/>
      <point x="174" y="480"/>
      <point x="174" y="508" type="curve" smooth="yes"/>
      <point x="174" y="541"/>
      <point x="187" y="564"/>
      <point x="223" y="572" type="curve"/>
    </contour>
  </outline>
</glyph>
<glyph name="percent" format="2">
  <advance width="530"/>
  <unicode hex="0025"/>
  <outline>
    <contour>
      <point x="0" y="168" type="line"/>
      <point x="121" y="168" type="line"/>
      <point x="500" y="545" type="line"/>
      <point x="379" y="545" type="line"/>
    </contour>
    <contour>
      <point x="360" y="-10" type="curve" smooth="yes"/>
      <point x="451" y="-10"/>
      <point x="500" y="53"/>
      <point x="500" y="159" type="curve" smooth="yes"/>
      <point x="500" y="266"/>
      <point x="451" y="329"/>
      <point x="360" y="329" type="curve" smooth="yes"/>
      <point x="272" y="329"/>
      <point x="223" y="265"/>
      <point x="223" y="159" type="curve" smooth="yes"/>
      <point x="223" y="54"/>
      <point x="273" y="-10"/>
    </contour>
    <contour>
      <point x="363" y="84" type="curve" smooth="yes"/>
      <point x="341" y="84"/>
      <point x="335" y="109"/>
      <point x="335" y="159" type="curve" smooth="yes"/>
      <point x="335" y="210"/>
      <point x="341" y="235"/>
      <point x="363" y="235" type="curve" smooth="yes"/>
      <point x="382" y="235"/>
      <point x="388" y="210"/>
      <point x="388" y="159" type="curve" smooth="yes"/>
      <point x="388" y="109"/>
      <point x="382" y="84"/>
    </contour>
    <contour>
      <point x="137" y="385" type="curve" smooth="yes"/>
      <point x="228" y="385"/>
      <point x="277" y="448"/>
      <point x="277" y="554" type="curve" smooth="yes"/>
      <point x="277" y="661"/>
      <point x="228" y="724"/>
      <point x="137" y="724" type="curve" smooth="yes"/>
      <point x="49" y="724"/>
      <point x="0" y="660"/>
      <point x="0" y="554" type="curve" smooth="yes"/>
      <point x="0" y="449"/>
      <point x="50" y="385"/>
    </contour>
    <contour>
      <point x="139" y="479" type="curve" smooth="yes"/>
      <point x="118" y="479"/>
      <point x="112" y="504"/>
      <point x="112" y="554" type="curve" smooth="yes"/>
      <point x="112" y="605"/>
      <point x="118" y="630"/>
      <point x="139" y="630" type="curve" smooth="yes"/>
      <point x="159" y="630"/>
      <point x="165" y="605"/>
      <point x="165" y="554" type="curve" smooth="yes"/>
      <point x="165" y="504"/>
      <point x="159" y="479"/>
    </contour>
  </outline>
</glyph>
<glyph name="period" format="2">
  <advance width="530"/>
  <unicode hex="002E"/>
  <outline>
    <contour>
      <point x="251" y="-11" type="curve" smooth="yes"/>
      <point x="303" y="-11"/>
      <point x="334" y="20"/>
      <point x="334" y="76" type="curve" smooth="yes"/>
      <point x="334" y="133"/>
      <point x="304" y="164"/>
      <point x="251" y="164" type="curve" smooth="yes"/>
      <point x="196" y="164"/>
      <point x="166" y="132"/>
      <point x="166" y="76" type="curve" smooth="yes"/>
      <point x="166" y="20"/>
      <point x="199" y="-11"/>
    </contour>
  </outline>
</glyph>
<glyph name="slash" format="2">
  <advance width="530"/>
  <unicode hex="002F"/>
  <outline>
    <contour>
      <point x="48" y="-8" type="line"/>
      <point x="176" y="-8" type="line"/>
      <point x="452" y="722" type="line"/>
      <point x="324" y="722" type="line"/>
    </contour>
  </outline>
</glyph>
<glyph name="zero" format="2">
  <advance width="530"/>
  <unicode hex="0030"/>
  <outline>
    <contour>
      <point x="249" y="-10" type="curve" smooth="yes"/>
      <point x="434" y="-10"/>
      <point x="482" y="150"/>
      <point x="482" y="356" type="curve" smooth="yes"/>
      <point x="482" y="600"/>
      <point x="403" y="725"/>
      <point x="249" y="725" type="curve" smooth="yes"/>
      <point x="92" y="725"/>
      <point x="17" y="610"/>
      <point x="17" y="356" type="curve" smooth="yes"/>
      <point x="17" y="114"/>
      <point x="95" y="-10"/>
    </contour>
    <contour>
      <point x="171" y="150" type="line"/>
      <point x="434" y="569" type="line"/>
      <point x="328" y="569" type="line"/>
      <point x="77" y="169" type="line"/>
    </contour>
    <contour>
      <point x="249" y="137" type="curve" smooth="yes"/>
      <point x="189" y="137"/>
      <point x="173" y="212"/>
      <point x="173" y="356" type="curve" smooth="yes"/>
      <point x="173" y="504"/>
      <point x="193" y="578"/>
      <point x="249" y="578" type="curve" smooth="yes"/>
      <point x="310" y="578"/>
      <point x="326" y="504"/>
      <point x="326" y="356" type="curve" smooth="yes"/>
      <point x="326" y="203"/>
      <point x="310" y="137"/>
    </contour>
  </outline>
</glyph>
<glyph name="five" format="2">
  <advance width="530"/>
  <unicode hex="0035"/>
  <outline>
    <contour>
      <point x="206" y="-10" type="curve" smooth="yes"/>
      <point x="372" y="-10"/>
      <point x="451" y="81"/>
      <point x="451" y="233" type="curve" smooth="yes"/>
      <point x="451" y="379"/>
      <point x="378" y="468"/>
      <point x="275" y="468" type="curve" smooth="yes"/>
      <point x="264" y="468"/>
      <point x="241" y="467"/>
      <point x="213" y="459" type="curve"/>
      <point x="220" y="567" type="line"/>
      <point x="415" y="567" type="line"/>
      <point x="415" y="714" type="line"/>
      <point x="79" y="714" type="line"/>
      <point x="58" y="345" type="line"/>
      <point x="111" y="310" type="line"/>
      <point x="139" y="321"/>
      <point x="164" y="327"/>
      <point x="189" y="327" type="curve" smooth="yes"/>
      <point x="250" y="327"/>
      <point x="281" y="293"/>
      <point x="281" y="230" type="curve" smooth="yes"/>
      <point x="281" y="167"/>
      <point x="250" y="134"/>
      <point x="193" y="134" type="curve" smooth="yes"/>
      <point x="150" y="134"/>
      <point x="94" y="153"/>
      <point x="49" y="179" type="curve"/>
      <point x="49" y="27" type="line"/>
      <point x="93" y="2"/>
      <point x="145" y="-10"/>
    </contour>
  </outline>
</glyph>
<glyph name="seven" format="2">
  <advance width="530"/>
  <unicode hex="0037"/>
  <outline>
    <contour>
      <point x="85" y="0" type="line"/>
      <point x="262" y="0" type="line"/>
      <point x="459" y="599" type="line"/>
      <point x="459" y="713" type="line"/>
      <point x="37" y="713" type="line"/>
      <point x="37" y="566" type="line"/>
      <point x="289" y="566" type="line"/>
    </contour>
  </outline>
</glyph>
<glyph name="eight" format="2">
  <advance width="530"/>
  <unicode hex="0038"/>
  <outline>
    <contour>
      <point x="248" y="-10" type="curve" smooth="yes"/>
      <point x="386" y="-10"/>
      <point x="467" y="64"/>
      <point x="467" y="187" type="curve" smooth="yes"/>
      <point x="467" y="260"/>
      <point x="438" y="315"/>
      <point x="352" y="376" type="curve"/>
      <point x="420" y="418"/>
      <point x="449" y="475"/>
      <point x="449" y="548" type="curve" smooth="yes"/>
      <point x="449" y="662"/>
      <point x="377" y="724"/>
      <point x="252" y="724" type="curve" smooth="yes"/>
      <point x="127" y="724"/>
      <point x="51" y="662"/>
      <point x="51" y="549" type="curve" smooth="yes"/>
      <point x="51" y="482"/>
      <point x="78" y="424"/>
      <point x="141" y="373" type="curve"/>
      <point x="64" y="325"/>
      <point x="33" y="265"/>
      <point x="33" y="187" type="curve" smooth="yes"/>
      <point x="33" y="62"/>
      <point x="111" y="-10"/>
    </contour>
    <contour>
      <point x="250" y="122" type="curve" smooth="yes"/>
      <point x="209" y="122"/>
      <point x="191" y="148"/>
      <point x="191" y="190" type="curve" smooth="yes"/>
      <point x="191" y="228"/>
      <point x="206" y="259"/>
      <point x="248" y="291" type="curve"/>
      <point x="291" y="255"/>
      <point x="309" y="231"/>
      <point x="309" y="189" type="curve" smooth="yes"/>
      <point x="309" y="145"/>
      <point x="289" y="122"/>
    </contour>
    <contour>
      <point x="249" y="459" type="curve"/>
      <point x="221" y="482"/>
      <point x="208" y="508"/>
      <point x="208" y="537" type="curve" smooth="yes"/>
      <point x="208" y="570"/>
      <point x="225" y="592"/>
      <point x="250" y="592" type="curve" smooth="yes"/>
      <point x="274" y="592"/>
      <point x="293" y="573"/>
      <point x="293" y="535" type="curve" smooth="yes"/>
      <point x="293" y="509"/>
      <point x="284" y="488"/>
    </contour>
  </outline>
</glyph>
<glyph name="equal" format="2">
  <advance width="530"/>
  <unicode hex="003D"/>
  <outline>
    <contour>
      <point x="50" y="392" type="line"/>
      <point x="450" y="392" type="line"/>
      <point x="450" y="522" type="line"/>
      <point x="50" y="522" type="line"/>
    </contour>
    <contour>
      <point x="50" y="170" type="line"/>
      <point x="450" y="170" type="line"/>
      <point x="450" y="300" type="line"/>
      <point x="50" y="300" type="line"/>
    </contour>
  </outline>
</glyph>
<glyph name="H" format="2">
  <advance width="530"/>
  <unicode hex="0048"/>
  <anchor x="250" y="0" name="bottom"/>
  <anchor x="250" y="369" name="center"/>
  <anchor x="250" y="714" name="top"/>
  <anchor x="20" y="714" name="topleft"/>
  <anchor x="500" y="714" name="topright"/>
  <outline>
    <contour>
      <point x="25" y="0" type="line"/>
      <point x="178" y="0" type="line"/>
      <point x="178" y="298" type="line"/>
      <point x="322" y="298" type="line"/>
      <point x="322" y="0" type="line"/>
      <point x="475" y="0" type="line"/>
      <point x="475" y="714" type="line"/>
      <point x="322" y="714" type="line"/>
      <point x="322" y="438" type="line"/>
      <point x="178" y="438" type="line"/>
      <point x="178" y="714" type="line"/>
      <point x="25" y="714" type="line"/>
    </contour>
  </outline>
</glyph>
<glyph name="O" format="2">
  <advance width="530"/>
  <unicode hex="004F"/>
  <anchor x="250" y="0" name="bottom"/>
  <anchor x="250" y="357" name="center"/>
  <anchor x="267" y="10" name="ogonek"/>
  <anchor x="250" y="714" name="top"/>
  <anchor x="20" y="714" name="topleft"/>
  <anchor x="500" y="714" name="topright"/>
  <outline>
    <contour>
      <point x="249" y="-7" type="curve" smooth="yes"/>
      <point x="412" y="-7"/>
      <point x="485" y="124"/>
      <point x="485" y="358" type="curve" smooth="yes"/>
      <point x="485" y="595"/>
      <point x="412" y="725"/>
      <point x="249" y="725" type="curve" smooth="yes"/>
      <point x="81" y="725"/>
      <point x="15" y="588"/>
      <point x="15" y="360" type="curve" smooth="yes"/>
      <point x="15" y="123"/>
      <point x="87" y="-7"/>
    </contour>
    <contour>
      <point x="252" y="135" type="curve" smooth="yes"/>
      <point x="189" y="135"/>
      <point x="172" y="224"/>
      <point x="172" y="359" type="curve" smooth="yes"/>
      <point x="172" y="496"/>
      <point x="189" y="582"/>
      <point x="251" y="582" type="curve" smooth="yes"/>
      <point x="313" y="582"/>
      <point x="328" y="506"/>
      <point x="328" y="358" type="curve" smooth="yes"/>
      <point x="328" y="227"/>
      <point x="316" y="135"/>
    </contour>
  </outline>
</glyph>
<glyph name="R" format="2">
  <advance width="530"/>
  <unicode hex="0052"/>
  <anchor x="266" y="0" name="bottom"/>
  <anchor x="250" y="714" name="top"/>
  <anchor x="480" y="714" name="topright"/>
  <outline>
    <contour>
      <point x="45" y="0" type="line"/>
      <point x="198" y="0" type="line"/>
      <point x="198" y="261" type="line"/>
      <point x="239" y="261" type="line"/>
      <point x="325" y="0" type="line"/>
      <point x="495" y="0" type="line"/>
      <point x="373" y="303" type="line"/>
      <point x="443" y="347"/>
      <point x="467" y="413"/>
      <point x="467" y="503" type="curve" smooth="yes"/>
      <point x="467" y="643"/>
      <point x="387" y="714"/>
      <point x="223" y="714" type="curve" smooth="yes"/>
      <point x="45" y="714" type="line"/>
    </contour>
    <contour>
      <point x="198" y="397" type="line"/>
      <point x="198" y="578" type="line"/>
      <point x="221" y="578" type="line" smooth="yes"/>
      <point x="289" y="578"/>
      <point x="316" y="550"/>
      <point x="316" y="492" type="curve" smooth="yes"/>
      <point x="316" y="428"/>
      <point x="283" y="397"/>
      <point x="220" y="397" type="curve" smooth="yes"/>
    </contour>
  </outline>
</glyph>
<glyph name="T" format="2">
  <advance width="530"/>
  <unicode hex="0054"/>
  <anchor x="250" y="0" name="bottom"/>
  <anchor x="250" y="357" name="center"/>
  <anchor x="250" y="714" name="top"/>
  <anchor x="480" y="714" name="topright"/>
  <outline>
    <contour>
      <point x="174" y="0" type="line"/>
      <point x="327" y="0" type="line"/>
      <point x="327" y="574" type="line"/>
      <point x="485" y="574" type="line"/>
      <point x="485" y="714" type="line"/>
      <point x="15" y="714" type="line"/>
      <point x="15" y="574" type="line"/>
      <point x="174" y="574" type="line"/>
    </contour>
  </outline>
</glyph>
<glyph name="V" format="2">
  <advance width="530"/>
  <unicode hex="0056"/>
  <anchor x="250" y="0" name="bottom"/>
  <anchor x="250" y="714" name="top"/>
  <anchor x="480" y="714" name="topright"/>
  <outline>
    <contour>
      <point x="153" y="0" type="line"/>
      <point x="343" y="0" type="line"/>
      <point x="495" y="714" type="line"/>
      <point x="335" y="714" type="line"/>
      <point x="272" y="307" type="line" smooth="yes"/>
      <point x="265" y="264"/>
      <point x="256" y="185"/>
      <point x="252" y="137" type="curve"/>
      <point x="249" y="137" type="line"/>
      <point x="244" y="185"/>
      <point x="235" y="264"/>
      <point x="228" y="307" type="curve" smooth="yes"/>
      <point x="161" y="714" type="line"/>
      <point x="5" y="714" type="line"/>
    </contour>
  </outline>
</glyph>
<glyph name="X" format="2">
  <advance width="530"/>
  <unicode hex="0058"/>
  <anchor x="250" y="0" name="bottom"/>
  <anchor x="250" y="714" name="top"/>
  <anchor x="480" y="714" name="topright"/>
  <outline>
    <contour>
      <point x="5" y="0" type="line"/>
      <point x="169" y="0" type="line"/>
      <point x="247" y="238" type="line"/>
      <point x="324" y="0" type="line"/>
      <point x="495" y="0" type="line"/>
      <point x="342" y="359" type="line"/>
      <point x="484" y="714" type="line"/>
      <point x="315" y="714" type="line"/>
      <point x="249" y="486" type="line"/>
      <point x="180" y="714" type="line"/>
      <point x="11" y="714" type="line"/>
      <point x="153" y="362" type="line"/>
    </contour>
  </outline>
</glyph>
<glyph name="bracketleft" format="2">
  <advance width="530"/>
  <unicode hex="005B"/>
  <outline>
    <contour>
      <point x="171" y="-166" type="line"/>
      <point x="409" y="-166" type="line"/>
      <point x="409" y="-54" type="line"/>
      <point x="307" y="-54" type="line"/>
      <point x="307" y="618" type="line"/>
      <point x="409" y="618" type="line"/>
      <point x="409" y="731" type="line"/>
      <point x="171" y="731" type="line"/>
    </contour>
  </outline>
</glyph>
<glyph name="underscore" format="2">
  <advance width="530"/>
  <unicode hex="005F"/>
  <outline>
    <contour>
      <point x="0" y="-198" type="line"/>
      <point x="500" y="-198" type="line"/>
      <point x="500" y="-68" type="line"/>
      <point x="0" y="-68" type="line"/>
    </contour>
  </outline>
</glyph>
<glyph name="grave" format="2">
  <advance width="530"/>
  <unicode hex="0060"/>
  <outline>
    <contour>
      <point x="248" y="606" type="curve"/>
      <point x="351" y="606" type="line"/>
      <point x="351" y="619" type="line"/>
      <point x="330" y="649"/>
      <point x="288" y="725"/>
      <point x="270" y="766" type="curve"/>
      <point x="109" y="766" type="line"/>
      <point x="109" y="757" type="line"/>
      <point x="135" y="721"/>
      <point x="214" y="637"/>
    </contour>
  </outline>
</glyph>
<glyph name="a" format="2">
  <advance width="530"/>
  <unicode hex="0061"/>
  <anchor x="260" y="0" name="bottom"/>
  <anchor x="450" y="10" name="ogonek"/>
  <anchor x="264" y="553" name="top"/>
  <anchor x="496" y="553" name="topright"/>
  <outline>
    <contour>
      <point x="188" y="-10" type="curve" smooth="yes"/>
      <point x="247" y="-10"/>
      <point x="290" y="16"/>
      <point x="320" y="73" type="curve"/>
      <point x="323" y="73" type="line"/>
      <point x="343" y="0" type="line"/>
      <point x="460" y="0" type="line"/>
      <point x="460" y="374" type="line" smooth="yes"/>
      <point x="460" y="498"/>
      <point x="389" y="563"/>
      <point x="257" y="563" type="curve" smooth="yes"/>
      <point x="187" y="563"/>
      <point x="128" y="545"/>
      <point x="74" y="513" type="curve"/>
      <point x="126" y="393" type="line"/>
      <point x="161" y="413"/>
      <point x="195" y="425"/>
      <point x="235" y="425" type="curve" smooth="yes"/>
      <point x="282" y="425"/>
      <point x="313" y="408"/>
      <point x="313" y="362" type="curve" smooth="yes"/>
      <point x="313" y="352" type="line"/>
      <point x="226" y="349" type="line" smooth="yes"/>
      <point x="114" y="345"/>
      <point x="40" y="290"/>
      <point x="40" y="164" type="curve" smooth="yes"/>
      <point x="40" y="58"/>
      <point x="93" y="-10"/>
    </contour>
    <contour>
      <point x="241" y="128" type="curve" smooth="yes"/>
      <point x="211" y="128"/>
      <point x="186" y="143"/>
      <point x="186" y="180" type="curve" smooth="yes"/>
      <point x="186" y="222"/>
      <point x="220" y="243"/>
      <point x="268" y="245" type="curve" smooth="yes"/>
      <point x="313" y="247" type="line"/>
      <point x="313" y="212" type="line" smooth="yes"/>
      <point x="313" y="156"/>
      <point x="282" y="128"/>
    </contour>
  </outline>
</glyph>
<glyph name="c" format="2">
  <advance width="530"/>
  <unicode hex="0063"/>
  <anchor x="299" y="0" name="bottom"/>
  <anchor x="290" y="553" name="top"/>
  <anchor x="480" y="553" name="topright"/>
  <outline>
    <contour>
      <point x="301" y="-10" type="curve" smooth="yes"/>
      <point x="350" y="-10"/>
      <point x="410" y="0"/>
      <point x="451" y="28" type="curve"/>
      <point x="451" y="178" type="line"/>
      <point x="409" y="141"/>
      <point x="359" y="128"/>
      <point x="321" y="128" type="curve" smooth="yes"/>
      <point x="250" y="128"/>
      <point x="205" y="172"/>
      <point x="205" y="278" type="curve" smooth="yes"/>
      <point x="205" y="370"/>
      <point x="239" y="423"/>
      <point x="316" y="423" type="curve" smooth="yes"/>
      <point x="357" y="423"/>
      <point x="392" y="411"/>
      <point x="422" y="393" type="curve"/>
      <point x="469" y="521" type="line"/>
      <point x="423" y="549"/>
      <point x="361" y="563"/>
      <point x="301" y="563" type="curve" smooth="yes"/>
      <point x="118" y="563"/>
      <point x="45" y="435"/>
      <point x="45" y="275" type="curve" smooth="yes"/>
      <point x="45" y="78"/>
      <point x="156" y="-10"/>
    </contour>
  </outline>
</glyph>
<glyph name="d" format="2">
  <advance width="530"/>
  <unicode hex="0064"/>
  <anchor x="250" y="0" name="bottom"/>
  <anchor x="250" y="277" name="center"/>
  <anchor x="250" y="760" name="top"/>
  <anchor x="500" y="760" name="topright"/>
  <outline>
    <contour>
      <point x="196" y="-10" type="curve" smooth="yes"/>
      <point x="252" y="-10"/>
      <point x="294" y="17"/>
      <point x="319" y="73" type="curve"/>
      <point x="327" y="73" type="line"/>
      <point x="338" y="0" type="line"/>
      <point x="465" y="0" type="line"/>
      <point x="465" y="760" type="line"/>
      <point x="315" y="760" type="line"/>
      <point x="315" y="593" type="line" smooth="yes"/>
      <point x="315" y="554"/>
      <point x="321" y="511"/>
      <point x="324" y="484" type="curve"/>
      <point x="315" y="484" type="line"/>
      <point x="289" y="542"/>
      <point x="246" y="563"/>
      <point x="198" y="563" type="curve" smooth="yes"/>
      <point x="85" y="563"/>
      <point x="20" y="451"/>
      <point x="20" y="275" type="curve" smooth="yes"/>
      <point x="20" y="108"/>
      <point x="78" y="-10"/>
    </contour>
    <contour>
      <point x="245" y="128" type="curve" smooth="yes"/>
      <point x="196" y="128"/>
      <point x="174" y="176"/>
      <point x="174" y="276" type="curve" smooth="yes"/>
      <point x="174" y="371"/>
      <point x="194" y="424"/>
      <point x="250" y="424" type="curve" smooth="yes"/>
      <point x="297" y="424"/>
      <point x="317" y="387"/>
      <point x="317" y="275" type="curve" smooth="yes"/>
      <point x="317" y="259" type="line" smooth="yes"/>
      <point x="317" y="162"/>
      <point x="287" y="128"/>
    </contour>
  </outline>
</glyph>
<glyph name="i" format="2">
  <advance width="530"/>
  <unicode hex="0069"/>
  <anchor x="263" y="0" name="bottom"/>
  <anchor x="261" y="774" name="top"/>
  <anchor x="432" y="774" name="topright"/>
  <outline>
    <contour>
      <point x="35" y="0" type="line"/>
      <point x="465" y="0" type="line"/>
      <point x="465" y="114" type="line"/>
      <point x="337" y="132" type="line"/>
      <point x="337" y="553" type="line"/>
      <point x="66" y="553" type="line"/>
      <point x="66" y="431" type="line"/>
      <point x="185" y="419" type="line"/>
      <point x="185" y="132" type="line"/>
      <point x="35" y="114" type="line"/>
    </contour>
    <contour>
      <point x="261" y="608" type="curve" smooth="yes"/>
      <point x="323" y="608"/>
      <point x="349" y="639"/>
      <point x="349" y="691" type="curve" smooth="yes"/>
      <point x="349" y="745"/>
      <point x="322" y="774"/>
      <point x="261" y="774" type="curve" smooth="yes"/>
      <point x="202" y="774"/>
      <point x="172" y="745"/>
      <point x="172" y="691" type="curve" smooth="yes"/>
      <point x="172" y="636"/>
      <point x="204" y="608"/>
    </contour>
  </outline>
</glyph>
<glyph name="q" format="2">
  <advance width="530"/>
  <unicode hex="0071"/>
  <anchor x="230" y="-240" name="bottom"/>
  <anchor x="230" y="553" name="top"/>
  <anchor x="480" y="553" name="topright"/>
  <outline>
    <contour>
      <point x="315" y="-240" type="line"/>
      <point x="465" y="-240" type="line"/>
      <point x="465" y="553" type="line"/>
      <point x="339" y="553" type="line"/>
      <point x="324" y="484" type="line"/>
      <point x="315" y="484" type="line"/>
      <point x="286" y="542"/>
      <point x="239" y="563"/>
      <point x="198" y="563" type="curve" smooth="yes"/>
      <point x="98" y="563"/>
      <point x="20" y="453"/>
      <point x="20" y="273" type="curve" smooth="yes"/>
      <point x="20" y="124"/>
      <point x="76" y="-10"/>
      <point x="190" y="-10" type="curve" smooth="yes"/>
      <point x="245" y="-10"/>
      <point x="295" y="17"/>
      <point x="319" y="73" type="curve"/>
      <point x="327" y="73" type="line"/>
      <point x="323" y="43"/>
      <point x="315" y="0"/>
      <point x="315" y="-50" type="curve" smooth="yes"/>
    </contour>
    <contour>
      <point x="251" y="128" type="curve" smooth="yes"/>
      <point x="201" y="128"/>
      <point x="184" y="173"/>
      <point x="184" y="275" type="curve" smooth="yes"/>
      <point x="184" y="372"/>
      <point x="203" y="424"/>
      <point x="252" y="424" type="curve" smooth="yes"/>
      <point x="304" y="424"/>
      <point x="318" y="379"/>
      <point x="318" y="275" type="curve" smooth="yes"/>
      <point x="318" y="259" type="line" smooth="yes"/>
      <point x="318" y="161"/>
      <point x="299" y="128"/>
    </contour>
  </outline>
</glyph>
<glyph name="s" format="2">
  <advance width="530"/>
  <unicode hex="0073"/>
  <anchor x="264" y="0" name="bottom"/>
  <anchor x="264" y="553" name="top"/>
  <anchor x="480" y="553" name="topright"/>
  <outline>
    <contour>
      <point x="227" y="-10" type="curve" smooth="yes"/>
      <point x="384" y="-10"/>
      <point x="456" y="52"/>
      <point x="456" y="169" type="curve" smooth="yes"/>
      <point x="456" y="252"/>
      <point x="419" y="284"/>
      <point x="319" y="334" type="curve" smooth="yes"/>
      <point x="255" y="366"/>
      <point x="221" y="376"/>
      <point x="221" y="400" type="curve" smooth="yes"/>
      <point x="221" y="417"/>
      <point x="237" y="431"/>
      <point x="282" y="431" type="curve" smooth="yes"/>
      <point x="319" y="431"/>
      <point x="360" y="421"/>
      <point x="412" y="396" type="curve"/>
      <point x="460" y="520" type="line"/>
      <point x="396" y="550"/>
      <point x="336" y="563"/>
      <point x="272" y="563" type="curve" smooth="yes"/>
      <point x="131" y="563"/>
      <point x="60" y="503"/>
      <point x="60" y="400" type="curve" smooth="yes"/>
      <point x="60" y="329"/>
      <point x="107" y="271"/>
      <point x="190" y="234" type="curve" smooth="yes"/>
      <point x="275" y="196"/>
      <point x="300" y="184"/>
      <point x="300" y="159" type="curve" smooth="yes"/>
      <point x="300" y="139"/>
      <point x="288" y="125"/>
      <point x="233" y="125" type="curve" smooth="yes"/>
      <point x="179" y="125"/>
      <point x="107" y="141"/>
      <point x="60" y="166" type="curve"/>
      <point x="60" y="22" type="line"/>
      <point x="109" y="1"/>
      <point x="162" y="-10"/>
    </contour>
  </outline>
</glyph>
<glyph name="t" format="2">
  <advance width="530"/>
  <unicode hex="0074"/>
  <anchor x="304" y="0" name="bottom"/>
  <anchor x="206" y="287" name="center"/>
  <anchor x="238" y="682" name="top"/>
  <anchor x="480" y="682" name="topright"/>
  <outline>
    <contour>
      <point x="320" y="-10" type="curve" smooth="yes"/>
      <point x="373" y="-10"/>
      <point x="439" y="0"/>
      <point x="485" y="18" type="curve"/>
      <point x="485" y="153" type="line"/>
      <point x="438" y="137"/>
      <point x="398" y="132"/>
      <point x="369" y="132" type="curve" smooth="yes"/>
      <point x="329" y="132"/>
      <point x="285" y="142"/>
      <point x="285" y="219" type="curve" smooth="yes"/>
      <point x="285" y="418" type="line"/>
      <point x="481" y="418" type="line"/>
      <point x="481" y="553" type="line"/>
      <point x="286" y="553" type="line"/>
      <point x="286" y="682" type="line"/>
      <point x="188" y="682" type="line"/>
      <point x="141" y="552" type="line"/>
      <point x="10" y="492" type="line"/>
      <point x="10" y="418" type="line"/>
      <point x="130" y="418" type="line"/>
      <point x="130" y="190" type="line" smooth="yes"/>
      <point x="130" y="53"/>
      <point x="207" y="-10"/>
    </contour>
  </outline>
</glyph>
<glyph name="v" format="2">
  <advance width="530"/>
  <unicode hex="0076"/>
  <anchor x="250" y="0" name="bottom"/>
  <anchor x="250" y="553" name="top"/>
  <anchor x="480" y="553" name="topright"/>
  <outline>
    <contour>
      <point x="152" y="0" type="line"/>
      <point x="338" y="0" type="line"/>
      <point x="495" y="553" type="line"/>
      <point x="330" y="553" type="line"/>
      <point x="268" y="246" type="line" smooth="yes"/>
      <point x="259" y="202"/>
      <point x="255" y="175"/>
      <point x="252" y="140" type="curve"/>
      <point x="248" y="140" type="line"/>
      <point x="244" y="175"/>
      <point x="240" y="202"/>
      <point x="230" y="247" type="curve" smooth="yes"/>
      <point x="165" y="553" type="line"/>
      <point x="5" y="553" type="line"/>
    </contour>
  </outline>
</glyph>
<glyph name="x" format="2">
  <advance width="530"/>
  <unicode hex="0078"/>
  <anchor x="250" y="0" name="bottom"/>
  <anchor x="250" y="553" name="top"/>
  <anchor x="480" y="553" name="topright"/>
  <outline>
    <contour>
      <point x="5" y="0" type="line"/>
      <point x="177" y="0" type="line"/>
      <point x="247" y="162" type="line"/>
      <point x="318" y="0" type="line"/>
      <point x="495" y="0" type="line"/>
      <point x="350" y="282" type="line"/>
      <point x="490" y="553" type="line"/>
      <point x="315" y="553" type="line"/>
      <point x="251" y="402" type="line"/>
      <point x="184" y="553" type="line"/>
      <point x="8" y="553" type="line"/>
      <point x="151" y="282" type="line"/>
    </contour>
  </outline>
</glyph>
<glyph name="y" format="2">
  <advance width="530"/>
  <unicode hex="0079"/>
  <anchor x="250" y="-245" name="bottom"/>
  <anchor x="250" y="553" name="top"/>
  <anchor x="480" y="553" name="topright"/>
  <outline>
    <contour>
      <point x="89" y="-245" type="curve" smooth="yes"/>
      <point x="209" y="-245"/>
      <point x="283" y="-192"/>
      <point x="326" y="-40" type="curve" smooth="yes"/>
      <point x="495" y="553" type="line"/>
      <point x="325" y="553" type="line"/>
      <point x="276" y="303" type="line" smooth="yes"/>
      <point x="268" y="262"/>
      <point x="262" y="234"/>
      <point x="259" y="212" type="curve"/>
      <point x="255" y="212" type="line"/>
      <point x="251" y="235"/>
      <point x="247" y="263"/>
      <point x="237" y="303" type="curve" smooth="yes"/>
      <point x="176" y="553" type="line"/>
      <point x="5" y="553" type="line"/>
      <point x="191" y="0" type="line"/>
      <point x="188" y="-10" type="line" smooth="yes"/>
      <point x="159" y="-107"/>
      <point x="101" y="-114"/>
      <point x="62" y="-114" type="curve" smooth="yes"/>
      <point x="48" y="-114"/>
      <point x="34" y="-112"/>
      <point x="21" y="-108" type="curve"/>
      <point x="21" y="-237" type="line"/>
      <point x="42" y="-242"/>
      <point x="65" y="-245"/>
    </contour>
  </outline>
</glyph>
<glyph name="z" format="2">
  <advance width="530"/>
  <unicode hex="007A"/>
  <anchor x="246" y="0" name="bottom"/>
  <anchor x="246" y="553" name="top"/>
  <anchor x="480" y="553" name="topright"/>
  <outline>
    <contour>
      <point x="45" y="0" type="line"/>
      <point x="455" y="0" type="line"/>
      <point x="455" y="135" type="line"/>
      <point x="238" y="135" type="line"/>
      <point x="442" y="440" type="line"/>
      <point x="442" y="553" type="line"/>
      <point x="52" y="553" type="line"/>
      <point x="52" y="419" type="line"/>
      <point x="261" y="419" type="line"/>
      <point x="45" y="99" type="line"/>
    </contour>
  </outline>
</glyph>
<glyph name="asciitilde" format="2">
  <advance width="530"/>
  <unicode hex="007E"/>
  <outline>
    <contour>
      <point x="35" y="263" type="line"/>
      <point x="70" y="302"/>
      <point x="104" y="322"/>
      <point x="135" y="322" type="curve" smooth="yes"/>
      <point x="165" y="322"/>
      <point x="198" y="313"/>
      <point x="234" y="295" type="curve" smooth="yes"/>
      <point x="274" y="275"/>
      <point x="312" y="265"/>
      <point x="353" y="265" type="curve" smooth="yes"/>
      <point x="397" y="265"/>
      <point x="435" y="282"/>
      <point x="465" y="317" type="curve"/>
      <point x="465" y="442" type="line"/>
      <point x="433" y="405"/>
      <point x="395" y="383"/>
      <point x="365" y="383" type="curve" smooth="yes"/>
      <point x="335" y="383"/>
      <point x="303" y="392"/>
      <point x="265" y="410" type="curve" smooth="yes"/>
      <point x="226" y="428"/>
      <point x="189" y="441"/>
      <point x="147" y="441" type="curve" smooth="yes"/>
      <point x="102" y="441"/>
      <point x="65" y="423"/>
      <point x="35" y="388" type="curve"/>
    </contour>
  </outline>
</glyph>
<glyph name="currency" format="2">
  <advance width="530"/>
  <unicode hex="00A4"/>
  <outline>
    <contour>
      <point x="414" y="123" type="line"/>
      <point x="479" y="189" type="line"/>
      <point x="417" y="251" type="line"/>
      <point x="435" y="281"/>
      <point x="445" y="315"/>
      <point x="445" y="353" type="curve" smooth="yes"/>
      <point x="445" y="391"/>
      <point x="435" y="424"/>
      <point x="417" y="454" type="curve"/>
      <point x="481" y="519" type="line"/>
      <point x="414" y="583" type="line"/>
      <point x="350" y="519" type="line"/>
      <point x="319" y="538"/>
      <point x="286" y="548"/>
      <point x="250" y="548" type="curve" smooth="yes"/>
      <point x="213" y="548"/>
      <point x="179" y="539"/>
      <point x="148" y="520" type="curve"/>
      <point x="86" y="583" type="line"/>
      <point x="19" y="517" type="line"/>
      <point x="84" y="453" type="line"/>
      <point x="64" y="421"/>
      <point x="54" y="388"/>
      <point x="54" y="353" type="curve" smooth="yes"/>
      <point x="54" y="315"/>
      <point x="64" y="282"/>
      <point x="84" y="252" type="curve"/>
      <point x="20" y="190" type="line"/>
      <point x="86" y="124" type="line"/>
      <point x="147" y="186" type="line"/>
      <point x="176" y="168"/>
      <point x="210" y="159"/>
      <point x="250" y="159" type="curve" smooth="yes"/>
      <point x="285" y="159"/>
      <point x="319" y="168"/>
      <point x="350" y="186" type="curve"/>
    </contour>
    <contour>
      <point x="250" y="251" type="curve" smooth="yes"/>
      <point x="189" y="251"/>
      <point x="148" y="294"/>
      <point x="148" y="354" type="curve" smooth="yes"/>
      <point x="148" y="416"/>
      <point x="189" y="456"/>
      <point x="250" y="456" type="curve" smooth="yes"/>
      <point x="311" y="456"/>
      <point x="353" y="416"/>
      <point x="353" y="358" type="curve" smooth="yes"/>
      <point x="353" y="294"/>
      <point x="312" y="251"/>
    </contour>
  </outline>
</glyph>
<glyph name="section" format="2">
  <advance width="530"/>
  <unicode hex="00A7"/>
  <outline>
    <contour>
      <point x="213" y="-9" type="curve" smooth="yes"/>
      <point x="337" y="-9"/>
      <point x="414" y="51"/>
      <point x="414" y="146" type="curve" smooth="yes"/>
      <point x="414" y="191"/>
      <point x="397" y="233"/>
      <point x="359" y="263" type="curve"/>
      <point x="408" y="297"/>
      <point x="432" y="335"/>
      <point x="432" y="391" type="curve" smooth="yes"/>
      <point x="432" y="472"/>
      <point x="383" y="504"/>
      <point x="290" y="551" type="curve" smooth="yes"/>
      <point x="252" y="570"/>
      <point x="215" y="589"/>
      <point x="215" y="625" type="curve" smooth="yes"/>
      <point x="215" y="653"/>
      <point x="239" y="668"/>
      <point x="279" y="668" type="curve" smooth="yes"/>
      <point x="318" y="668"/>
      <point x="356" y="654"/>
      <point x="396" y="629" type="curve"/>
      <point x="433" y="727" type="line"/>
      <point x="383" y="753"/>
      <point x="335" y="766"/>
      <point x="281" y="766" type="curve" smooth="yes"/>
      <point x="171" y="766"/>
      <point x="93" y="713"/>
      <point x="93" y="626" type="curve" smooth="yes"/>
      <point x="93" y="581"/>
      <point x="114" y="537"/>
      <point x="155" y="505" type="curve"/>
      <point x="96" y="472"/>
      <point x="73" y="435"/>
      <point x="73" y="382" type="curve" smooth="yes"/>
      <point x="73" y="299"/>
      <point x="130" y="265"/>
      <point x="215" y="219" type="curve" smooth="yes"/>
      <point x="269" y="190"/>
      <point x="293" y="176"/>
      <point x="293" y="144" type="curve" smooth="yes"/>
      <point x="293" y="107"/>
      <point x="261" y="89"/>
      <point x="216" y="89" type="curve" smooth="yes"/>
      <point x="165" y="89"/>
      <point x="109" y="112"/>
      <point x="67" y="140" type="curve"/>
      <point x="67" y="31" type="line"/>
      <point x="107" y="4"/>
      <point x="155" y="-9"/>
    </contour>
    <contour>
      <point x="287" y="309" type="curve"/>
      <point x="256" y="325" type="line" smooth="yes"/>
      <point x="206" y="351"/>
      <point x="185" y="373"/>
      <point x="185" y="405" type="curve" smooth="yes"/>
      <point x="185" y="431"/>
      <point x="198" y="451"/>
      <point x="226" y="462" type="curve"/>
      <point x="298" y="430"/>
      <point x="320" y="404"/>
      <point x="320" y="368" type="curve" smooth="yes"/>
      <point x="320" y="342"/>
      <point x="309" y="324"/>
    </contour>
  </outline>
</glyph>
<glyph name="guillemotleft" format="2">
  <advance width="530"/>
  <unicode hex="00AB"/>
  <outline>
    <contour>
      <point x="389" y="32" type="line"/>
      <point x="493" y="88" type="line"/>
      <point x="392" y="263" type="line"/>
      <point x="493" y="439" type="line"/>
      <point x="389" y="494" type="line"/>
      <point x="236" y="270" type="line"/>
      <point x="236" y="256" type="line"/>
    </contour>
    <contour>
      <point x="160" y="32" type="line"/>
      <point x="264" y="88" type="line"/>
      <point x="162" y="263" type="line"/>
      <point x="264" y="439" type="line"/>
      <point x="160" y="494" type="line"/>
      <point x="7" y="270" type="line"/>
      <point x="7" y="256" type="line"/>
    </contour>
  </outline>
</glyph>
<glyph name="logicalnot" format="2">
  <advance width="530"/>
  <unicode hex="00AC"/>
  <outline>
    <contour>
      <point x="336" y="117" type="line"/>
      <point x="457" y="117" type="line"/>
      <point x="457" y="412" type="line"/>
      <point x="43" y="412" type="line"/>
      <point x="43" y="294" type="line"/>
      <point x="336" y="294" type="line"/>
    </contour>
  </outline>
</glyph>
<glyph name="overscore" format="2">
  <advance width="530"/>
  <unicode hex="00AF"/>
  <outline>
    <contour>
      <point x="98" y="639" type="line"/>
      <point x="381" y="639" type="line"/>
      <point x="381" y="741" type="line"/>
      <point x="98" y="741" type="line"/>
    </contour>
  </outline>
</glyph>
<glyph name="twosuperior" format="2">
  <advance width="530"/>
  <unicode hex="00B2"/>
  <outline>
    <contour>
      <point x="115" y="415" type="line"/>
      <point x="400" y="415" type="line"/>
      <point x="400" y="507" type="line"/>
      <point x="233" y="507" type="line"/>
      <point x="246" y="521" type="line" smooth="yes"/>
      <point x="338" y="620"/>
      <point x="388" y="664"/>
      <point x="388" y="735" type="curve" smooth="yes"/>
      <point x="388" y="807"/>
      <point x="337" y="854"/>
      <point x="253" y="854" type="curve" smooth="yes"/>
      <point x="183" y="854"/>
      <point x="133" y="822"/>
      <point x="110" y="791" type="curve"/>
      <point x="159" y="721" type="line"/>
      <point x="186" y="752"/>
      <point x="209" y="764"/>
      <point x="236" y="764" type="curve" smooth="yes"/>
      <point x="265" y="764"/>
      <point x="280" y="750"/>
      <point x="280" y="725" type="curve" smooth="yes"/>
      <point x="280" y="696"/>
      <point x="260" y="664"/>
      <point x="205" y="605" type="curve" smooth="yes"/>
      <point x="115" y="508" type="line"/>
    </contour>
  </outline>
</glyph>
<glyph name="onesuperior" format="2">
  <advance width="530"/>
  <unicode hex="00B9"/>
  <outline>
    <contour>
      <point x="227" y="415" type="line"/>
      <point x="328" y="415" type="line"/>
      <point x="328" y="843" type="line"/>
      <point x="242" y="843" type="line"/>
      <point x="97" y="753" type="line"/>
      <point x="147" y="678" type="line"/>
      <point x="185" y="704" type="line" smooth="yes"/>
      <point x="195" y="711"/>
      <point x="216" y="725"/>
      <point x="229" y="736" type="curve"/>
      <point x="227" y="698"/>
      <point x="227" y="646"/>
      <point x="227" y="611" type="curve" smooth="yes"/>
    </contour>
    <contour>
      <point x="128" y="415" type="line"/>
      <point x="419" y="415" type="line"/>
      <point x="419" y="492" type="line"/>
      <point x="303" y="501" type="line"/>
      <point x="254" y="501" type="line"/>
      <point x="128" y="490" type="line"/>
    </contour>
  </outline>
</glyph>
<glyph name="ordmasculine" format="2">
  <advance width="530"/>
  <unicode hex="00BA"/>
  <outline>
    <contour>
      <point x="252" y="361" type="curve" smooth="yes"/>
      <point x="346" y="361"/>
      <point x="401" y="430"/>
      <point x="401" y="542" type="curve" smooth="yes"/>
      <point x="401" y="656"/>
      <point x="342" y="722"/>
      <point x="252" y="722" type="curve" smooth="yes"/>
      <point x="158" y="722"/>
      <point x="99" y="655"/>
      <point x="99" y="542" type="curve" smooth="yes"/>
      <point x="99" y="433"/>
      <point x="156" y="361"/>
    </contour>
    <contour>
      <point x="252" y="447" type="curve" smooth="yes"/>
      <point x="219" y="447"/>
      <point x="202" y="477"/>
      <point x="202" y="542" type="curve" smooth="yes"/>
      <point x="202" y="606"/>
      <point x="219" y="637"/>
      <point x="252" y="637" type="curve" smooth="yes"/>
      <point x="284" y="637"/>
      <point x="299" y="606"/>
      <point x="299" y="542" type="curve" smooth="yes"/>
      <point x="299" y="477"/>
      <point x="285" y="447"/>
    </contour>
  </outline>
</glyph>
<glyph name="Eth" format="2">
  <advance width="530"/>
  <unicode hex="00D0"/>
  <anchor x="250" y="0" name="bottom"/>
  <anchor x="250" y="714" name="top"/>
  <anchor x="510" y="714" name="topright"/>
  <anchor x="260" y="357" name="center"/>
  <outline>
    <contour>
      <point x="0" y="303" type="line"/>
      <point x="254" y="303" type="line"/>
      <point x="254" y="416" type="line"/>
      <point x="0" y="416" type="line"/>
    </contour>
    <component base="D" xOffset="10"/>
  </outline>
</glyph>
<glyph name="Oslash" format="2">
  <advance width="530"/>
  <unicode hex="00D8"/>
  <anchor x="250" y="0" name="bottom"/>
  <anchor x="250" y="714" name="top"/>
  <anchor x="20" y="714" name="topleft"/>
  <anchor x="267" y="10" name="ogonek"/>
  <anchor x="250" y="357" name="center"/>
  <anchor x="500" y="714" name="topright"/>
  <outline>
    <contour>
      <point x="101" y="-46" type="line"/>
      <point x="481" y="727" type="line"/>
      <point x="408" y="761" type="line"/>
      <point x="27" y="-12" type="line"/>
    </contour>
    <component base="O"/>
  </outline>
</glyph>
<glyph name="germandbls" format="2">
  <advance width="530"/>
  <unicode hex="00DF"/>
  <anchor x="250" y="0" name="bottom"/>
  <anchor x="250" y="765" name="top"/>
  <outline>
    <contour>
      <point x="313" y="-10" type="curve" smooth="yes"/>
      <point x="422" y="-10"/>
      <point x="485" y="51"/>
      <point x="485" y="168" type="curve" smooth="yes"/>
      <point x="485" y="258"/>
      <point x="448" y="300"/>
      <point x="422" y="328" type="curve" smooth="yes"/>
      <point x="386" y="366"/>
      <point x="380" y="381"/>
      <point x="380" y="398" type="curve" smooth="yes"/>
      <point x="380" y="446"/>
      <point x="437" y="478"/>
      <point x="437" y="582" type="curve" smooth="yes"/>
      <point x="437" y="705"/>
      <point x="356" y="765"/>
      <point x="244" y="765" type="curve" smooth="yes"/>
      <point x="111" y="765"/>
      <point x="29" y="680"/>
      <point x="29" y="544" type="curve" smooth="yes"/>
      <point x="29" y="0" type="line"/>
      <point x="175" y="0" type="line"/>
      <point x="175" y="518" type="line" smooth="yes"/>
      <point x="175" y="603"/>
      <point x="189" y="643"/>
      <point x="237" y="643" type="curve" smooth="yes"/>
      <point x="278" y="643"/>
      <point x="291" y="615"/>
      <point x="291" y="578" type="curve" smooth="yes"/>
      <point x="291" y="500"/>
      <point x="233" y="485"/>
      <point x="233" y="384" type="curve" smooth="yes"/>
      <point x="233" y="308"/>
      <point x="266" y="282"/>
      <point x="301" y="238" type="curve" smooth="yes"/>
      <point x="336" y="195"/>
      <point x="337" y="180"/>
      <point x="337" y="170" type="curve" smooth="yes"/>
      <point x="337" y="131"/>
      <point x="323" y="116"/>
      <point x="292" y="116" type="curve" smooth="yes"/>
      <point x="264" y="116"/>
      <point x="241" y="128"/>
      <point x="209" y="155" type="curve"/>
      <point x="209" y="18" type="line"/>
      <point x="245" y="-2"/>
      <point x="274" y="-10"/>
    </contour>
  </outline>
</glyph>
<glyph name="divide" format="2">
  <advance width="530"/>
  <unicode hex="00F7"/>
  <outline>
    <contour>
      <point x="40" y="294" type="line"/>
      <point x="460" y="294" type="line"/>
      <point x="460" y="412" type="line"/>
      <point x="40" y="412" type="line"/>
    </contour>
    <contour>
      <point x="251" y="78" type="curve" smooth="yes"/>
      <point x="296" y="78"/>
      <point x="323" y="107"/>
      <point x="323" y="159" type="curve" smooth="yes"/>
      <point x="323" y="211"/>
      <point x="298" y="240"/>
      <point x="251" y="240" type="curve" smooth="yes"/>
      <point x="202" y="240"/>
      <point x="176" y="211"/>
      <point x="176" y="159" type="curve" smooth="yes"/>
      <point x="176" y="107"/>
      <point x="205" y="78"/>
    </contour>
    <contour>
      <point x="251" y="465" type="curve" smooth="yes"/>
      <point x="296" y="465"/>
      <point x="323" y="494"/>
      <point x="323" y="546" type="curve" smooth="yes"/>
      <point x="323" y="598"/>
      <point x="298" y="627"/>
      <point x="251" y="627" type="curve" smooth="yes"/>
      <point x="202" y="627"/>
      <point x="176" y="598"/>
      <point x="176" y="546" type="curve" smooth="yes"/>
      <point x="176" y="494"/>
      <point x="205" y="465"/>
    </contour>
  </outline>
</glyph>
<glyph name="hbar" format="2">
  <advance width="530"/>
  <unicode hex="0127"/>
  <anchor x="250" y="0" name="bottom"/>
  <anchor x="250" y="277" name="center"/>
  <anchor x="112" y="760" name="top"/>
  <outline>
    <contour>
      <point x="0" y="581" type="line"/>
      <point x="297" y="581" type="line"/>
      <point x="297" y="684" type="line"/>
      <point x="0" y="684" type="line"/>
    </contour>
    <contour>
      <point x="35" y="0" type="line"/>
      <point x="190" y="0" type="line"/>
      <point x="190" y="268" type="line" smooth="yes"/>
      <point x="190" y="356"/>
      <point x="204" y="408"/>
      <point x="258" y="408" type="curve" smooth="yes"/>
      <point x="313" y="408"/>
      <point x="315" y="366"/>
      <point x="315" y="298" type="curve" smooth="yes"/>
      <point x="315" y="0" type="line"/>
      <point x="470" y="0" type="line"/>
      <point x="470" y="350" type="line" smooth="yes"/>
      <point x="470" y="479"/>
      <point x="412" y="553"/>
      <point x="314" y="553" type="curve" smooth="yes"/>
      <point x="251" y="553"/>
      <point x="208" y="522"/>
      <point x="186" y="474" type="curve"/>
      <point x="177" y="474" type="line"/>
      <point x="186" y="518"/>
      <point x="190" y="565"/>
      <point x="190" y="611" type="curve" smooth="yes"/>
      <point x="190" y="760" type="line"/>
      <point x="35" y="760" type="line"/>
    </contour>
  </outline>
</glyph>
<glyph name="Eng" format="2">
  <advance width="530"/>
  <unicode hex="014A"/>
  <anchor x="255" y="-218" name="bottom"/>
  <anchor x="255" y="714" name="top"/>
  <anchor x="500" y="714" name="topright"/>
  <outline>
    <contour>
      <point x="289" y="-218" type="curve" smooth="yes"/>
      <point x="419" y="-218"/>
      <point x="475" y="-137"/>
      <point x="475" y="-4" type="curve" smooth="yes"/>
      <point x="475" y="129" type="line"/>
      <point x="351" y="99" type="line"/>
      <point x="351" y="4" type="line" smooth="yes"/>
      <point x="351" y="-70"/>
      <point x="326" y="-107"/>
      <point x="265" y="-107" type="curve" smooth="yes"/>
      <point x="244" y="-107"/>
      <point x="226" y="-103"/>
      <point x="210" y="-97" type="curve"/>
      <point x="210" y="-207" type="line"/>
      <point x="235" y="-215"/>
      <point x="261" y="-218"/>
    </contour>
    <component base="N"/>
  </outline>
</glyph>
<glyph name="eng" format="2">
  <advance width="530"/>
  <unicode hex="014B"/>
  <anchor x="255" y="-240" name="bottom"/>
  <anchor x="260" y="553" name="top"/>
  <anchor x="501" y="553" name="topright"/>
  <outline>
    <contour>
      <point x="294" y="-240" type="curve" smooth="yes"/>
      <point x="411" y="-240"/>
      <point x="468" y="-154"/>
      <point x="468" y="-52" type="curve" smooth="yes"/>
      <point x="468" y="358" type="line"/>
      <point x="392" y="313" type="line" smooth="yes"/>
      <point x="306" y="181" type="line" smooth="yes"/>
      <point x="181" y="-13"/>
      <point x="290" y="-113"/>
      <point x="260" y="-113" type="curve" smooth="yes"/>
      <point x="247" y="-113"/>
      <point x="233" y="-110"/>
      <point x="217" y="-104" type="curve"/>
      <point x="217" y="-229" type="line"/>
      <point x="242" y="-237"/>
      <point x="269" y="-240"/>
    </contour>
    <component base="n"/>
  </outline>
</glyph>
<glyph name="OE" format="2">
  <advance width="530"/>
  <unicode hex="0152"/>
  <anchor x="250" y="0" name="bottom"/>
  <anchor x="250" y="714" name="top"/>
  <outline>
    <contour>
      <point x="213" y="-11" type="curve" smooth="yes"/>
      <point x="235" y="-11"/>
      <point x="260" y="-8"/>
      <point x="283" y="0" type="curve"/>
      <point x="485" y="0" type="line"/>
      <point x="485" y="140" type="line"/>
      <point x="380" y="140" type="line"/>
      <point x="380" y="300" type="line"/>
      <point x="467" y="300" type="line"/>
      <point x="467" y="440" type="line"/>
      <point x="380" y="440" type="line"/>
      <point x="380" y="574" type="line"/>
      <point x="485" y="574" type="line"/>
      <point x="485" y="714" type="line"/>
      <point x="276" y="714" type="line"/>
      <point x="241" y="722"/>
      <point x="219" y="725"/>
      <point x="198" y="725" type="curve" smooth="yes"/>
      <point x="52" y="725"/>
      <point x="15" y="577"/>
      <point x="15" y="361" type="curve" smooth="yes"/>
      <point x="15" y="133"/>
      <point x="56" y="-11"/>
    </contour>
    <contour>
      <point x="221" y="127" type="curve" smooth="yes"/>
      <point x="169" y="127"/>
      <point x="150" y="202"/>
      <point x="150" y="354" type="curve" smooth="yes"/>
      <point x="150" y="505"/>
      <point x="169" y="590"/>
      <point x="225" y="590" type="curve" smooth="yes"/>
      <point x="231" y="590"/>
      <point x="240" y="589"/>
      <point x="250" y="581" type="curve"/>
      <point x="250" y="135" type="line"/>
      <point x="239" y="128"/>
      <point x="232" y="127"/>
    </contour>
  </outline>
</glyph>
<glyph name="oe" format="2">
  <advance width="530"/>
  <unicode hex="0153"/>
  <anchor x="250" y="0" name="bottom"/>
  <anchor x="250" y="553" name="top"/>
  <outline>
    <contour>
      <point x="160" y="-10" type="curve" smooth="yes"/>
      <point x="205" y="-10"/>
      <point x="241" y="8"/>
      <point x="273" y="47" type="curve"/>
      <point x="303" y="7"/>
      <point x="345" y="-10"/>
      <point x="390" y="-10" type="curve" smooth="yes"/>
      <point x="427" y="-10"/>
      <point x="461" y="1"/>
      <point x="488" y="26" type="curve"/>
      <point x="488" y="153" type="line"/>
      <point x="463" y="129"/>
      <point x="435" y="120"/>
      <point x="411" y="120" type="curve" smooth="yes"/>
      <point x="358" y="120"/>
      <point x="338" y="164"/>
      <point x="336" y="230" type="curve"/>
      <point x="495" y="230" type="line"/>
      <point x="495" y="269" type="line" smooth="yes"/>
      <point x="495" y="436"/>
      <point x="470" y="563"/>
      <point x="359" y="563" type="curve" smooth="yes"/>
      <point x="315" y="563"/>
      <point x="287" y="542"/>
      <point x="266" y="499" type="curve"/>
      <point x="242" y="542"/>
      <point x="202" y="563"/>
      <point x="155" y="563" type="curve" smooth="yes"/>
      <point x="33" y="563"/>
      <point x="10" y="430"/>
      <point x="10" y="287" type="curve" smooth="yes"/>
      <point x="10" y="105"/>
      <point x="47" y="-10"/>
    </contour>
    <contour>
      <point x="168" y="123" type="curve" smooth="yes"/>
      <point x="140" y="123"/>
      <point x="136" y="178"/>
      <point x="136" y="285" type="curve" smooth="yes"/>
      <point x="136" y="380"/>
      <point x="140" y="431"/>
      <point x="168" y="431" type="curve" smooth="yes"/>
      <point x="197" y="431"/>
      <point x="199" y="380"/>
      <point x="199" y="285" type="curve" smooth="yes"/>
      <point x="199" y="181"/>
      <point x="198" y="123"/>
    </contour>
    <contour>
      <point x="327" y="335" type="line"/>
      <point x="327" y="410"/>
      <point x="335" y="430"/>
      <point x="353" y="430" type="curve" smooth="yes"/>
      <point x="370" y="430"/>
      <point x="380" y="410"/>
      <point x="380" y="335" type="curve"/>
    </contour>
  </outline>
</glyph>
<glyph name="tbar" format="2">
  <advance width="530"/>
  <unicode hex="0167"/>
  <anchor x="296" y="0" name="bottom"/>
  <anchor x="233" y="682" name="top"/>
  <anchor x="480" y="682" name="topright"/>
  <anchor x="206" y="287" name="center"/>
  <outline>
    <contour>
      <point x="10" y="231" type="line"/>
      <point x="485" y="231" type="line"/>
      <point x="485" y="334" type="line"/>
      <point x="10" y="334" type="line"/>
    </contour>
    <component base="t"/>
  </outline>
</glyph>
<glyph name="uni0180" format="2">
  <advance width="530"/>
  <unicode hex="0180"/>
  <anchor x="250" y="0" name="bottom"/>
  <anchor x="264" y="760" name="top"/>
  <anchor x="480" y="760" name="topright"/>
  <outline>
    <contour>
      <point x="-7" y="584" type="line"/>
      <point x="301" y="584" type="line"/>
      <point x="301" y="698" type="line"/>
      <point x="-7" y="698" type="line"/>
    </contour>
    <component base="b"/>
  </outline>
</glyph>
<glyph name="uni0185" format="2">
  <advance width="530"/>
  <unicode hex="0185"/>
  <anchor x="250" y="0" name="bottom"/>
  <anchor x="250" y="760" name="top"/>
  <outline>
    <contour>
      <point x="247" y="-10" type="curve" smooth="yes"/>
      <point x="381" y="-10"/>
      <point x="480" y="76"/>
      <point x="480" y="275" type="curve" smooth="yes"/>
      <point x="480" y="467"/>
      <point x="419" y="561"/>
      <point x="313" y="561" type="curve" smooth="yes"/>
      <point x="241" y="561"/>
      <point x="208" y="528"/>
      <point x="186" y="489" type="curve"/>
      <point x="177" y="489" type="line"/>
      <point x="181" y="509"/>
      <point x="186" y="542"/>
      <point x="186" y="589" type="curve" smooth="yes"/>
      <point x="186" y="760" type="line"/>
      <point x="35" y="760" type="line"/>
      <point x="35" y="265" type="line" smooth="yes"/>
      <point x="35" y="90"/>
      <point x="102" y="-10"/>
    </contour>
    <contour>
      <point x="254" y="128" type="curve"/>
      <point x="210" y="128"/>
      <point x="186" y="159"/>
      <point x="186" y="267" type="curve" smooth="yes"/>
      <point x="186" y="299" type="line" smooth="yes"/>
      <point x="186" y="385"/>
      <point x="206" y="425"/>
      <point x="252" y="425" type="curve" smooth="yes"/>
      <point x="303" y="425"/>
      <point x="319" y="379"/>
      <point x="319" y="275" type="curve" smooth="yes"/>
      <point x="319" y="164"/>
      <point x="296" y="128"/>
    </contour>
  </outline>
</glyph>
<glyph name="uni018A" format="2">
  <advance width="530"/>
  <unicode hex="018A"/>
  <anchor x="250" y="0" name="bottom"/>
  <anchor x="250" y="714" name="top"/>
  <outline>
    <contour>
      <point x="137" y="0" type="line"/>
      <point x="291" y="0" type="line" smooth="yes"/>
      <point x="433" y="0"/>
      <point x="486" y="110"/>
      <point x="486" y="372" type="curve" smooth="yes"/>
      <point x="486" y="611"/>
      <point x="435" y="714"/>
      <point x="291" y="714" type="curve" smooth="yes"/>
      <point x="137" y="714" type="line"/>
    </contour>
    <contour>
      <point x="281" y="140" type="line"/>
      <point x="281" y="574" type="line"/>
      <point x="290" y="574" type="line" smooth="yes"/>
      <point x="332" y="574"/>
      <point x="345" y="524"/>
      <point x="345" y="357" type="curve" smooth="yes"/>
      <point x="345" y="191"/>
      <point x="324" y="140"/>
      <point x="290" y="140" type="curve" smooth="yes"/>
    </contour>
    <contour>
      <point x="6" y="465" type="curve"/>
      <point x="102" y="465" type="line"/>
      <point x="100" y="478"/>
      <point x="97" y="501"/>
      <point x="97" y="524" type="curve" smooth="yes"/>
      <point x="97" y="569"/>
      <point x="114" y="588"/>
      <point x="145" y="588" type="curve" smooth="yes"/>
      <point x="176" y="588" type="line"/>
      <point x="176" y="714" type="line"/>
      <point x="150" y="714" type="line"/>
      <point x="49" y="714"/>
      <point x="-1" y="650"/>
      <point x="-1" y="539" type="curve" smooth="yes"/>
      <point x="-1" y="511"/>
      <point x="3" y="477"/>
    </contour>
  </outline>
</glyph>
<glyph name="uni018C" format="2">
  <advance width="530"/>
  <unicode hex="018C"/>
  <anchor x="250" y="0" name="bottom"/>
  <anchor x="266" y="760" name="top"/>
  <anchor x="500" y="760" name="topright"/>
  <anchor x="250" y="277" name="center"/>
  <outline>
    <contour>
      <point x="80" y="630" type="line"/>
      <point x="372" y="630" type="line"/>
      <point x="372" y="760" type="line"/>
      <point x="80" y="760" type="line"/>
    </contour>
    <component base="d"/>
  </outline>
</glyph>
<glyph name="uni0196" format="2">
  <advance width="530"/>
  <unicode hex="0196"/>
  <anchor x="280" y="0" name="bottom"/>
  <anchor x="210" y="714" name="top"/>
  <outline>
    <contour>
      <point x="299" y="-10" type="curve" smooth="yes"/>
      <point x="344" y="-10"/>
      <point x="388" y="0"/>
      <point x="420" y="21" type="curve"/>
      <point x="420" y="157" type="line"/>
      <point x="395" y="143"/>
      <point x="367" y="136"/>
      <point x="345" y="136" type="curve" smooth="yes"/>
      <point x="312" y="136"/>
      <point x="278" y="152"/>
      <point x="278" y="215" type="curve" smooth="yes"/>
      <point x="278" y="714" type="line"/>
      <point x="125" y="714" type="line"/>
      <point x="125" y="176" type="line" smooth="yes"/>
      <point x="125" y="42"/>
      <point x="196" y="-10"/>
    </contour>
  </outline>
</glyph>
<glyph name="uni0198" format="2">
  <advance width="530"/>
  <unicode hex="0198"/>
  <anchor x="250" y="0" name="bottom"/>
  <anchor x="250" y="714" name="top"/>
  <outline>
    <contour>
      <point x="25" y="0" type="line"/>
      <point x="177" y="0" type="line"/>
      <point x="177" y="208" type="line"/>
      <point x="228" y="266" type="line"/>
      <point x="316" y="0" type="line"/>
      <point x="491" y="0" type="line"/>
      <point x="348" y="390" type="line"/>
      <point x="415" y="536" type="line" smooth="yes"/>
      <point x="430" y="569"/>
      <point x="440" y="580"/>
      <point x="461" y="580" type="curve" smooth="yes"/>
      <point x="477" y="580"/>
      <point x="493" y="574"/>
      <point x="503" y="569" type="curve"/>
      <point x="503" y="709" type="line"/>
      <point x="485" y="717"/>
      <point x="463" y="726"/>
      <point x="425" y="726" type="curve" smooth="yes"/>
      <point x="356" y="726"/>
      <point x="332" y="697"/>
      <point x="278" y="588" type="curve" smooth="yes"/>
      <point x="232" y="495" type="line" smooth="yes"/>
      <point x="226" y="483"/>
      <point x="193" y="415"/>
      <point x="177" y="378" type="curve"/>
      <point x="177" y="714" type="line"/>
      <point x="25" y="714" type="line"/>
    </contour>
  </outline>
</glyph>
<glyph name="uni0199" format="2">
  <advance width="530"/>
  <unicode hex="0199"/>
  <anchor x="250" y="0" name="bottom"/>
  <anchor x="250" y="765" name="top"/>
  <outline>
    <contour>
      <point x="35" y="0" type="line"/>
      <point x="185" y="0" type="line"/>
      <point x="185" y="171" type="line"/>
      <point x="219" y="192" type="line"/>
      <point x="317" y="0" type="line"/>
      <point x="495" y="0" type="line"/>
      <point x="326" y="285" type="line"/>
      <point x="494" y="553" type="line"/>
      <point x="322" y="553" type="line"/>
      <point x="227" y="396" type="line" smooth="yes"/>
      <point x="210" y="368"/>
      <point x="193" y="340"/>
      <point x="177" y="312" type="curve"/>
      <point x="175" y="312" type="line"/>
      <point x="179" y="356"/>
      <point x="185" y="409"/>
      <point x="185" y="454" type="curve" smooth="yes"/>
      <point x="185" y="562" type="line" smooth="yes"/>
      <point x="185" y="604"/>
      <point x="201" y="625"/>
      <point x="236" y="625" type="curve" smooth="yes"/>
      <point x="252" y="625"/>
      <point x="266" y="622"/>
      <point x="279" y="617" type="curve"/>
      <point x="279" y="753" type="line"/>
      <point x="262" y="759"/>
      <point x="230" y="765"/>
      <point x="195" y="765" type="curve" smooth="yes"/>
      <point x="88" y="765"/>
      <point x="35" y="691"/>
      <point x="35" y="570" type="curve" smooth="yes"/>
    </contour>
  </outline>
</glyph>
<glyph name="uni019D" format="2">
  <advance width="530"/>
  <unicode hex="019D"/>
  <anchor x="250" y="-256" name="bottom"/>
  <anchor x="250" y="714" name="top"/>
  <anchor x="500" y="714" name="topright"/>
  <outline>
    <contour>
      <point x="-5" y="-256" type="curve" smooth="yes"/>
      <point x="108" y="-256"/>
      <point x="165" y="-193"/>
      <point x="165" y="-13" type="curve" smooth="yes"/>
      <point x="165" y="231" type="line"/>
      <point x="25" y="231" type="line"/>
      <point x="25" y="15" type="line" smooth="yes"/>
      <point x="25" y="-106"/>
      <point x="12" y="-140"/>
      <point x="-33" y="-140" type="curve" smooth="yes"/>
      <point x="-54" y="-140"/>
      <point x="-69" y="-136"/>
      <point x="-85" y="-130" type="curve"/>
      <point x="-85" y="-246" type="line"/>
      <point x="-59" y="-253"/>
      <point x="-34" y="-256"/>
    </contour>
    <component base="N"/>
  </outline>
</glyph>
<glyph name="uni01A3" format="2">
  <advance width="530"/>
  <unicode hex="01A3"/>
  <anchor x="164" y="0" name="bottom"/>
  <anchor x="164" y="277" name="center"/>
  <anchor x="167" y="10" name="ogonek"/>
  <anchor x="270" y="553" name="top"/>
  <outline>
    <contour>
      <point x="348" y="-240" type="line"/>
      <point x="476" y="-240" type="line"/>
      <point x="476" y="401" type="line" smooth="yes"/>
      <point x="476" y="510"/>
      <point x="442" y="564"/>
      <point x="371" y="564" type="curve" smooth="yes"/>
      <point x="316" y="564"/>
      <point x="289" y="531"/>
      <point x="275" y="494" type="curve"/>
      <point x="254" y="543"/>
      <point x="227" y="564"/>
      <point x="164" y="564" type="curve" smooth="yes"/>
      <point x="50" y="564"/>
      <point x="16" y="473"/>
      <point x="16" y="278" type="curve" smooth="yes"/>
      <point x="16" y="109"/>
      <point x="54" y="-10"/>
      <point x="163" y="-10" type="curve" smooth="yes"/>
      <point x="283" y="-10"/>
      <point x="310" y="105"/>
      <point x="310" y="278" type="curve" smooth="yes"/>
      <point x="310" y="339"/>
      <point x="303" y="398"/>
      <point x="300" y="422" type="curve"/>
      <point x="305" y="432"/>
      <point x="314" y="439"/>
      <point x="325" y="439" type="curve" smooth="yes"/>
      <point x="341" y="439"/>
      <point x="348" y="427"/>
      <point x="348" y="400" type="curve" smooth="yes"/>
    </contour>
    <contour>
      <point x="163" y="112" type="curve" smooth="yes"/>
      <point x="152" y="112"/>
      <point x="144" y="130"/>
      <point x="144" y="276" type="curve" smooth="yes"/>
      <point x="144" y="427"/>
      <point x="150" y="442"/>
      <point x="163" y="442" type="curve" smooth="yes"/>
      <point x="176" y="442"/>
      <point x="183" y="428"/>
      <point x="183" y="278" type="curve" smooth="yes"/>
      <point x="183" y="131"/>
      <point x="178" y="112"/>
    </contour>
  </outline>
</glyph>
<glyph name="uni01A4" format="2">
  <advance width="530"/>
  <unicode hex="01A4"/>
  <anchor x="286" y="0" name="bottom"/>
  <anchor x="286" y="714" name="top"/>
  <outline>
    <contour>
      <point x="130" y="0" type="line"/>
      <point x="285" y="0" type="line"/>
      <point x="285" y="245" type="line"/>
      <point x="293" y="245" type="line" smooth="yes"/>
      <point x="429" y="245"/>
      <point x="489" y="345"/>
      <point x="489" y="486" type="curve" smooth="yes"/>
      <point x="489" y="633"/>
      <point x="427" y="714"/>
      <point x="298" y="714" type="curve" smooth="yes"/>
      <point x="150" y="714" type="line" smooth="yes"/>
      <point x="36" y="714"/>
      <point x="-2" y="645"/>
      <point x="-2" y="539" type="curve" smooth="yes"/>
      <point x="-2" y="511"/>
      <point x="2" y="477"/>
      <point x="5" y="465" type="curve"/>
      <point x="105" y="465" type="line"/>
      <point x="103" y="478"/>
      <point x="100" y="501"/>
      <point x="100" y="524" type="curve" smooth="yes"/>
      <point x="100" y="562"/>
      <point x="110" y="582"/>
      <point x="130" y="587" type="curve"/>
    </contour>
    <contour>
      <point x="285" y="377" type="line"/>
      <point x="285" y="584" type="line"/>
      <point x="292" y="584" type="line" smooth="yes"/>
      <point x="325" y="584"/>
      <point x="342" y="563"/>
      <point x="342" y="478" type="curve" smooth="yes"/>
      <point x="342" y="405"/>
      <point x="325" y="377"/>
      <point x="290" y="377" type="curve" smooth="yes"/>
    </contour>
  </outline>
</glyph>
<glyph name="uni01AA" format="2">
  <advance width="530"/>
  <unicode hex="01AA"/>
  <anchor x="260" y="-240" name="bottom"/>
  <anchor x="260" y="770" name="top"/>
  <outline>
    <contour>
      <point x="338" y="-240" type="curve" smooth="yes"/>
      <point x="382" y="-240"/>
      <point x="421" y="-230"/>
      <point x="453" y="-209" type="curve"/>
      <point x="453" y="-79" type="line"/>
      <point x="428" y="-93"/>
      <point x="410" y="-100"/>
      <point x="386" y="-100" type="curve" smooth="yes"/>
      <point x="357" y="-100"/>
      <point x="333" y="-84"/>
      <point x="333" y="-32" type="curve" smooth="yes"/>
      <point x="333" y="577" type="line" smooth="yes"/>
      <point x="333" y="695"/>
      <point x="295" y="771"/>
      <point x="178" y="771" type="curve" smooth="yes"/>
      <point x="73" y="771"/>
      <point x="26" y="717"/>
      <point x="26" y="649" type="curve" smooth="yes"/>
      <point x="26" y="581"/>
      <point x="68" y="526"/>
      <point x="172" y="526" type="curve" smooth="yes"/>
      <point x="178" y="526" type="line"/>
      <point x="178" y="-54" type="line" smooth="yes"/>
      <point x="178" y="-188"/>
      <point x="234" y="-240"/>
    </contour>
    <contour>
      <point x="170" y="615" type="line" smooth="yes"/>
      <point x="136" y="615"/>
      <point x="120" y="624"/>
      <point x="120" y="652" type="curve" smooth="yes"/>
      <point x="120" y="665"/>
      <point x="131" y="677"/>
      <point x="147" y="677" type="curve" smooth="yes"/>
      <point x="166" y="677"/>
      <point x="178" y="665"/>
      <point x="178" y="641" type="curve" smooth="yes"/>
      <point x="178" y="615" type="line"/>
    </contour>
  </outline>
</glyph>
<glyph name="uni01AB" format="2">
  <advance width="530"/>
  <unicode hex="01AB"/>
  <anchor x="315" y="-240" name="bottom"/>
  <anchor x="250" y="682" name="top"/>
  <anchor x="480" y="682" name="topright"/>
  <anchor x="206" y="287" name="center"/>
  <outline>
    <contour>
      <point x="319" y="-240" type="curve" smooth="yes"/>
      <point x="426" y="-240"/>
      <point x="485" y="-166"/>
      <point x="485" y="-45" type="curve" smooth="yes"/>
      <point x="485" y="89" type="line"/>
      <point x="341" y="34" type="line"/>
      <point x="341" y="-43" type="line" smooth="yes"/>
      <point x="341" y="-85"/>
      <point x="314" y="-106"/>
      <point x="280" y="-106" type="curve" smooth="yes"/>
      <point x="266" y="-106"/>
      <point x="251" y="-103"/>
      <point x="235" y="-97" type="curve"/>
      <point x="235" y="-228" type="line"/>
      <point x="253" y="-234"/>
      <point x="295" y="-240"/>
    </contour>
    <component base="t"/>
  </outline>
</glyph>
<glyph name="uni01AC" format="2">
  <advance width="530"/>
  <unicode hex="01AC"/>
  <anchor x="271" y="0" name="bottom"/>
  <anchor x="271" y="714" name="top"/>
  <outline>
    <contour>
      <point x="194" y="0" type="line"/>
      <point x="347" y="0" type="line"/>
      <point x="347" y="574" type="line"/>
      <point x="485" y="574" type="line"/>
      <point x="485" y="714" type="line"/>
      <point x="194" y="714" type="line" smooth="yes"/>
      <point x="54" y="714"/>
      <point x="14" y="629"/>
      <point x="14" y="543" type="curve" smooth="yes"/>
      <point x="14" y="502"/>
      <point x="23" y="480"/>
      <point x="27" y="471" type="curve"/>
      <point x="147" y="471" type="line"/>
      <point x="144" y="481"/>
      <point x="139" y="498"/>
      <point x="139" y="518" type="curve" smooth="yes"/>
      <point x="139" y="544"/>
      <point x="148" y="567"/>
      <point x="181" y="567" type="curve" smooth="yes"/>
      <point x="194" y="567" type="line"/>
    </contour>
  </outline>
</glyph>
<glyph name="uni01AD" format="2">
  <advance width="530"/>
  <unicode hex="01AD"/>
  <anchor x="250" y="0" name="bottom"/>
  <anchor x="250" y="765" name="top"/>
  <outline>
    <contour>
      <point x="320" y="-10" type="curve" smooth="yes"/>
      <point x="373" y="-10"/>
      <point x="439" y="0"/>
      <point x="485" y="18" type="curve"/>
      <point x="485" y="153" type="line"/>
      <point x="438" y="137"/>
      <point x="398" y="132"/>
      <point x="369" y="132" type="curve" smooth="yes"/>
      <point x="329" y="132"/>
      <point x="285" y="142"/>
      <point x="285" y="219" type="curve" smooth="yes"/>
      <point x="285" y="418" type="line"/>
      <point x="481" y="418" type="line"/>
      <point x="481" y="552" type="line"/>
      <point x="286" y="552" type="line"/>
      <point x="286" y="572" type="line" smooth="yes"/>
      <point x="286" y="614"/>
      <point x="301" y="634"/>
      <point x="332" y="634" type="curve" smooth="yes"/>
      <point x="349" y="634"/>
      <point x="362" y="630"/>
      <point x="375" y="625" type="curve"/>
      <point x="375" y="753" type="line"/>
      <point x="358" y="758"/>
      <point x="329" y="765"/>
      <point x="291" y="765" type="curve" smooth="yes"/>
      <point x="184" y="765"/>
      <point x="130" y="691"/>
      <point x="130" y="570" type="curve" smooth="yes"/>
      <point x="130" y="553" type="line"/>
      <point x="10" y="492" type="line"/>
      <point x="10" y="418" type="line"/>
      <point x="130" y="418" type="line"/>
      <point x="130" y="190" type="line" smooth="yes"/>
      <point x="130" y="53"/>
      <point x="207" y="-10"/>
    </contour>
  </outline>
</glyph>
<glyph name="uni01B3" format="2">
  <advance width="530"/>
  <unicode hex="01B3"/>
  <anchor x="250" y="0" name="bottom"/>
  <anchor x="250" y="714" name="top"/>
  <outline>
    <contour>
      <point x="194" y="0" type="line"/>
      <point x="349" y="0" type="line"/>
      <point x="349" y="248" type="line"/>
      <point x="495" y="714" type="line"/>
      <point x="337" y="714" type="line"/>
      <point x="275" y="412" type="line"/>
      <point x="230" y="595" type="line" smooth="yes"/>
      <point x="207" y="689"/>
      <point x="174" y="726"/>
      <point x="89" y="726" type="curve" smooth="yes"/>
      <point x="57" y="726"/>
      <point x="26" y="717"/>
      <point x="10" y="709" type="curve"/>
      <point x="10" y="574" type="line"/>
      <point x="20" y="579"/>
      <point x="29" y="585"/>
      <point x="54" y="585" type="curve" smooth="yes"/>
      <point x="87" y="585"/>
      <point x="102" y="566"/>
      <point x="114" y="524" type="curve" smooth="yes"/>
      <point x="194" y="248" type="line"/>
    </contour>
  </outline>
</glyph>
<glyph name="uni01B4" format="2">
  <advance width="530"/>
  <unicode hex="01B4"/>
  <anchor x="250" y="-245" name="bottom"/>
  <anchor x="250" y="553" name="top"/>
  <outline>
    <contour>
      <point x="79" y="-245" type="curve" smooth="yes"/>
      <point x="199" y="-245"/>
      <point x="273" y="-192"/>
      <point x="316" y="-40" type="curve" smooth="yes"/>
      <point x="412" y="296" type="line" smooth="yes"/>
      <point x="440" y="395"/>
      <point x="449" y="410"/>
      <point x="478" y="410" type="curve" smooth="yes"/>
      <point x="489" y="410"/>
      <point x="496" y="408"/>
      <point x="505" y="405" type="curve"/>
      <point x="505" y="547" type="line"/>
      <point x="489" y="555"/>
      <point x="467" y="562"/>
      <point x="433" y="562" type="curve" smooth="yes"/>
      <point x="332" y="562"/>
      <point x="308" y="492"/>
      <point x="292" y="419" type="curve" smooth="yes"/>
      <point x="267" y="303" type="line" smooth="yes"/>
      <point x="258" y="262"/>
      <point x="252" y="234"/>
      <point x="249" y="212" type="curve"/>
      <point x="245" y="212" type="line"/>
      <point x="241" y="235"/>
      <point x="236" y="263"/>
      <point x="227" y="303" type="curve" smooth="yes"/>
      <point x="169" y="553" type="line"/>
      <point x="-2" y="553" type="line"/>
      <point x="181" y="0" type="line"/>
      <point x="178" y="-10" type="line" smooth="yes"/>
      <point x="149" y="-107"/>
      <point x="91" y="-114"/>
      <point x="52" y="-114" type="curve" smooth="yes"/>
      <point x="38" y="-114"/>
      <point x="24" y="-112"/>
      <point x="11" y="-108" type="curve"/>
      <point x="11" y="-237" type="line"/>
      <point x="32" y="-242"/>
      <point x="55" y="-245"/>
    </contour>
  </outline>
</glyph>
<glyph name="uni01B5" format="2">
  <advance width="530"/>
  <unicode hex="01B5"/>
  <anchor x="250" y="0" name="bottom"/>
  <anchor x="250" y="714" name="top"/>
  <anchor x="480" y="714" name="topright"/>
  <outline>
    <contour>
      <point x="58" y="288" type="line"/>
      <point x="455" y="288" type="line"/>
      <point x="455" y="425" type="line"/>
      <point x="58" y="425" type="line"/>
    </contour>
    <component base="Z"/>
  </outline>
</glyph>
<glyph name="uni01B6" format="2">
  <advance width="530"/>
  <unicode hex="01B6"/>
  <anchor x="250" y="0" name="bottom"/>
  <anchor x="250" y="553" name="top"/>
  <anchor x="480" y="553" name="topright"/>
  <outline>
    <contour>
      <point x="59" y="220" type="line"/>
      <point x="447" y="220" type="line"/>
      <point x="447" y="335" type="line"/>
      <point x="59" y="335" type="line"/>
    </contour>
    <component base="z"/>
  </outline>
</glyph>
<glyph name="uni01BC" format="2">
  <advance width="530"/>
  <unicode hex="01BC"/>
  <anchor x="250" y="0" name="bottom"/>
  <anchor x="250" y="714" name="top"/>
  <outline>
    <contour>
      <point x="220" y="-10" type="curve" smooth="yes"/>
      <point x="401" y="-10"/>
      <point x="486" y="80"/>
      <point x="486" y="242" type="curve" smooth="yes"/>
      <point x="486" y="377"/>
      <point x="422" y="468"/>
      <point x="275" y="468" type="curve" smooth="yes"/>
      <point x="266" y="468" type="line"/>
      <point x="266" y="570" type="line"/>
      <point x="460" y="570" type="line"/>
      <point x="460" y="714" type="line"/>
      <point x="14" y="714" type="line"/>
      <point x="14" y="570" type="line"/>
      <point x="104" y="570" type="line"/>
      <point x="104" y="337" type="line"/>
      <point x="203" y="337" type="line" smooth="yes"/>
      <point x="285" y="337"/>
      <point x="326" y="301"/>
      <point x="326" y="236" type="curve" smooth="yes"/>
      <point x="326" y="170"/>
      <point x="284" y="134"/>
      <point x="210" y="134" type="curve" smooth="yes"/>
      <point x="158" y="134"/>
      <point x="95" y="153"/>
      <point x="44" y="179" type="curve"/>
      <point x="44" y="27" type="line"/>
      <point x="94" y="2"/>
      <point x="153" y="-10"/>
    </contour>
  </outline>
</glyph>
<glyph name="uni01BE" format="2">
  <advance width="530"/>
  <unicode hex="01BE"/>
  <anchor x="270" y="0" name="bottom"/>
  <anchor x="235" y="682" name="top"/>
  <outline>
    <contour>
      <point x="219" y="-10" type="curve" smooth="yes"/>
      <point x="377" y="-10"/>
      <point x="453" y="65"/>
      <point x="453" y="174" type="curve" smooth="yes"/>
      <point x="453" y="256"/>
      <point x="422" y="296"/>
      <point x="330" y="337" type="curve" smooth="yes"/>
      <point x="292" y="354"/>
      <point x="285" y="363"/>
      <point x="285" y="396" type="curve" smooth="yes"/>
      <point x="285" y="418" type="line"/>
      <point x="481" y="418" type="line"/>
      <point x="481" y="553" type="line"/>
      <point x="285" y="553" type="line"/>
      <point x="285" y="682" type="line"/>
      <point x="188" y="682" type="line"/>
      <point x="141" y="552" type="line"/>
      <point x="11" y="492" type="line"/>
      <point x="11" y="418" type="line"/>
      <point x="130" y="418" type="line"/>
      <point x="130" y="353" type="line" smooth="yes"/>
      <point x="130" y="297"/>
      <point x="146" y="260"/>
      <point x="196" y="241" type="curve" smooth="yes"/>
      <point x="268" y="214"/>
      <point x="294" y="204"/>
      <point x="294" y="174" type="curve" smooth="yes"/>
      <point x="294" y="146"/>
      <point x="276" y="127"/>
      <point x="210" y="127" type="curve" smooth="yes"/>
      <point x="150" y="127"/>
      <point x="93" y="148"/>
      <point x="55" y="168" type="curve"/>
      <point x="55" y="23" type="line"/>
      <point x="92" y="6"/>
      <point x="143" y="-10"/>
    </contour>
  </outline>
</glyph>
<glyph name="uni01C2" format="2">
  <advance width="530"/>
  <unicode hex="01C2"/>
  <anchor x="250" y="0" name="bottom"/>
  <anchor x="250" y="760" name="top"/>
  <outline>
    <contour>
      <point x="75" y="420" type="line"/>
      <point x="425" y="420" type="line"/>
      <point x="425" y="536" type="line"/>
      <point x="75" y="536" type="line"/>
    </contour>
    <contour>
      <point x="75" y="194" type="line"/>
      <point x="425" y="194" type="line"/>
      <point x="425" y="310" type="line"/>
      <point x="75" y="310" type="line"/>
    </contour>
    <component base="uni01C0"/>
  </outline>
</glyph>
<glyph name="uni01E5" format="2">
  <advance width="530"/>
  <unicode hex="01E5"/>
  <anchor x="250" y="-245" name="bottom"/>
  <anchor x="250" y="546" name="top"/>
  <outline>
    <contour>
      <point x="222" y="-240" type="curve" smooth="yes"/>
      <point x="371" y="-240"/>
      <point x="447" y="-181"/>
      <point x="462" y="-73" type="curve"/>
      <point x="513" y="-73" type="line"/>
      <point x="513" y="17" type="line"/>
      <point x="465" y="17" type="line"/>
      <point x="465" y="553" type="line"/>
      <point x="334" y="553" type="line"/>
      <point x="321" y="484" type="line"/>
      <point x="315" y="484" type="line"/>
      <point x="291" y="537"/>
      <point x="246" y="563"/>
      <point x="189" y="563" type="curve" smooth="yes"/>
      <point x="83" y="563"/>
      <point x="21" y="472"/>
      <point x="21" y="309" type="curve" smooth="yes"/>
      <point x="21" y="148"/>
      <point x="81" y="60"/>
      <point x="186" y="60" type="curve" smooth="yes"/>
      <point x="251" y="60"/>
      <point x="291" y="94"/>
      <point x="312" y="134" type="curve"/>
      <point x="317" y="134" type="line"/>
      <point x="314" y="114"/>
      <point x="312" y="80"/>
      <point x="312" y="58" type="curve" smooth="yes"/>
      <point x="312" y="17" type="line"/>
      <point x="185" y="17" type="line"/>
      <point x="185" y="-73" type="line"/>
      <point x="306" y="-73" type="line"/>
      <point x="295" y="-112"/>
      <point x="263" y="-122"/>
      <point x="215" y="-122" type="curve" smooth="yes"/>
      <point x="162" y="-122"/>
      <point x="113" y="-110"/>
      <point x="53" y="-84" type="curve"/>
      <point x="53" y="-203" type="line"/>
      <point x="101" y="-226"/>
      <point x="150" y="-240"/>
    </contour>
    <contour>
      <point x="251" y="199" type="curve" smooth="yes"/>
      <point x="206" y="199"/>
      <point x="185" y="231"/>
      <point x="185" y="307" type="curve" smooth="yes"/>
      <point x="185" y="385"/>
      <point x="207" y="424"/>
      <point x="255" y="424" type="curve" smooth="yes"/>
      <point x="300" y="424"/>
      <point x="315" y="390"/>
      <point x="315" y="321" type="curve" smooth="yes"/>
      <point x="315" y="296" type="line" smooth="yes"/>
      <point x="315" y="239"/>
      <point x="301" y="199"/>
    </contour>
  </outline>
</glyph>
<glyph name="uni01F7" format="2">
  <advance width="530"/>
  <unicode hex="01F7"/>
  <anchor x="269" y="-240" name="bottom"/>
  <anchor x="316" y="714" name="top"/>
  <outline>
    <contour>
      <point x="49" y="-240" type="line"/>
      <point x="201" y="-240" type="line"/>
      <point x="201" y="-2" type="line"/>
      <point x="336" y="62"/>
      <point x="473" y="221"/>
      <point x="473" y="448" type="curve" smooth="yes"/>
      <point x="473" y="632"/>
      <point x="429" y="723"/>
      <point x="314" y="723" type="curve" smooth="yes"/>
      <point x="255" y="723"/>
      <point x="220" y="693"/>
      <point x="198" y="642" type="curve"/>
      <point x="195" y="642" type="line"/>
      <point x="180" y="714" type="line"/>
      <point x="49" y="714" type="line"/>
    </contour>
    <contour>
      <point x="201" y="153" type="curve"/>
      <point x="201" y="445" type="line" smooth="yes"/>
      <point x="201" y="545"/>
      <point x="218" y="591"/>
      <point x="259" y="591" type="curve" smooth="yes"/>
      <point x="301" y="591"/>
      <point x="315" y="546"/>
      <point x="315" y="457" type="curve" smooth="yes"/>
      <point x="315" y="287"/>
      <point x="257" y="197"/>
    </contour>
  </outline>
</glyph>
<glyph name="uni021C" format="2">
  <advance width="530"/>
  <unicode hex="021C"/>
  <anchor x="250" y="-111" name="bottom"/>
  <anchor x="250" y="714" name="top"/>
  <outline>
    <contour>
      <point x="40" y="-180" type="line"/>
      <point x="334" y="-106"/>
      <point x="465" y="4"/>
      <point x="465" y="191" type="curve" smooth="yes"/>
      <point x="465" y="279"/>
      <point x="426" y="332"/>
      <point x="374" y="368" type="curve"/>
      <point x="422" y="409"/>
      <point x="445" y="460"/>
      <point x="445" y="528" type="curve" smooth="yes"/>
      <point x="445" y="644"/>
      <point x="376" y="724"/>
      <point x="238" y="724" type="curve" smooth="yes"/>
      <point x="153" y="724"/>
      <point x="90" y="703"/>
      <point x="32" y="653" type="curve"/>
      <point x="92" y="539" type="line"/>
      <point x="123" y="568"/>
      <point x="175" y="592"/>
      <point x="213" y="592" type="curve" smooth="yes"/>
      <point x="253" y="592"/>
      <point x="291" y="576"/>
      <point x="291" y="526" type="curve" smooth="yes"/>
      <point x="291" y="468"/>
      <point x="252" y="433"/>
      <point x="124" y="397" type="curve"/>
      <point x="156" y="269" type="line"/>
      <point x="197" y="280"/>
      <point x="235" y="292"/>
      <point x="267" y="305" type="curve"/>
      <point x="291" y="281"/>
      <point x="307" y="248"/>
      <point x="307" y="196" type="curve" smooth="yes"/>
      <point x="307" y="103"/>
      <point x="269" y="35"/>
      <point x="40" y="-30" type="curve"/>
    </contour>
  </outline>
</glyph>
<glyph name="uni021D" format="2">
  <advance width="530"/>
  <unicode hex="021D"/>
  <anchor x="248" y="-183" name="bottom"/>
  <anchor x="237" y="553" name="top"/>
  <outline>
    <contour>
      <point x="19" y="-240" type="line"/>
      <point x="283" y="-202"/>
      <point x="460" y="-127"/>
      <point x="460" y="60" type="curve" smooth="yes"/>
      <point x="460" y="138"/>
      <point x="428" y="186"/>
      <point x="372" y="219" type="curve"/>
      <point x="430" y="259"/>
      <point x="456" y="309"/>
      <point x="456" y="374" type="curve" smooth="yes"/>
      <point x="456" y="493"/>
      <point x="370" y="562"/>
      <point x="237" y="562" type="curve" smooth="yes"/>
      <point x="149" y="562"/>
      <point x="87" y="544"/>
      <point x="26" y="515" type="curve"/>
      <point x="79" y="392" type="line"/>
      <point x="125" y="410"/>
      <point x="170" y="425"/>
      <point x="225" y="425" type="curve" smooth="yes"/>
      <point x="285" y="425"/>
      <point x="305" y="394"/>
      <point x="305" y="361" type="curve" smooth="yes"/>
      <point x="305" y="298"/>
      <point x="244" y="275"/>
      <point x="110" y="250" type="curve"/>
      <point x="140" y="130" type="line"/>
      <point x="181" y="138"/>
      <point x="215" y="147"/>
      <point x="250" y="157" type="curve"/>
      <point x="286" y="133"/>
      <point x="304" y="103"/>
      <point x="304" y="60" type="curve" smooth="yes"/>
      <point x="304" y="-18"/>
      <point x="239" y="-60"/>
      <point x="19" y="-97" type="curve"/>
    </contour>
  </outline>
</glyph>
<glyph name="uni0220" format="2">
  <advance width="530"/>
  <unicode hex="0220"/>
  <anchor x="250" y="-240" name="bottom"/>
  <anchor x="250" y="357" name="center"/>
  <anchor x="250" y="714" name="top"/>
  <anchor x="20" y="714" name="topleft"/>
  <outline>
    <contour>
      <point x="309" y="-240" type="line"/>
      <point x="461" y="-240" type="line"/>
      <point x="461" y="566" type="line" smooth="yes"/>
      <point x="461" y="680"/>
      <point x="407" y="725"/>
      <point x="329" y="725" type="curve" smooth="yes"/>
      <point x="263" y="725"/>
      <point x="219" y="694"/>
      <point x="196" y="647" type="curve"/>
      <point x="192" y="647" type="line"/>
      <point x="177" y="714" type="line"/>
      <point x="44" y="714" type="line"/>
      <point x="44" y="0" type="line"/>
      <point x="197" y="0" type="line"/>
      <point x="197" y="514" type="line" smooth="yes"/>
      <point x="197" y="562"/>
      <point x="211" y="586"/>
      <point x="254" y="586" type="curve" smooth="yes"/>
      <point x="293" y="586"/>
      <point x="309" y="563"/>
      <point x="309" y="524" type="curve" smooth="yes"/>
    </contour>
  </outline>
</glyph>
<glyph name="uni0221" format="2">
  <advance width="530"/>
  <unicode hex="0221"/>
  <anchor x="250" y="-106" name="bottom"/>
  <anchor x="250" y="760" name="top"/>
  <outline>
    <contour>
      <point x="343" y="-106" type="line"/>
      <point x="344" y="-75"/>
      <point x="347" y="-38"/>
      <point x="351" y="-4" type="curve"/>
      <point x="356" y="-5"/>
      <point x="368" y="-6"/>
      <point x="371" y="-6" type="curve" smooth="yes"/>
      <point x="454" y="-6"/>
      <point x="487" y="58"/>
      <point x="487" y="127" type="curve" smooth="yes"/>
      <point x="487" y="197"/>
      <point x="453" y="245"/>
      <point x="395" y="245" type="curve" smooth="yes"/>
      <point x="363" y="245"/>
      <point x="336" y="232"/>
      <point x="317" y="200" type="curve"/>
      <point x="315" y="212"/>
      <point x="314" y="226"/>
      <point x="314" y="243" type="curve" smooth="yes"/>
      <point x="314" y="760" type="line"/>
      <point x="195" y="760" type="line"/>
      <point x="195" y="610" type="line" smooth="yes"/>
      <point x="195" y="579"/>
      <point x="195" y="564"/>
      <point x="197" y="524" type="curve"/>
      <point x="194" y="524" type="line"/>
      <point x="182" y="548"/>
      <point x="163" y="563"/>
      <point x="134" y="563" type="curve" smooth="yes"/>
      <point x="65" y="563"/>
      <point x="22" y="499"/>
      <point x="22" y="278" type="curve" smooth="yes"/>
      <point x="22" y="52"/>
      <point x="66" y="-10"/>
      <point x="138" y="-10" type="curve" smooth="yes"/>
      <point x="184" y="-10"/>
      <point x="210" y="16"/>
      <point x="226" y="66" type="curve"/>
      <point x="231" y="66" type="line"/>
      <point x="237" y="50"/>
      <point x="259" y="30"/>
      <point x="275" y="21" type="curve"/>
      <point x="272" y="-18"/>
      <point x="267" y="-56"/>
      <point x="265" y="-101" type="curve"/>
    </contour>
    <contour>
      <point x="170" y="110" type="curve" smooth="yes"/>
      <point x="152" y="110"/>
      <point x="143" y="133"/>
      <point x="143" y="280" type="curve" smooth="yes"/>
      <point x="143" y="430"/>
      <point x="157" y="445"/>
      <point x="171" y="445" type="curve" smooth="yes"/>
      <point x="186" y="445"/>
      <point x="195" y="430"/>
      <point x="195" y="297" type="curve" smooth="yes"/>
      <point x="195" y="265" type="line" smooth="yes"/>
      <point x="195" y="131"/>
      <point x="186" y="110"/>
    </contour>
    <contour>
      <point x="376" y="83" type="curve" smooth="yes"/>
      <point x="370" y="83"/>
      <point x="363" y="84"/>
      <point x="361" y="85" type="curve"/>
      <point x="364" y="131"/>
      <point x="372" y="158"/>
      <point x="385" y="158" type="curve" smooth="yes"/>
      <point x="394" y="158"/>
      <point x="404" y="151"/>
      <point x="404" y="122" type="curve" smooth="yes"/>
      <point x="404" y="95"/>
      <point x="393" y="83"/>
    </contour>
  </outline>
</glyph>
<glyph name="uni0223" format="2">
  <advance width="530"/>
  <unicode hex="0223"/>
  <anchor x="250" y="0" name="bottom"/>
  <anchor x="250" y="760" name="top"/>
  <outline>
    <contour>
      <point x="249" y="-10" type="curve" smooth="yes"/>
      <point x="420" y="-10"/>
      <point x="476" y="122"/>
      <point x="476" y="256" type="curve" smooth="yes"/>
      <point x="476" y="352"/>
      <point x="443" y="416"/>
      <point x="389" y="454" type="curve"/>
      <point x="431" y="485"/>
      <point x="452" y="535"/>
      <point x="452" y="607" type="curve" smooth="yes"/>
      <point x="452" y="760" type="line"/>
      <point x="296" y="760" type="line"/>
      <point x="296" y="601" type="line" smooth="yes"/>
      <point x="296" y="542"/>
      <point x="286" y="517"/>
      <point x="250" y="517" type="curve" smooth="yes"/>
      <point x="213" y="517"/>
      <point x="203" y="533"/>
      <point x="203" y="603" type="curve" smooth="yes"/>
      <point x="203" y="760" type="line"/>
      <point x="47" y="760" type="line"/>
      <point x="47" y="612" type="line" smooth="yes"/>
      <point x="47" y="530"/>
      <point x="67" y="480"/>
      <point x="105" y="451" type="curve"/>
      <point x="50" y="410"/>
      <point x="23" y="343"/>
      <point x="23" y="256" type="curve" smooth="yes"/>
      <point x="23" y="118"/>
      <point x="91" y="-10"/>
    </contour>
    <contour>
      <point x="250" y="125" type="curve" smooth="yes"/>
      <point x="202" y="125"/>
      <point x="181" y="171"/>
      <point x="181" y="259" type="curve" smooth="yes"/>
      <point x="181" y="351"/>
      <point x="202" y="393"/>
      <point x="250" y="393" type="curve" smooth="yes"/>
      <point x="300" y="393"/>
      <point x="318" y="350"/>
      <point x="318" y="260" type="curve" smooth="yes"/>
      <point x="318" y="170"/>
      <point x="300" y="125"/>
    </contour>
  </outline>
</glyph>
<glyph name="uni0225" format="2">
  <advance width="530"/>
  <unicode hex="0225"/>
  <anchor x="268" y="-240" name="bottom"/>
  <anchor x="250" y="553" name="top"/>
  <anchor x="480" y="553" name="topright"/>
  <outline>
    <contour>
      <point x="320" y="-240" type="curve" smooth="yes"/>
      <point x="417" y="-240"/>
      <point x="480" y="-171"/>
      <point x="480" y="-35" type="curve" smooth="yes"/>
      <point x="480" y="135" type="line"/>
      <point x="340" y="135" type="line"/>
      <point x="340" y="0" type="line"/>
      <point x="348" y="0" type="line"/>
      <point x="348" y="-31" type="line" smooth="yes"/>
      <point x="348" y="-98"/>
      <point x="329" y="-125"/>
      <point x="280" y="-125" type="curve" smooth="yes"/>
      <point x="264" y="-125"/>
      <point x="249" y="-122"/>
      <point x="233" y="-116" type="curve"/>
      <point x="233" y="-229" type="line"/>
      <point x="254" y="-236"/>
      <point x="277" y="-240"/>
    </contour>
    <component base="z"/>
  </outline>
</glyph>
<glyph name="uni0235" format="2">
  <advance width="530"/>
  <unicode hex="0235"/>
  <anchor x="240" y="0" name="bottom"/>
  <anchor x="245" y="553" name="top"/>
  <outline>
    <contour>
      <point x="264" y="-22" type="line"/>
      <point x="265" y="-7"/>
      <point x="270" y="13"/>
      <point x="274" y="24" type="curve"/>
      <point x="290" y="9"/>
      <point x="317" y="-10"/>
      <point x="367" y="-10" type="curve" smooth="yes"/>
      <point x="450" y="-10"/>
      <point x="490" y="47"/>
      <point x="490" y="135" type="curve" smooth="yes"/>
      <point x="490" y="230"/>
      <point x="448" y="276"/>
      <point x="383" y="276" type="curve" smooth="yes"/>
      <point x="368" y="276"/>
      <point x="359" y="274"/>
      <point x="351" y="272" type="curve"/>
      <point x="351" y="416" type="line" smooth="yes"/>
      <point x="351" y="525"/>
      <point x="311" y="564"/>
      <point x="245" y="564" type="curve" smooth="yes"/>
      <point x="193" y="564"/>
      <point x="165" y="535"/>
      <point x="150" y="491" type="curve"/>
      <point x="144" y="491" type="line"/>
      <point x="132" y="554" type="line"/>
      <point x="24" y="554" type="line"/>
      <point x="24" y="0" type="line"/>
      <point x="161" y="0" type="line"/>
      <point x="161" y="372" type="line" smooth="yes"/>
      <point x="161" y="418"/>
      <point x="168" y="434"/>
      <point x="191" y="434" type="curve" smooth="yes"/>
      <point x="208" y="434"/>
      <point x="216" y="421"/>
      <point x="216" y="374" type="curve" smooth="yes"/>
      <point x="216" y="191" type="line" smooth="yes"/>
      <point x="216" y="178"/>
      <point x="216" y="166"/>
      <point x="217" y="155" type="curve"/>
      <point x="200" y="118"/>
      <point x="182" y="57"/>
      <point x="176" y="2" type="curve"/>
    </contour>
    <contour>
      <point x="366" y="90" type="curve" smooth="yes"/>
      <point x="355" y="90"/>
      <point x="350" y="105"/>
      <point x="350" y="164" type="curve"/>
      <point x="352" y="170"/>
      <point x="357" y="176"/>
      <point x="364" y="176" type="curve" smooth="yes"/>
      <point x="375" y="176"/>
      <point x="381" y="168"/>
      <point x="381" y="133" type="curve" smooth="yes"/>
      <point x="381" y="104"/>
      <point x="375" y="90"/>
    </contour>
  </outline>
</glyph>
<glyph name="uni0236" format="2">
  <advance width="530"/>
  <unicode hex="0236"/>
  <anchor x="324" y="0" name="bottom"/>
  <anchor x="238" y="682" name="top"/>
  <outline>
    <contour>
      <point x="160" y="-29" type="line"/>
      <point x="167" y="-11"/>
      <point x="181" y="17"/>
      <point x="190" y="30" type="curve"/>
      <point x="210" y="12"/>
      <point x="253" y="-10"/>
      <point x="320" y="-10" type="curve" smooth="yes"/>
      <point x="438" y="-10"/>
      <point x="489" y="53"/>
      <point x="489" y="137" type="curve" smooth="yes"/>
      <point x="489" y="219"/>
      <point x="441" y="268"/>
      <point x="352" y="268" type="curve" smooth="yes"/>
      <point x="322" y="268"/>
      <point x="297" y="261"/>
      <point x="278" y="251" type="curve"/>
      <point x="278" y="418" type="line"/>
      <point x="474" y="418" type="line"/>
      <point x="474" y="552" type="line"/>
      <point x="279" y="552" type="line"/>
      <point x="279" y="682" type="line"/>
      <point x="181" y="682" type="line"/>
      <point x="135" y="553" type="line"/>
      <point x="3" y="492" type="line"/>
      <point x="3" y="418" type="line"/>
      <point x="123" y="418" type="line"/>
      <point x="123" y="190" type="line" smooth="yes"/>
      <point x="123" y="149"/>
      <point x="127" y="129"/>
      <point x="132" y="112" type="curve"/>
      <point x="114" y="89"/>
      <point x="90" y="45"/>
      <point x="79" y="13" type="curve"/>
    </contour>
    <contour>
      <point x="334" y="100" type="curve" smooth="yes"/>
      <point x="311" y="100"/>
      <point x="295" y="114"/>
      <point x="291" y="144" type="curve"/>
      <point x="300" y="155"/>
      <point x="318" y="166"/>
      <point x="337" y="166" type="curve" smooth="yes"/>
      <point x="359" y="166"/>
      <point x="371" y="153"/>
      <point x="371" y="133" type="curve" smooth="yes"/>
      <point x="371" y="112"/>
      <point x="355" y="100"/>
    </contour>
  </outline>
</glyph>
<glyph name="uni023D" format="2">
  <advance width="530"/>
  <unicode hex="023D"/>
  <anchor x="250" y="0" name="bottom"/>
  <anchor x="136" y="714" name="top"/>
  <anchor x="377" y="714" name="topright"/>
  <anchor x="250" y="357" name="center"/>
  <outline>
    <contour>
      <point x="0" y="312" type="line"/>
      <point x="347" y="312" type="line"/>
      <point x="347" y="433" type="line"/>
      <point x="0" y="433" type="line"/>
    </contour>
    <component base="L"/>
  </outline>
</glyph>
<glyph name="uni023F" format="2">
  <advance width="530"/>
  <unicode hex="023F"/>
  <anchor x="280" y="-240" name="bottom"/>
  <anchor x="250" y="553" name="top"/>
  <anchor x="480" y="553" name="topright"/>
  <outline>
    <contour>
      <point x="319" y="-240" type="curve" smooth="yes"/>
      <point x="351" y="-240"/>
      <point x="374" y="-234"/>
      <point x="391" y="-226" type="curve"/>
      <point x="391" y="-107" type="line"/>
      <point x="381" y="-112"/>
      <point x="367" y="-116"/>
      <point x="350" y="-116" type="curve" smooth="yes"/>
      <point x="313" y="-116"/>
      <point x="297" y="-94"/>
      <point x="282" y="-54" type="curve" smooth="yes"/>
      <point x="274" y="-33"/>
      <point x="265" y="-15"/>
      <point x="251" y="-6" type="curve"/>
      <point x="89" y="13" type="line"/>
      <point x="125" y="-1"/>
      <point x="136" y="-19"/>
      <point x="156" y="-87" type="curve" smooth="yes"/>
      <point x="182" y="-174"/>
      <point x="210" y="-240"/>
    </contour>
    <component base="s"/>
  </outline>
</glyph>
<glyph name="uni0240" format="2">
  <advance width="530"/>
  <unicode hex="0240"/>
  <anchor x="280" y="-240" name="bottom"/>
  <anchor x="242" y="553" name="top"/>
  <outline>
    <contour>
      <point x="370" y="-240" type="curve" smooth="yes"/>
      <point x="398" y="-240"/>
      <point x="432" y="-236"/>
      <point x="453" y="-227" type="curve"/>
      <point x="453" y="-97" type="line"/>
      <point x="436" y="-103"/>
      <point x="422" y="-105"/>
      <point x="411" y="-105" type="curve" smooth="yes"/>
      <point x="373" y="-105"/>
      <point x="359" y="-81"/>
      <point x="337" y="-12" type="curve" smooth="yes"/>
      <point x="319" y="46"/>
      <point x="302" y="98"/>
      <point x="229" y="122" type="curve"/>
      <point x="442" y="440" type="line"/>
      <point x="442" y="553" type="line"/>
      <point x="52" y="553" type="line"/>
      <point x="52" y="419" type="line"/>
      <point x="261" y="419" type="line"/>
      <point x="45" y="99" type="line"/>
      <point x="45" y="0" type="line"/>
      <point x="116" y="0" type="line" smooth="yes"/>
      <point x="164" y="0"/>
      <point x="177" y="-29"/>
      <point x="196" y="-87" type="curve" smooth="yes"/>
      <point x="222" y="-165"/>
      <point x="248" y="-240"/>
    </contour>
  </outline>
</glyph>
<glyph name="uni0243" format="2">
  <advance width="530"/>
  <unicode hex="0243"/>
  <anchor x="250" y="0" name="bottom"/>
  <anchor x="250" y="714" name="top"/>
  <anchor x="480" y="714" name="topright"/>
  <outline>
    <contour>
      <point x="0" y="176" type="line"/>
      <point x="257" y="176" type="line"/>
      <point x="257" y="267" type="line"/>
      <point x="0" y="267" type="line"/>
    </contour>
    <component base="B"/>
  </outline>
</glyph>
<glyph name="uni0244" format="2">
  <advance width="530"/>
  <unicode hex="0244"/>
  <anchor x="250" y="0" name="bottom"/>
  <anchor x="250" y="714" name="top"/>
  <anchor x="450" y="10" name="ogonek"/>
  <anchor x="480" y="714" name="topright"/>
  <outline>
    <contour>
      <point x="0" y="322" type="line"/>
      <point x="500" y="322" type="line"/>
      <point x="500" y="447" type="line"/>
      <point x="0" y="447" type="line"/>
    </contour>
    <component base="U"/>
  </outline>
</glyph>
<glyph name="uni0247" format="2">
  <advance width="530"/>
  <unicode hex="0247"/>
  <anchor x="250" y="-208" name="bottom"/>
  <anchor x="250" y="760" name="top"/>
  <anchor x="262" y="10" name="ogonek"/>
  <anchor x="497" y="553" name="topright"/>
  <outline>
    <contour>
      <point x="65" y="-208" type="line"/>
      <point x="152" y="-208" type="line"/>
      <point x="404" y="760" type="line"/>
      <point x="317" y="760" type="line"/>
    </contour>
    <component base="e"/>
  </outline>
</glyph>
<glyph name="uni024A" format="2">
  <advance width="530"/>
  <unicode hex="024A"/>
  <anchor x="250" y="-240" name="bottom"/>
  <anchor x="250" y="714" name="top"/>
  <outline>
    <contour>
      <point x="472" y="-240" type="curve"/>
      <point x="502" y="-240"/>
      <point x="536" y="-231"/>
      <point x="550" y="-224" type="curve"/>
      <point x="550" y="-91" type="line"/>
      <point x="538" y="-97"/>
      <point x="524" y="-102"/>
      <point x="510" y="-102" type="curve" smooth="yes"/>
      <point x="482" y="-102"/>
      <point x="475" y="-87"/>
      <point x="475" y="-44" type="curve" smooth="yes"/>
      <point x="475" y="123" type="line"/>
      <point x="322" y="98" type="line"/>
      <point x="319" y="64"/>
      <point x="317" y="36"/>
      <point x="317" y="-10" type="curve" smooth="yes"/>
      <point x="317" y="-50" type="line" smooth="yes"/>
      <point x="317" y="-187"/>
      <point x="374" y="-240"/>
    </contour>
    <component base="uni2C6D"/>
  </outline>
</glyph>
<glyph name="uni0251" format="2">
  <advance width="530"/>
  <unicode hex="0251"/>
  <anchor x="250" y="0" name="bottom"/>
  <anchor x="250" y="553" name="top"/>
  <outline>
    <contour>
      <point x="189" y="-10" type="curve" smooth="yes"/>
      <point x="260" y="-10"/>
      <point x="296" y="21"/>
      <point x="323" y="73" type="curve"/>
      <point x="328" y="73" type="line"/>
      <point x="339" y="0" type="line"/>
      <point x="465" y="0" type="line"/>
      <point x="465" y="553" type="line"/>
      <point x="345" y="553" type="line"/>
      <point x="322" y="484" type="line"/>
      <point x="313" y="484" type="line"/>
      <point x="292" y="533"/>
      <point x="257" y="563"/>
      <point x="193" y="563" type="curve" smooth="yes"/>
      <point x="86" y="563"/>
      <point x="20" y="453"/>
      <point x="20" y="272" type="curve" smooth="yes"/>
      <point x="20" y="99"/>
      <point x="84" y="-10"/>
    </contour>
    <contour>
      <point x="245" y="129" type="curve" smooth="yes"/>
      <point x="195" y="129"/>
      <point x="174" y="176"/>
      <point x="174" y="270" type="curve" smooth="yes"/>
      <point x="174" y="390"/>
      <point x="201" y="424"/>
      <point x="248" y="424" type="curve" smooth="yes"/>
      <point x="296" y="424"/>
      <point x="317" y="387"/>
      <point x="317" y="285" type="curve" smooth="yes"/>
      <point x="317" y="258" type="line" smooth="yes"/>
      <point x="317" y="170"/>
      <point x="294" y="129"/>
    </contour>
  </outline>
</glyph>
<glyph name="uni0253" format="2">
  <advance width="530"/>
  <unicode hex="0253"/>
  <anchor x="250" y="0" name="bottom"/>
  <anchor x="250" y="765" name="top"/>
  <outline>
    <contour>
      <point x="302" y="-10" type="curve" smooth="yes"/>
      <point x="404" y="-10"/>
      <point x="480" y="100"/>
      <point x="480" y="279" type="curve" smooth="yes"/>
      <point x="480" y="434"/>
      <point x="422" y="563"/>
      <point x="307" y="563" type="curve" smooth="yes"/>
      <point x="258" y="563"/>
      <point x="209" y="540"/>
      <point x="184" y="484" type="curve"/>
      <point x="178" y="484" type="line"/>
      <point x="183" y="514"/>
      <point x="185" y="538"/>
      <point x="185" y="564" type="curve" smooth="yes"/>
      <point x="185" y="574" type="line" smooth="yes"/>
      <point x="185" y="619"/>
      <point x="201" y="632"/>
      <point x="232" y="632" type="curve" smooth="yes"/>
      <point x="247" y="632"/>
      <point x="263" y="628"/>
      <point x="275" y="623" type="curve"/>
      <point x="275" y="753" type="line"/>
      <point x="257" y="759"/>
      <point x="220" y="765"/>
      <point x="191" y="765" type="curve" smooth="yes"/>
      <point x="84" y="765"/>
      <point x="35" y="692"/>
      <point x="35" y="571" type="curve" smooth="yes"/>
      <point x="35" y="0" type="line"/>
      <point x="160" y="0" type="line"/>
      <point x="176" y="56" type="line"/>
      <point x="185" y="56" type="line"/>
      <point x="218" y="8"/>
      <point x="261" y="-10"/>
    </contour>
    <contour>
      <point x="251" y="128" type="curve" smooth="yes"/>
      <point x="202" y="128"/>
      <point x="182" y="178"/>
      <point x="182" y="277" type="curve" smooth="yes"/>
      <point x="182" y="373"/>
      <point x="201" y="424"/>
      <point x="252" y="424" type="curve" smooth="yes"/>
      <point x="300" y="424"/>
      <point x="320" y="378"/>
      <point x="320" y="278" type="curve" smooth="yes"/>
      <point x="320" y="178"/>
      <point x="300" y="128"/>
    </contour>
  </outline>
</glyph>
<glyph name="uni0257" format="2">
  <advance width="530"/>
  <unicode hex="0257"/>
  <anchor x="250" y="0" name="bottom"/>
  <anchor x="250" y="775" name="top"/>
  <outline>
    <contour>
      <point x="196" y="-10" type="curve" smooth="yes"/>
      <point x="252" y="-10"/>
      <point x="295" y="17"/>
      <point x="320" y="73" type="curve"/>
      <point x="328" y="73" type="line"/>
      <point x="338" y="0" type="line"/>
      <point x="465" y="0" type="line"/>
      <point x="465" y="582" type="line" smooth="yes"/>
      <point x="465" y="621"/>
      <point x="479" y="635"/>
      <point x="509" y="635" type="curve" smooth="yes"/>
      <point x="523" y="635"/>
      <point x="533" y="632"/>
      <point x="542" y="628" type="curve"/>
      <point x="542" y="765" type="line"/>
      <point x="527" y="770"/>
      <point x="500" y="775"/>
      <point x="470" y="775" type="curve" smooth="yes"/>
      <point x="370" y="775"/>
      <point x="325" y="708"/>
      <point x="325" y="607" type="curve" smooth="yes"/>
      <point x="325" y="593" type="line" smooth="yes"/>
      <point x="325" y="554"/>
      <point x="324" y="511"/>
      <point x="324" y="484" type="curve"/>
      <point x="315" y="484" type="line"/>
      <point x="289" y="542"/>
      <point x="246" y="563"/>
      <point x="198" y="563" type="curve" smooth="yes"/>
      <point x="85" y="563"/>
      <point x="20" y="451"/>
      <point x="20" y="275" type="curve" smooth="yes"/>
      <point x="20" y="108"/>
      <point x="78" y="-10"/>
    </contour>
    <contour>
      <point x="245" y="128" type="curve" smooth="yes"/>
      <point x="196" y="128"/>
      <point x="174" y="176"/>
      <point x="174" y="276" type="curve" smooth="yes"/>
      <point x="174" y="371"/>
      <point x="194" y="424"/>
      <point x="250" y="424" type="curve" smooth="yes"/>
      <point x="297" y="424"/>
      <point x="317" y="387"/>
      <point x="317" y="275" type="curve" smooth="yes"/>
      <point x="317" y="259" type="line" smooth="yes"/>
      <point x="317" y="162"/>
      <point x="287" y="128"/>
    </contour>
  </outline>
</glyph>
<glyph name="uni025F" format="2">
  <advance width="530"/>
  <unicode hex="025F"/>
  <anchor x="252" y="-239" name="bottom"/>
  <anchor x="270" y="553" name="top"/>
  <outline>
    <contour>
      <point x="182" y="-240" type="curve" smooth="yes"/>
      <point x="286" y="-240"/>
      <point x="349" y="-179"/>
      <point x="349" y="-45" type="curve" smooth="yes"/>
      <point x="349" y="237" type="line"/>
      <point x="401" y="237" type="line"/>
      <point x="401" y="353" type="line"/>
      <point x="349" y="353" type="line"/>
      <point x="349" y="553" type="line"/>
      <point x="187" y="553" type="line"/>
      <point x="187" y="353" type="line"/>
      <point x="136" y="353" type="line"/>
      <point x="136" y="237" type="line"/>
      <point x="187" y="237" type="line"/>
      <point x="187" y="-32" type="line" smooth="yes"/>
      <point x="187" y="-77"/>
      <point x="173" y="-100"/>
      <point x="143" y="-100" type="curve" smooth="yes"/>
      <point x="129" y="-100"/>
      <point x="114" y="-97"/>
      <point x="98" y="-91" type="curve"/>
      <point x="98" y="-228" type="line"/>
      <point x="125" y="-237"/>
      <point x="155" y="-240"/>
    </contour>
  </outline>
</glyph>
<glyph name="uni0260" format="2">
  <advance width="530"/>
  <unicode hex="0260"/>
  <anchor x="250" y="-245" name="bottom"/>
  <anchor x="250" y="775" name="top"/>
  <outline>
    <contour>
      <point x="212" y="-245" type="curve" smooth="yes"/>
      <point x="389" y="-245"/>
      <point x="465" y="-151"/>
      <point x="465" y="18" type="curve" smooth="yes"/>
      <point x="465" y="576" type="line" smooth="yes"/>
      <point x="465" y="616"/>
      <point x="479" y="635"/>
      <point x="509" y="635" type="curve" smooth="yes"/>
      <point x="523" y="635"/>
      <point x="538" y="632"/>
      <point x="554" y="626" type="curve"/>
      <point x="554" y="763" type="line"/>
      <point x="536" y="769"/>
      <point x="494" y="775"/>
      <point x="470" y="775" type="curve" smooth="yes"/>
      <point x="363" y="775"/>
      <point x="312" y="702"/>
      <point x="312" y="581" type="curve" smooth="yes"/>
      <point x="312" y="549" type="line" smooth="yes"/>
      <point x="312" y="530"/>
      <point x="313" y="506"/>
      <point x="316" y="484" type="curve"/>
      <point x="312" y="484" type="line"/>
      <point x="284" y="540"/>
      <point x="248" y="563"/>
      <point x="199" y="563" type="curve" smooth="yes"/>
      <point x="85" y="563"/>
      <point x="20" y="451"/>
      <point x="20" y="274" type="curve" smooth="yes"/>
      <point x="20" y="99"/>
      <point x="83" y="-10"/>
      <point x="197" y="-10" type="curve" smooth="yes"/>
      <point x="246" y="-10"/>
      <point x="283" y="11"/>
      <point x="309" y="66" type="curve"/>
      <point x="314" y="66" type="line"/>
      <point x="313" y="46"/>
      <point x="312" y="29"/>
      <point x="312" y="6" type="curve" smooth="yes"/>
      <point x="312" y="-11" type="line" smooth="yes"/>
      <point x="312" y="-78"/>
      <point x="270" y="-107"/>
      <point x="201" y="-107" type="curve" smooth="yes"/>
      <point x="156" y="-107"/>
      <point x="107" y="-97"/>
      <point x="47" y="-64" type="curve"/>
      <point x="47" y="-203" type="line"/>
      <point x="99" y="-231"/>
      <point x="144" y="-245"/>
    </contour>
    <contour>
      <point x="251" y="128" type="curve" smooth="yes"/>
      <point x="199" y="128"/>
      <point x="185" y="178"/>
      <point x="185" y="271" type="curve" smooth="yes"/>
      <point x="185" y="370"/>
      <point x="201" y="424"/>
      <point x="256" y="424" type="curve" smooth="yes"/>
      <point x="302" y="424"/>
      <point x="315" y="385"/>
      <point x="315" y="275" type="curve" smooth="yes"/>
      <point x="315" y="259" type="line" smooth="yes"/>
      <point x="315" y="159"/>
      <point x="293" y="128"/>
    </contour>
  </outline>
</glyph>
<glyph name="uni0267" format="2">
  <advance width="530"/>
  <unicode hex="0267"/>
  <anchor x="250" y="-240" name="bottom"/>
  <anchor x="250" y="277" name="center"/>
  <anchor x="155" y="760" name="top"/>
  <outline>
    <contour>
      <point x="318" y="-240" type="curve" smooth="yes"/>
      <point x="422" y="-240"/>
      <point x="470" y="-188"/>
      <point x="470" y="-54" type="curve" smooth="yes"/>
      <point x="470" y="360" type="line" smooth="yes"/>
      <point x="470" y="489"/>
      <point x="412" y="563"/>
      <point x="314" y="563" type="curve" smooth="yes"/>
      <point x="251" y="563"/>
      <point x="208" y="532"/>
      <point x="186" y="484" type="curve"/>
      <point x="177" y="484" type="line"/>
      <point x="186" y="528"/>
      <point x="190" y="555"/>
      <point x="190" y="571" type="curve" smooth="yes"/>
      <point x="190" y="578" type="line" smooth="yes"/>
      <point x="190" y="617"/>
      <point x="204" y="635"/>
      <point x="234" y="635" type="curve" smooth="yes"/>
      <point x="248" y="635"/>
      <point x="263" y="632"/>
      <point x="279" y="626" type="curve"/>
      <point x="279" y="753" type="line"/>
      <point x="261" y="759"/>
      <point x="219" y="765"/>
      <point x="195" y="765" type="curve" smooth="yes"/>
      <point x="88" y="765"/>
      <point x="35" y="691"/>
      <point x="35" y="580" type="curve" smooth="yes"/>
      <point x="35" y="0" type="line"/>
      <point x="190" y="0" type="line"/>
      <point x="190" y="278" type="line" smooth="yes"/>
      <point x="190" y="366"/>
      <point x="204" y="418"/>
      <point x="258" y="418" type="curve" smooth="yes"/>
      <point x="313" y="418"/>
      <point x="315" y="376"/>
      <point x="315" y="308" type="curve" smooth="yes"/>
      <point x="315" y="-54" type="line" smooth="yes"/>
      <point x="315" y="-91"/>
      <point x="299" y="-108"/>
      <point x="268" y="-108" type="curve" smooth="yes"/>
      <point x="244" y="-108"/>
      <point x="227" y="-100"/>
      <point x="210" y="-92" type="curve"/>
      <point x="210" y="-213" type="line"/>
      <point x="236" y="-228"/>
      <point x="274" y="-240"/>
    </contour>
  </outline>
</glyph>
<glyph name="uni0274" format="2">
  <advance width="530"/>
  <unicode hex="0274"/>
  <anchor x="250" y="0" name="bottom"/>
  <anchor x="250" y="553" name="top"/>
  <outline>
    <contour>
      <point x="37" y="0" type="line"/>
      <point x="170" y="0" type="line"/>
      <point x="170" y="184" type="line" smooth="yes"/>
      <point x="170" y="236"/>
      <point x="168" y="288"/>
      <point x="164" y="333" type="curve"/>
      <point x="313" y="0" type="line"/>
      <point x="463" y="0" type="line"/>
      <point x="463" y="553" type="line"/>
      <point x="330" y="553" type="line"/>
      <point x="330" y="380" type="line" smooth="yes"/>
      <point x="330" y="325"/>
      <point x="331" y="272"/>
      <point x="335" y="220" type="curve"/>
      <point x="187" y="553" type="line"/>
      <point x="37" y="553" type="line"/>
    </contour>
  </outline>
</glyph>
<glyph name="rlongleg" format="2">
  <advance width="530"/>
  <unicode hex="027C"/>
  <anchor x="208" y="-240" name="bottom"/>
  <anchor x="272" y="554" name="top"/>
  <outline>
    <contour>
      <point x="133" y="-240" type="line"/>
      <point x="278" y="-240" type="line"/>
      <point x="278" y="278" type="line" smooth="yes"/>
      <point x="278" y="353"/>
      <point x="312" y="398"/>
      <point x="376" y="398" type="curve" smooth="yes"/>
      <point x="399" y="398"/>
      <point x="430" y="392"/>
      <point x="451" y="381" type="curve"/>
      <point x="490" y="542" type="line"/>
      <point x="455" y="559"/>
      <point x="421" y="563"/>
      <point x="399" y="563" type="curve" smooth="yes"/>
      <point x="325" y="563"/>
      <point x="281" y="519"/>
      <point x="264" y="461" type="curve"/>
      <point x="256" y="461" type="line"/>
      <point x="242" y="553" type="line"/>
      <point x="36" y="553" type="line"/>
      <point x="36" y="431" type="line"/>
      <point x="133" y="419" type="line"/>
    </contour>
  </outline>
</glyph>
<glyph name="uni027E" format="2">
  <advance width="530"/>
  <unicode hex="027E"/>
  <anchor x="250" y="0" name="bottom"/>
  <anchor x="300" y="553" name="top"/>
  <outline>
    <contour>
      <point x="124" y="0" type="line"/>
      <point x="278" y="0" type="line"/>
      <point x="278" y="295" type="line" smooth="yes"/>
      <point x="278" y="390"/>
      <point x="316" y="421"/>
      <point x="379" y="421" type="curve" smooth="yes"/>
      <point x="408" y="421"/>
      <point x="425" y="416"/>
      <point x="440" y="410" type="curve"/>
      <point x="464" y="548" type="line"/>
      <point x="442" y="555"/>
      <point x="403" y="563"/>
      <point x="363" y="563" type="curve" smooth="yes"/>
      <point x="191" y="563"/>
      <point x="124" y="458"/>
      <point x="124" y="300" type="curve" smooth="yes"/>
    </contour>
  </outline>
</glyph>
<glyph name="uni0283" format="2">
  <advance width="530"/>
  <unicode hex="0283"/>
  <anchor x="203" y="-240" name="bottom"/>
  <anchor x="306" y="763" name="top"/>
  <outline>
    <contour>
      <point x="182" y="-240" type="curve" smooth="yes"/>
      <point x="286" y="-240"/>
      <point x="334" y="-190"/>
      <point x="334" y="-64" type="curve" smooth="yes"/>
      <point x="334" y="579" type="line" smooth="yes"/>
      <point x="334" y="620"/>
      <point x="350" y="638"/>
      <point x="384" y="638" type="curve" smooth="yes"/>
      <point x="398" y="638"/>
      <point x="413" y="635"/>
      <point x="429" y="629" type="curve"/>
      <point x="429" y="754" type="line"/>
      <point x="412" y="760"/>
      <point x="374" y="765"/>
      <point x="351" y="765" type="curve" smooth="yes"/>
      <point x="243" y="765"/>
      <point x="180" y="697"/>
      <point x="180" y="581" type="curve" smooth="yes"/>
      <point x="180" y="-64" type="line" smooth="yes"/>
      <point x="180" y="-99"/>
      <point x="167" y="-113"/>
      <point x="140" y="-113" type="curve" smooth="yes"/>
      <point x="117" y="-113"/>
      <point x="98" y="-106"/>
      <point x="76" y="-94" type="curve"/>
      <point x="76" y="-212" type="line"/>
      <point x="106" y="-231"/>
      <point x="142" y="-240"/>
    </contour>
  </outline>
</glyph>
<glyph name="eshcurl" format="2">
  <advance width="530"/>
  <unicode hex="0286"/>
  <anchor x="194" y="-240" name="bottom"/>
  <anchor x="335" y="770" name="top"/>
  <outline>
    <contour>
      <point x="161" y="-240" type="curve" smooth="yes"/>
      <point x="291" y="-240"/>
      <point x="335" y="-172"/>
      <point x="335" y="-92" type="curve"/>
      <point x="390" y="-92" type="line"/>
      <point x="390" y="0" type="line"/>
      <point x="335" y="0" type="line"/>
      <point x="335" y="538" type="line" smooth="yes"/>
      <point x="335" y="587"/>
      <point x="363" y="617"/>
      <point x="416" y="617" type="curve" smooth="yes"/>
      <point x="437" y="617"/>
      <point x="461" y="612"/>
      <point x="474" y="608" type="curve"/>
      <point x="474" y="755" type="line"/>
      <point x="456" y="762"/>
      <point x="419" y="770"/>
      <point x="380" y="770" type="curve" smooth="yes"/>
      <point x="249" y="770"/>
      <point x="181" y="682"/>
      <point x="181" y="546" type="curve" smooth="yes"/>
      <point x="181" y="0" type="line"/>
      <point x="137" y="0" type="line" smooth="yes"/>
      <point x="48" y="0"/>
      <point x="7" y="-52"/>
      <point x="7" y="-121" type="curve" smooth="yes"/>
      <point x="7" y="-195"/>
      <point x="55" y="-240"/>
    </contour>
    <contour>
      <point x="139" y="-150" type="curve" smooth="yes"/>
      <point x="114" y="-150"/>
      <point x="102" y="-139"/>
      <point x="102" y="-121" type="curve" smooth="yes"/>
      <point x="102" y="-98"/>
      <point x="123" y="-92"/>
      <point x="140" y="-92" type="curve" smooth="yes"/>
      <point x="181" y="-92" type="line"/>
      <point x="181" y="-108" type="line" smooth="yes"/>
      <point x="181" y="-139"/>
      <point x="164" y="-150"/>
    </contour>
  </outline>
</glyph>
<glyph name="uni028B" format="2">
  <advance width="530"/>
  <unicode hex="028B"/>
  <anchor x="250" y="0" name="bottom"/>
  <anchor x="250" y="553" name="top"/>
  <outline>
    <contour>
      <point x="252" y="-10" type="curve" smooth="yes"/>
      <point x="399" y="-10"/>
      <point x="470" y="76"/>
      <point x="470" y="203" type="curve" smooth="yes"/>
      <point x="470" y="377" type="line" smooth="yes"/>
      <point x="470" y="511"/>
      <point x="425" y="563"/>
      <point x="324" y="563" type="curve" smooth="yes"/>
      <point x="294" y="563"/>
      <point x="267" y="558"/>
      <point x="243" y="547" type="curve"/>
      <point x="243" y="416" type="line"/>
      <point x="255" y="421"/>
      <point x="266" y="423"/>
      <point x="279" y="423" type="curve" smooth="yes"/>
      <point x="301" y="423"/>
      <point x="315" y="409"/>
      <point x="315" y="377" type="curve" smooth="yes"/>
      <point x="315" y="206" type="line" smooth="yes"/>
      <point x="315" y="152"/>
      <point x="294" y="134"/>
      <point x="252" y="134" type="curve" smooth="yes"/>
      <point x="210" y="134"/>
      <point x="189" y="152"/>
      <point x="189" y="206" type="curve" smooth="yes"/>
      <point x="189" y="553" type="line"/>
      <point x="34" y="553" type="line"/>
      <point x="34" y="199" type="line" smooth="yes"/>
      <point x="34" y="70"/>
      <point x="97" y="-10"/>
    </contour>
  </outline>
</glyph>
<glyph name="uni028F" format="2">
  <advance width="530"/>
  <unicode hex="028F"/>
  <anchor x="250" y="0" name="bottom"/>
  <anchor x="250" y="553" name="top"/>
  <outline>
    <contour>
      <point x="175" y="0" type="line"/>
      <point x="326" y="0" type="line"/>
      <point x="326" y="212" type="line"/>
      <point x="493" y="553" type="line"/>
      <point x="326" y="553" type="line"/>
      <point x="252" y="370" type="line"/>
      <point x="175" y="553" type="line"/>
      <point x="7" y="553" type="line"/>
      <point x="175" y="212" type="line"/>
    </contour>
  </outline>
</glyph>
<glyph name="uni0294" format="2">
  <advance width="530"/>
  <unicode hex="0294"/>
  <anchor x="214" y="0" name="bottom"/>
  <anchor x="214" y="765" name="top"/>
  <outline>
    <contour>
      <point x="128" y="0" type="line"/>
      <point x="290" y="0" type="line"/>
      <point x="290" y="284" type="line"/>
      <point x="391" y="360"/>
      <point x="440" y="445"/>
      <point x="440" y="545" type="curve" smooth="yes"/>
      <point x="440" y="683"/>
      <point x="345" y="765"/>
      <point x="205" y="765" type="curve" smooth="yes"/>
      <point x="108" y="765"/>
      <point x="54" y="733"/>
      <point x="11" y="702" type="curve"/>
      <point x="67" y="575" type="line"/>
      <point x="96" y="600"/>
      <point x="137" y="621"/>
      <point x="187" y="621" type="curve" smooth="yes"/>
      <point x="247" y="621"/>
      <point x="276" y="582"/>
      <point x="276" y="526" type="curve" smooth="yes"/>
      <point x="276" y="452"/>
      <point x="225" y="403"/>
      <point x="128" y="345" type="curve"/>
    </contour>
  </outline>
</glyph>
<glyph name="qhook" format="2">
  <advance width="530"/>
  <unicode hex="02A0"/>
  <anchor x="250" y="-240" name="bottom"/>
  <anchor x="250" y="775" name="top"/>
  <outline>
    <contour>
      <point x="315" y="-240" type="line"/>
      <point x="466" y="-240" type="line"/>
      <point x="466" y="576" type="line" smooth="yes"/>
      <point x="466" y="616"/>
      <point x="480" y="635"/>
      <point x="511" y="635" type="curve" smooth="yes"/>
      <point x="526" y="635"/>
      <point x="542" y="632"/>
      <point x="556" y="626" type="curve"/>
      <point x="556" y="763" type="line"/>
      <point x="538" y="769"/>
      <point x="511" y="775"/>
      <point x="476" y="775" type="curve" smooth="yes"/>
      <point x="380" y="775"/>
      <point x="315" y="714"/>
      <point x="315" y="593" type="curve" smooth="yes"/>
      <point x="315" y="558" type="line" smooth="yes"/>
      <point x="315" y="538"/>
      <point x="318" y="513"/>
      <point x="320" y="488" type="curve"/>
      <point x="314" y="488" type="line"/>
      <point x="284" y="548"/>
      <point x="246" y="563"/>
      <point x="197" y="563" type="curve" smooth="yes"/>
      <point x="82" y="563"/>
      <point x="20" y="456"/>
      <point x="20" y="272" type="curve" smooth="yes"/>
      <point x="20" y="95"/>
      <point x="82" y="-10"/>
      <point x="188" y="-10" type="curve" smooth="yes"/>
      <point x="246" y="-10"/>
      <point x="285" y="12"/>
      <point x="314" y="69" type="curve"/>
      <point x="320" y="69" type="line"/>
      <point x="317" y="49"/>
      <point x="315" y="17"/>
      <point x="315" y="-5" type="curve" smooth="yes"/>
    </contour>
    <contour>
      <point x="249" y="129" type="curve" smooth="yes"/>
      <point x="203" y="129"/>
      <point x="186" y="169"/>
      <point x="186" y="270" type="curve" smooth="yes"/>
      <point x="186" y="383"/>
      <point x="206" y="424"/>
      <point x="255" y="424" type="curve" smooth="yes"/>
      <point x="301" y="424"/>
      <point x="318" y="388"/>
      <point x="318" y="285" type="curve" smooth="yes"/>
      <point x="318" y="256" type="line" smooth="yes"/>
      <point x="318" y="161"/>
      <point x="298" y="129"/>
    </contour>
  </outline>
</glyph>
<glyph name="uni02A1" format="2">
  <advance width="530"/>
  <unicode hex="02A1"/>
  <anchor x="214" y="0" name="bottom"/>
  <anchor x="250" y="765" name="top"/>
  <outline>
    <contour>
      <point x="36" y="121" type="line"/>
      <point x="411" y="121" type="line"/>
      <point x="411" y="237" type="line"/>
      <point x="36" y="237" type="line"/>
    </contour>
    <component base="uni0294"/>
  </outline>
</glyph>
<glyph name="uni02A4" format="2">
  <advance width="530"/>
  <unicode hex="02A4"/>
  <anchor x="250" y="-240" name="bottom"/>
  <anchor x="250" y="761" name="top"/>
  <outline>
    <contour>
      <point x="323" y="-240" type="curve" smooth="yes"/>
      <point x="434" y="-240"/>
      <point x="487" y="-136"/>
      <point x="487" y="11" type="curve" smooth="yes"/>
      <point x="487" y="165"/>
      <point x="456" y="221"/>
      <point x="409" y="238" type="curve"/>
      <point x="477" y="459" type="line"/>
      <point x="477" y="553" type="line"/>
      <point x="276" y="553" type="line"/>
      <point x="276" y="761" type="line"/>
      <point x="158" y="761" type="line"/>
      <point x="158" y="586" type="line" smooth="yes"/>
      <point x="158" y="565"/>
      <point x="158" y="547"/>
      <point x="161" y="521" type="curve"/>
      <point x="159" y="521" type="line"/>
      <point x="148" y="546"/>
      <point x="133" y="557"/>
      <point x="106" y="557" type="curve" smooth="yes"/>
      <point x="40" y="557"/>
      <point x="16" y="493"/>
      <point x="16" y="272" type="curve" smooth="yes"/>
      <point x="16" y="42"/>
      <point x="45" y="-10"/>
      <point x="104" y="-10" type="curve" smooth="yes"/>
      <point x="140" y="-10"/>
      <point x="156" y="11"/>
      <point x="167" y="46" type="curve"/>
      <point x="171" y="46" type="line"/>
      <point x="188" y="0" type="line"/>
      <point x="276" y="0" type="line"/>
      <point x="276" y="446" type="line"/>
      <point x="350" y="446" type="line"/>
      <point x="294" y="239" type="line"/>
      <point x="294" y="143" type="line"/>
      <point x="309" y="143" type="line" smooth="yes"/>
      <point x="345" y="143"/>
      <point x="370" y="108"/>
      <point x="370" y="8" type="curve" smooth="yes"/>
      <point x="370" y="-72"/>
      <point x="349" y="-123"/>
      <point x="309" y="-123" type="curve" smooth="yes"/>
      <point x="284" y="-123"/>
      <point x="273" y="-118"/>
      <point x="263" y="-112" type="curve"/>
      <point x="263" y="-229" type="line"/>
      <point x="273" y="-234"/>
      <point x="296" y="-240"/>
    </contour>
    <contour>
      <point x="151" y="102" type="curve" smooth="yes"/>
      <point x="136" y="102"/>
      <point x="131" y="122"/>
      <point x="131" y="270" type="curve" smooth="yes"/>
      <point x="131" y="424"/>
      <point x="136" y="446"/>
      <point x="152" y="446" type="curve" smooth="yes"/>
      <point x="168" y="446"/>
      <point x="170" y="426"/>
      <point x="170" y="271" type="curve" smooth="yes"/>
      <point x="170" y="255" type="line" smooth="yes"/>
      <point x="170" y="117"/>
      <point x="166" y="102"/>
    </contour>
  </outline>
</glyph>
<glyph name="uni02A9" format="2">
  <advance width="530"/>
  <unicode hex="02A9"/>
  <anchor x="250" y="-240" name="bottom"/>
  <anchor x="250" y="766" name="top"/>
  <outline>
    <contour>
      <point x="356" y="-240" type="curve" smooth="yes"/>
      <point x="449" y="-240"/>
      <point x="474" y="-159"/>
      <point x="474" y="-59" type="curve" smooth="yes"/>
      <point x="474" y="433" type="line" smooth="yes"/>
      <point x="474" y="524"/>
      <point x="436" y="557"/>
      <point x="378" y="557" type="curve" smooth="yes"/>
      <point x="335" y="557"/>
      <point x="308" y="535"/>
      <point x="293" y="492" type="curve"/>
      <point x="286" y="492" type="line"/>
      <point x="277" y="547" type="line"/>
      <point x="145" y="547" type="line"/>
      <point x="145" y="607" type="line" smooth="yes"/>
      <point x="145" y="646"/>
      <point x="159" y="668"/>
      <point x="181" y="668" type="curve" smooth="yes"/>
      <point x="194" y="668"/>
      <point x="204" y="664"/>
      <point x="214" y="658" type="curve"/>
      <point x="242" y="746" type="line"/>
      <point x="228" y="755"/>
      <point x="204" y="766"/>
      <point x="163" y="766" type="curve" smooth="yes"/>
      <point x="72" y="766"/>
      <point x="22" y="702"/>
      <point x="22" y="603" type="curve" smooth="yes"/>
      <point x="22" y="547" type="line"/>
      <point x="-3" y="517" type="line"/>
      <point x="-3" y="454" type="line"/>
      <point x="22" y="454" type="line"/>
      <point x="22" y="0" type="line"/>
      <point x="145" y="0" type="line"/>
      <point x="145" y="454" type="line"/>
      <point x="181" y="454" type="line"/>
      <point x="181" y="0" type="line"/>
      <point x="304" y="0" type="line"/>
      <point x="304" y="356" type="line" smooth="yes"/>
      <point x="304" y="403"/>
      <point x="307" y="457"/>
      <point x="328" y="457" type="curve" smooth="yes"/>
      <point x="347" y="457"/>
      <point x="351" y="439"/>
      <point x="351" y="407" type="curve" smooth="yes"/>
      <point x="351" y="-62" type="line" smooth="yes"/>
      <point x="351" y="-128"/>
      <point x="338" y="-145"/>
      <point x="327" y="-145" type="curve" smooth="yes"/>
      <point x="316" y="-145"/>
      <point x="309" y="-143"/>
      <point x="301" y="-138" type="curve"/>
      <point x="301" y="-228" type="line"/>
      <point x="312" y="-233"/>
      <point x="333" y="-240"/>
    </contour>
  </outline>
</glyph>
<glyph name="uni02AD" format="2">
  <advance width="530"/>
  <unicode hex="02AD"/>
  <anchor x="250" y="0" name="bottom"/>
  <anchor x="250" y="714" name="top"/>
  <outline>
    <contour>
      <point x="50" y="463" type="line"/>
      <point x="180" y="463" type="line"/>
      <point x="180" y="589" type="line"/>
      <point x="320" y="589" type="line"/>
      <point x="320" y="463" type="line"/>
      <point x="450" y="463" type="line"/>
      <point x="450" y="714" type="line"/>
      <point x="50" y="714" type="line"/>
    </contour>
    <contour>
      <point x="50" y="0" type="line"/>
      <point x="180" y="0" type="line"/>
      <point x="180" y="127" type="line"/>
      <point x="320" y="127" type="line"/>
      <point x="320" y="0" type="line"/>
      <point x="450" y="0" type="line"/>
      <point x="450" y="251" type="line"/>
      <point x="50" y="251" type="line"/>
    </contour>
  </outline>
</glyph>
<glyph name="uni02AE" format="2">
  <advance width="530"/>
  <unicode hex="02AE"/>
  <anchor x="243" y="-240" name="bottom"/>
  <anchor x="243" y="553" name="top"/>
  <outline>
    <contour>
      <point x="310" y="-207" type="line"/>
      <point x="465" y="-207" type="line"/>
      <point x="465" y="553" type="line"/>
      <point x="310" y="553" type="line"/>
      <point x="310" y="275" type="line" smooth="yes"/>
      <point x="310" y="187"/>
      <point x="296" y="135"/>
      <point x="242" y="135" type="curve" smooth="yes"/>
      <point x="187" y="135"/>
      <point x="185" y="177"/>
      <point x="185" y="245" type="curve" smooth="yes"/>
      <point x="185" y="383" type="line" smooth="yes"/>
      <point x="185" y="504"/>
      <point x="132" y="563"/>
      <point x="25" y="563" type="curve" smooth="yes"/>
      <point x="-1" y="563"/>
      <point x="-26" y="557"/>
      <point x="-41" y="552" type="curve"/>
      <point x="-41" y="417" type="line"/>
      <point x="-33" y="420"/>
      <point x="-22" y="423"/>
      <point x="-9" y="423" type="curve" smooth="yes"/>
      <point x="21" y="423"/>
      <point x="30" y="405"/>
      <point x="30" y="366" type="curve" smooth="yes"/>
      <point x="30" y="193" type="line" smooth="yes"/>
      <point x="30" y="64"/>
      <point x="88" y="-10"/>
      <point x="186" y="-10" type="curve" smooth="yes"/>
      <point x="249" y="-10"/>
      <point x="292" y="21"/>
      <point x="314" y="69" type="curve"/>
      <point x="323" y="69" type="line"/>
      <point x="314" y="25"/>
      <point x="310" y="-22"/>
      <point x="310" y="-68" type="curve" smooth="yes"/>
    </contour>
  </outline>
</glyph>
<glyph name="uni02AF" format="2">
  <advance width="530"/>
  <unicode hex="02AF"/>
  <anchor x="243" y="-240" name="bottom"/>
  <anchor x="243" y="553" name="top"/>
  <outline>
    <contour>
      <point x="459" y="-240" type="curve" smooth="yes"/>
      <point x="507" y="-240"/>
      <point x="539" y="-228"/>
      <point x="565" y="-213" type="curve"/>
      <point x="565" y="-85" type="line"/>
      <point x="550" y="-93"/>
      <point x="532" y="-100"/>
      <point x="508" y="-100" type="curve" smooth="yes"/>
      <point x="479" y="-100"/>
      <point x="465" y="-84"/>
      <point x="465" y="-52" type="curve" smooth="yes"/>
      <point x="465" y="553" type="line"/>
      <point x="310" y="553" type="line"/>
      <point x="310" y="275" type="line" smooth="yes"/>
      <point x="310" y="187"/>
      <point x="296" y="135"/>
      <point x="242" y="135" type="curve" smooth="yes"/>
      <point x="187" y="135"/>
      <point x="185" y="177"/>
      <point x="185" y="245" type="curve" smooth="yes"/>
      <point x="185" y="383" type="line" smooth="yes"/>
      <point x="185" y="504"/>
      <point x="132" y="563"/>
      <point x="25" y="563" type="curve" smooth="yes"/>
      <point x="-1" y="563"/>
      <point x="-26" y="557"/>
      <point x="-41" y="552" type="curve"/>
      <point x="-41" y="417" type="line"/>
      <point x="-33" y="420"/>
      <point x="-22" y="423"/>
      <point x="-9" y="423" type="curve" smooth="yes"/>
      <point x="21" y="423"/>
      <point x="30" y="405"/>
      <point x="30" y="366" type="curve" smooth="yes"/>
      <point x="30" y="193" type="line" smooth="yes"/>
      <point x="30" y="64"/>
      <point x="88" y="-10"/>
      <point x="186" y="-10" type="curve" smooth="yes"/>
      <point x="249" y="-10"/>
      <point x="292" y="21"/>
      <point x="314" y="69" type="curve"/>
      <point x="323" y="69" type="line"/>
      <point x="314" y="25"/>
      <point x="310" y="-22"/>
      <point x="310" y="-68" type="curve" smooth="yes"/>
      <point x="310" y="-84" type="line" smooth="yes"/>
      <point x="310" y="-187"/>
      <point x="355" y="-240"/>
    </contour>
  </outline>
</glyph>
<glyph name="uni02BE" format="2">
  <advance width="530"/>
  <unicode hex="02BE"/>
  <outline>
    <contour>
      <point x="185" y="575" type="line"/>
      <point x="257" y="575"/>
      <point x="316" y="621"/>
      <point x="316" y="697" type="curve"/>
      <point x="316" y="770"/>
      <point x="256" y="816"/>
      <point x="185" y="816" type="curve"/>
      <point x="185" y="731" type="line"/>
      <point x="202" y="731"/>
      <point x="219" y="717"/>
      <point x="219" y="696" type="curve"/>
      <point x="219" y="675"/>
      <point x="205" y="661"/>
      <point x="185" y="661" type="curve"/>
    </contour>
  </outline>
</glyph>
<glyph name="uni02D0" format="2">
  <advance width="530"/>
  <unicode hex="02D0"/>
  <outline>
    <contour>
      <point x="250" y="414" type="line"/>
      <point x="322" y="553" type="line"/>
      <point x="179" y="553" type="line"/>
    </contour>
    <contour>
      <point x="179" y="0" type="line"/>
      <point x="322" y="0" type="line"/>
      <point x="250" y="139" type="line"/>
    </contour>
  </outline>
</glyph>
<glyph name="uni02D7" format="2">
  <advance width="530"/>
  <unicode hex="02D7"/>
  <outline>
    <contour>
      <point x="144" y="346" type="line"/>
      <point x="144" y="288" type="line"/>
      <point x="357" y="288" type="line"/>
      <point x="357" y="346" type="line"/>
    </contour>
  </outline>
</glyph>
<glyph name="breve" format="2">
  <advance width="530"/>
  <unicode hex="02D8"/>
  <anchor x="249" y="553" name="_top"/>
  <anchor x="251" y="765" name="top"/>
  <outline>
    <contour>
      <point x="249" y="607" type="curve" smooth="yes"/>
      <point x="340" y="607"/>
      <point x="402" y="671"/>
      <point x="402" y="775" type="curve"/>
      <point x="315" y="775" type="line"/>
      <point x="312" y="725"/>
      <point x="289" y="706"/>
      <point x="249" y="706" type="curve" smooth="yes"/>
      <point x="208" y="706"/>
      <point x="187" y="727"/>
      <point x="184" y="775" type="curve"/>
      <point x="97" y="775" type="line"/>
      <point x="97" y="664"/>
      <point x="163" y="607"/>
    </contour>
  </outline>
</glyph>
<glyph name="ring" format="2">
  <advance width="530"/>
  <unicode hex="02DA"/>
  <outline>
    <contour>
      <point x="250" y="595" type="curve" smooth="yes"/>
      <point x="328" y="595"/>
      <point x="379" y="650"/>
      <point x="379" y="724" type="curve" smooth="yes"/>
      <point x="379" y="797"/>
      <point x="326" y="851"/>
      <point x="250" y="851" type="curve" smooth="yes"/>
      <point x="169" y="851"/>
      <point x="116" y="798"/>
      <point x="116" y="724" type="curve" smooth="yes"/>
      <point x="116" y="648"/>
      <point x="169" y="595"/>
    </contour>
    <contour>
      <point x="248" y="675" type="curve" smooth="yes"/>
      <point x="218" y="675"/>
      <point x="199" y="695"/>
      <point x="199" y="724" type="curve" smooth="yes"/>
      <point x="199" y="753"/>
      <point x="220" y="772"/>
      <point x="248" y="772" type="curve" smooth="yes"/>
      <point x="277" y="772"/>
      <point x="297" y="752"/>
      <point x="297" y="724" type="curve" smooth="yes"/>
      <point x="297" y="695"/>
      <point x="277" y="675"/>
    </contour>
  </outline>
</glyph>
<glyph name="ogonek" format="2">
  <advance width="530"/>
  <unicode hex="02DB"/>
  <outline>
    <contour>
      <point x="276" y="-240" type="curve" smooth="yes"/>
      <point x="305" y="-240"/>
      <point x="329" y="-233"/>
      <point x="344" y="-226" type="curve"/>
      <point x="344" y="-136" type="line"/>
      <point x="334" y="-141"/>
      <point x="324" y="-145"/>
      <point x="307" y="-145" type="curve" smooth="yes"/>
      <point x="280" y="-145"/>
      <point x="265" y="-127"/>
      <point x="265" y="-103" type="curve" smooth="yes"/>
      <point x="265" y="-72"/>
      <point x="275" y="-45"/>
      <point x="317" y="0" type="curve"/>
      <point x="243" y="16" type="line"/>
      <point x="180" y="-30"/>
      <point x="156" y="-87"/>
      <point x="156" y="-134" type="curve" smooth="yes"/>
      <point x="156" y="-200"/>
      <point x="196" y="-240"/>
    </contour>
  </outline>
</glyph>
<glyph name="uni02F1" format="2">
  <advance width="530"/>
  <unicode hex="02F1"/>
  <outline>
    <contour>
      <point x="352" y="-238" type="line"/>
      <point x="352" y="-171" type="line"/>
      <point x="222" y="-108" type="line"/>
      <point x="352" y="-46" type="line"/>
      <point x="352" y="21" type="line"/>
      <point x="148" y="-85" type="line"/>
      <point x="148" y="-132" type="line"/>
    </contour>
  </outline>
</glyph>
<glyph name="uni02FB" format="2">
  <advance width="500"/>
  <unicode hex="02FB"/>
  <outline>
    <contour>
      <point x="167" y="0" type="line"/>
      <point x="333" y="0" type="line"/>
      <point x="333" y="53" type="line"/>
      <point x="220" y="53" type="line"/>
      <point x="220" y="266" type="line"/>
      <point x="167" y="266" type="line"/>
    </contour>
  </outline>
</glyph>
<glyph name="uni02FF" format="2">
  <advance width="500"/>
  <unicode hex="02FF"/>
  <outline>
    <contour>
      <point x="271" y="-238" type="line"/>
      <point x="271" y="-180" type="line"/>
      <point x="165" y="-111" type="line"/>
      <point x="434" y="-111" type="line"/>
      <point x="434" y="-53" type="line"/>
      <point x="165" y="-53" type="line"/>
      <point x="271" y="15" type="line"/>
      <point x="271" y="73" type="line"/>
      <point x="66" y="-59" type="line"/>
      <point x="66" y="-106" type="line"/>
    </contour>
  </outline>
</glyph>
<glyph name="dblgravecomb" format="2">
  <unicode hex="030F"/>
  <anchor x="0" y="553" name="_top"/>
  <anchor x="0" y="766" name="top"/>
  <outline>
    <contour>
      <point x="81" y="606" type="curve"/>
      <point x="157" y="606" type="line"/>
      <point x="157" y="620" type="line"/>
      <point x="120" y="693"/>
      <point x="97" y="742"/>
      <point x="87" y="766" type="curve"/>
      <point x="-58" y="766" type="line"/>
      <point x="-58" y="756" type="line"/>
      <point x="-41" y="718"/>
      <point x="21" y="653"/>
    </contour>
    <contour>
      <point x="-104" y="606" type="curve"/>
      <point x="-21" y="606" type="line"/>
      <point x="-21" y="620" type="line"/>
      <point x="-57" y="692"/>
      <point x="-80" y="741"/>
      <point x="-91" y="766" type="curve"/>
      <point x="-237" y="766" type="line"/>
      <point x="-237" y="756" type="line"/>
      <point x="-222" y="722"/>
      <point x="-146" y="644"/>
    </contour>
  </outline>
</glyph>
<glyph name="candraBinducomb" format="2">
  <unicode hex="0310"/>
  <anchor x="0" y="553" name="_top"/>
  <anchor x="0" y="853" name="top"/>
  <outline>
    <contour>
      <point x="-1" y="606" type="curve" smooth="yes"/>
      <point x="105" y="606"/>
      <point x="163" y="680"/>
      <point x="169" y="785" type="curve"/>
      <point x="90" y="785" type="line"/>
      <point x="87" y="733"/>
      <point x="49" y="691"/>
      <point x="-1" y="691" type="curve" smooth="yes"/>
      <point x="-48" y="691"/>
      <point x="-90" y="728"/>
      <point x="-92" y="785" type="curve"/>
      <point x="-169" y="785" type="line"/>
      <point x="-165" y="676"/>
      <point x="-113" y="606"/>
    </contour>
    <contour>
      <point x="-4" y="729" type="curve"/>
      <point x="28" y="729"/>
      <point x="48" y="751"/>
      <point x="48" y="790" type="curve"/>
      <point x="48" y="831"/>
      <point x="28" y="853"/>
      <point x="-4" y="853" type="curve"/>
      <point x="-35" y="853"/>
      <point x="-54" y="832"/>
      <point x="-54" y="790" type="curve"/>
      <point x="-54" y="751"/>
      <point x="-35" y="729"/>
    </contour>
  </outline>
</glyph>
<glyph name="righttackbelowcomb" format="2">
  <unicode hex="0319"/>
  <anchor x="0" y="0" name="_bottom"/>
  <anchor x="0" y="-217" name="bottom"/>
  <outline>
    <contour>
      <point x="-74" y="-217" type="line"/>
      <point x="-16" y="-217" type="line"/>
      <point x="-16" y="-152" type="line"/>
      <point x="73" y="-152" type="line"/>
      <point x="73" y="-94" type="line"/>
      <point x="-16" y="-94" type="line"/>
      <point x="-16" y="-29" type="line"/>
      <point x="-74" y="-29" type="line"/>
    </contour>
  </outline>
</glyph>
<glyph name="horncomb" format="2">
  <unicode hex="031B"/>
  <outline>
    <contour>
      <point x="-39" y="439" type="line"/>
      <point x="56" y="503"/>
      <point x="83" y="552"/>
      <point x="83" y="618" type="curve" smooth="yes"/>
      <point x="83" y="651"/>
      <point x="76" y="692"/>
      <point x="50" y="747" type="curve"/>
      <point x="39" y="753" type="line"/>
      <point x="-65" y="693" type="line"/>
      <point x="-42" y="650"/>
      <point x="-36" y="619"/>
      <point x="-36" y="599" type="curve" smooth="yes"/>
      <point x="-36" y="570"/>
      <point x="-50" y="547"/>
      <point x="-84" y="530" type="curve"/>
    </contour>
  </outline>
</glyph>
<glyph name="plusbelowcomb" format="2">
  <unicode hex="031F"/>
  <anchor x="0" y="0" name="_bottom"/>
  <anchor x="0" y="-216" name="bottom"/>
  <outline>
    <contour>
      <point x="-29" y="-216" type="line"/>
      <point x="29" y="-216" type="line"/>
      <point x="29" y="-156" type="line"/>
      <point x="86" y="-156" type="line"/>
      <point x="86" y="-98" type="line"/>
      <point x="29" y="-98" type="line"/>
      <point x="29" y="-38" type="line"/>
      <point x="-29" y="-38" type="line"/>
      <point x="-29" y="-98" type="line"/>
      <point x="-87" y="-98" type="line"/>
      <point x="-87" y="-156" type="line"/>
      <point x="-29" y="-156" type="line"/>
    </contour>
  </outline>
</glyph>
<glyph name="hookpalatalizedbelowcomb" format="2">
  <unicode hex="0321"/>
  <outline>
    <contour>
      <point x="-28" y="-241" type="curve"/>
      <point x="56" y="-241"/>
      <point x="107" y="-188"/>
      <point x="107" y="-60" type="curve"/>
      <point x="107" y="56" type="line"/>
      <point x="-28" y="56" type="line"/>
      <point x="-28" y="-58" type="line" smooth="yes"/>
      <point x="-28" y="-106"/>
      <point x="-42" y="-120"/>
      <point x="-71" y="-120" type="curve"/>
      <point x="-81" y="-120"/>
      <point x="-93" y="-115"/>
      <point x="-107" y="-111" type="curve"/>
      <point x="-107" y="-228" type="line"/>
      <point x="-82" y="-237"/>
      <point x="-57" y="-241"/>
    </contour>
  </outline>
</glyph>
<glyph name="commaaccent" format="2">
  <advance width="530"/>
  <unicode hex="0326"/>
  <anchor x="0" y="0" name="_bottom"/>
  <anchor x="0" y="-221" name="bottom"/>
  <outline>
    <contour>
      <point x="-92" y="-221" type="line"/>
      <point x="4" y="-221" type="line"/>
      <point x="31" y="-177"/>
      <point x="54" y="-121"/>
      <point x="69" y="-69" type="curve"/>
      <point x="69" y="-61" type="line"/>
      <point x="-72" y="-61" type="line"/>
      <point x="-73" y="-101"/>
      <point x="-84" y="-179"/>
      <point x="-92" y="-213" type="curve"/>
    </contour>
  </outline>
</glyph>
<glyph name="slashshortoverlaycomb" format="2">
  <unicode hex="0337"/>
  <anchor x="0" y="281" name="_center"/>
  <outline>
    <contour>
      <point x="-99" y="137" type="line"/>
      <point x="169" y="335" type="line"/>
      <point x="99" y="425" type="line"/>
      <point x="-169" y="227" type="line"/>
    </contour>
  </outline>
</glyph>
<glyph name="tildeverticalcomb" format="2">
  <unicode hex="033E"/>
  <anchor x="0" y="553" name="_top"/>
  <anchor x="0" y="866" name="top"/>
  <outline>
    <contour>
      <point x="-56" y="576" type="line"/>
      <point x="20" y="577"/>
      <point x="55" y="612"/>
      <point x="55" y="659" type="curve" smooth="yes"/>
      <point x="55" y="712"/>
      <point x="11" y="751"/>
      <point x="11" y="780" type="curve" smooth="yes"/>
      <point x="11" y="799"/>
      <point x="26" y="814"/>
      <point x="56" y="814" type="curve"/>
      <point x="56" y="866" type="line"/>
      <point x="-18" y="865"/>
      <point x="-55" y="831"/>
      <point x="-55" y="784" type="curve"/>
      <point x="-55" y="734"/>
      <point x="-11" y="696"/>
      <point x="-11" y="662" type="curve" smooth="yes"/>
      <point x="-11" y="643"/>
      <point x="-27" y="629"/>
      <point x="-56" y="628" type="curve"/>
    </contour>
  </outline>
</glyph>
<glyph name="homotheticabovecomb" format="2">
  <unicode hex="034B"/>
  <anchor x="0" y="513" name="_top"/>
  <anchor x="0" y="945" name="top"/>
  <outline>
    <contour>
      <point x="-151" y="683" type="curve"/>
      <point x="-82" y="683" type="line"/>
      <point x="-81" y="714"/>
      <point x="-67" y="719"/>
      <point x="-60" y="719" type="curve"/>
      <point x="-25" y="719"/>
      <point x="21" y="684"/>
      <point x="63" y="684" type="curve" smooth="yes"/>
      <point x="110" y="684"/>
      <point x="149" y="726"/>
      <point x="151" y="817" type="curve"/>
      <point x="82" y="817" type="line"/>
      <point x="82" y="787"/>
      <point x="66" y="781"/>
      <point x="59" y="781" type="curve" smooth="yes"/>
      <point x="23" y="781"/>
      <point x="-25" y="816"/>
      <point x="-60" y="816" type="curve" smooth="yes"/>
      <point x="-113" y="816"/>
      <point x="-148" y="774"/>
    </contour>
    <contour>
      <point x="4" y="555" type="curve" smooth="yes"/>
      <point x="34" y="555"/>
      <point x="56" y="575"/>
      <point x="56" y="611" type="curve" smooth="yes"/>
      <point x="56" y="649"/>
      <point x="34" y="668"/>
      <point x="4" y="668" type="curve" smooth="yes"/>
      <point x="-27" y="668"/>
      <point x="-47" y="649"/>
      <point x="-47" y="611" type="curve" smooth="yes"/>
      <point x="-47" y="575"/>
      <point x="-27" y="555"/>
    </contour>
    <contour>
      <point x="4" y="832" type="curve" smooth="yes"/>
      <point x="34" y="832"/>
      <point x="56" y="852"/>
      <point x="56" y="888" type="curve" smooth="yes"/>
      <point x="56" y="926"/>
      <point x="34" y="945"/>
      <point x="4" y="945" type="curve" smooth="yes"/>
      <point x="-27" y="945"/>
      <point x="-47" y="926"/>
      <point x="-47" y="888" type="curve" smooth="yes"/>
      <point x="-47" y="851"/>
      <point x="-27" y="832"/>
    </contour>
  </outline>
</glyph>
<glyph name="almostequaltoabovecomb" format="2">
  <unicode hex="034C"/>
  <anchor x="0" y="553" name="_top"/>
  <anchor x="0" y="861" name="top"/>
  <outline>
    <contour>
      <point x="54" y="744" type="curve" smooth="yes"/>
      <point x="114" y="744"/>
      <point x="138" y="797"/>
      <point x="143" y="860" type="curve"/>
      <point x="86" y="860" type="line"/>
      <point x="83" y="831"/>
      <point x="73" y="818"/>
      <point x="55" y="818" type="curve" smooth="yes"/>
      <point x="25" y="818"/>
      <point x="-1" y="861"/>
      <point x="-55" y="861" type="curve" smooth="yes"/>
      <point x="-111" y="861"/>
      <point x="-139" y="808"/>
      <point x="-143" y="745" type="curve"/>
      <point x="-86" y="745" type="line"/>
      <point x="-80" y="777"/>
      <point x="-72" y="787"/>
      <point x="-51" y="787" type="curve" smooth="yes"/>
      <point x="-27" y="787"/>
      <point x="6" y="744"/>
    </contour>
    <contour>
      <point x="54" y="604" type="curve" smooth="yes"/>
      <point x="114" y="604"/>
      <point x="138" y="657"/>
      <point x="143" y="720" type="curve"/>
      <point x="86" y="720" type="line"/>
      <point x="83" y="691"/>
      <point x="73" y="678"/>
      <point x="55" y="678" type="curve" smooth="yes"/>
      <point x="25" y="678"/>
      <point x="-1" y="721"/>
      <point x="-55" y="721" type="curve" smooth="yes"/>
      <point x="-111" y="721"/>
      <point x="-139" y="668"/>
      <point x="-143" y="605" type="curve"/>
      <point x="-86" y="605" type="line"/>
      <point x="-80" y="637"/>
      <point x="-72" y="647"/>
      <point x="-51" y="647" type="curve" smooth="yes"/>
      <point x="-27" y="647"/>
      <point x="6" y="604"/>
    </contour>
  </outline>
</glyph>
<glyph name="arrowleftrightbelowcomb" format="2">
  <unicode hex="034D"/>
  <anchor x="0" y="0" name="_bottom"/>
  <anchor x="0" y="-217" name="bottom"/>
  <outline>
    <contour>
      <point x="-41" y="-217" type="line"/>
      <point x="-41" y="-156" type="line"/>
      <point x="40" y="-156" type="line"/>
      <point x="40" y="-217" type="line"/>
      <point x="144" y="-127" type="line"/>
      <point x="40" y="-37" type="line"/>
      <point x="40" y="-98" type="line"/>
      <point x="-41" y="-98" type="line"/>
      <point x="-41" y="-37" type="line"/>
      <point x="-144" y="-127" type="line"/>
    </contour>
  </outline>
</glyph>
<glyph name="fermatacomb" format="2">
  <unicode hex="0352"/>
  <anchor x="0" y="553" name="_top"/>
  <anchor x="0" y="853" name="top"/>
  <outline>
    <contour>
      <point x="-169" y="674" type="curve"/>
      <point x="-90" y="674" type="line"/>
      <point x="-87" y="726"/>
      <point x="-49" y="768"/>
      <point x="1" y="768" type="curve" smooth="yes"/>
      <point x="48" y="768"/>
      <point x="90" y="731"/>
      <point x="92" y="674" type="curve"/>
      <point x="169" y="674" type="line"/>
      <point x="165" y="783"/>
      <point x="113" y="853"/>
      <point x="1" y="853" type="curve" smooth="yes"/>
      <point x="-105" y="853"/>
      <point x="-163" y="779"/>
    </contour>
    <contour>
      <point x="4" y="606" type="curve"/>
      <point x="35" y="606"/>
      <point x="54" y="627"/>
      <point x="54" y="669" type="curve"/>
      <point x="54" y="708"/>
      <point x="35" y="730"/>
      <point x="4" y="730" type="curve"/>
      <point x="-28" y="730"/>
      <point x="-48" y="708"/>
      <point x="-48" y="669" type="curve"/>
      <point x="-48" y="628"/>
      <point x="-28" y="606"/>
    </contour>
  </outline>
</glyph>
<glyph name="xbelowcomb" format="2">
  <unicode hex="0353"/>
  <anchor x="0" y="0" name="_bottom"/>
  <anchor x="0" y="-208" name="bottom"/>
  <outline>
    <contour>
      <point x="-45" y="-208" type="line"/>
      <point x="0" y="-164" type="line"/>
      <point x="44" y="-208" type="line"/>
      <point x="83" y="-171" type="line"/>
      <point x="37" y="-126" type="line"/>
      <point x="83" y="-82" type="line"/>
      <point x="44" y="-44" type="line"/>
      <point x="0" y="-89" type="line"/>
      <point x="-45" y="-44" type="line"/>
      <point x="-83" y="-82" type="line"/>
      <point x="-39" y="-126" type="line"/>
      <point x="-83" y="-171" type="line"/>
    </contour>
  </outline>
</glyph>
<glyph name="arrowheadrightbelowcomb" format="2">
  <unicode hex="0355"/>
  <anchor x="0" y="0" name="_bottom"/>
  <anchor x="0" y="-240" name="bottom"/>
  <outline>
    <contour>
      <point x="-66" y="-240" type="line"/>
      <point x="-57" y="-240" type="line"/>
      <point x="-28" y="-218"/>
      <point x="27" y="-186"/>
      <point x="66" y="-174" type="curve"/>
      <point x="66" y="-108" type="line"/>
      <point x="28" y="-94"/>
      <point x="-26" y="-60"/>
      <point x="-57" y="-40" type="curve"/>
      <point x="-66" y="-40" type="line"/>
      <point x="-66" y="-88" type="line"/>
      <point x="-45" y="-106"/>
      <point x="-23" y="-122"/>
      <point x="7" y="-140" type="curve"/>
      <point x="-23" y="-158"/>
      <point x="-48" y="-174"/>
      <point x="-66" y="-191" type="curve"/>
    </contour>
  </outline>
</glyph>
<glyph name="Archaicsampi" format="2">
  <advance width="500"/>
  <unicode hex="0372"/>
  <anchor x="250" y="0" name="bottom"/>
  <anchor x="250" y="714" name="top"/>
  <anchor x="480" y="714" name="topright"/>
  <anchor x="250" y="357" name="center"/>
  <outline>
    <contour>
      <point x="369" y="389" type="line"/>
      <point x="485" y="389" type="line"/>
      <point x="485" y="714" type="line"/>
      <point x="369" y="714" type="line"/>
    </contour>
    <contour>
      <point x="15" y="389" type="line"/>
      <point x="131" y="389" type="line"/>
      <point x="131" y="714" type="line"/>
      <point x="15" y="714" type="line"/>
    </contour>
    <component base="T"/>
  </outline>
</glyph>
<glyph name="uni0375" format="2">
  <advance width="500"/>
  <unicode hex="0375"/>
  <outline>
    <contour>
      <point x="170" y="-220" type="line"/>
      <point x="276" y="-220" type="line"/>
      <point x="288" y="-174"/>
      <point x="308" y="-117"/>
      <point x="331" y="-72" type="curve"/>
      <point x="331" y="-60" type="line"/>
      <point x="273" y="-60" type="line"/>
      <point x="232" y="-96"/>
      <point x="194" y="-159"/>
      <point x="170" y="-210" type="curve"/>
    </contour>
  </outline>
</glyph>
<glyph name="Epsilontonos" format="2">
  <advance width="530"/>
  <unicode hex="0388"/>
  <anchor x="304" y="0" name="bottom"/>
  <anchor x="298" y="714" name="top"/>
  <anchor x="64" y="714" name="topleft"/>
  <outline>
    <contour>
      <point x="116" y="0" type="line"/>
      <point x="460" y="0" type="line"/>
      <point x="460" y="140" type="line"/>
      <point x="271" y="140" type="line"/>
      <point x="271" y="292" type="line"/>
      <point x="444" y="292" type="line"/>
      <point x="444" y="432" type="line"/>
      <point x="271" y="432" type="line"/>
      <point x="271" y="573" type="line"/>
      <point x="460" y="573" type="line"/>
      <point x="460" y="714" type="line"/>
      <point x="116" y="714" type="line"/>
    </contour>
    <component base="tonos" xOffset="-260"/>
  </outline>
</glyph>
<glyph name="Xi" format="2">
  <advance width="530"/>
  <unicode hex="039E"/>
  <anchor x="250" y="0" name="bottom"/>
  <anchor x="250" y="714" name="top"/>
  <outline>
    <contour>
      <point x="25" y="0" type="line"/>
      <point x="475" y="0" type="line"/>
      <point x="475" y="132" type="line"/>
      <point x="25" y="132" type="line"/>
    </contour>
    <contour>
      <point x="69" y="309" type="line"/>
      <point x="431" y="309" type="line"/>
      <point x="431" y="439" type="line"/>
      <point x="69" y="439" type="line"/>
    </contour>
    <contour>
      <point x="39" y="584" type="line"/>
      <point x="460" y="584" type="line"/>
      <point x="460" y="714" type="line"/>
      <point x="39" y="714" type="line"/>
    </contour>
  </outline>
</glyph>
<glyph name="delta" format="2">
  <advance width="530"/>
  <unicode hex="03B4"/>
  <anchor x="256" y="0" name="bottom"/>
  <anchor x="287" y="767" name="top"/>
  <outline>
    <contour>
      <point x="247" y="-10" type="curve" smooth="yes"/>
      <point x="396" y="-10"/>
      <point x="480" y="84"/>
      <point x="480" y="222" type="curve" smooth="yes"/>
      <point x="480" y="353"/>
      <point x="426" y="431"/>
      <point x="317" y="506" type="curve" smooth="yes"/>
      <point x="242" y="558"/>
      <point x="230" y="578"/>
      <point x="230" y="606" type="curve" smooth="yes"/>
      <point x="230" y="632"/>
      <point x="251" y="645"/>
      <point x="293" y="645" type="curve" smooth="yes"/>
      <point x="328" y="645"/>
      <point x="371" y="630"/>
      <point x="422" y="597" type="curve"/>
      <point x="472" y="715" type="line"/>
      <point x="416" y="749"/>
      <point x="354" y="767"/>
      <point x="287" y="767" type="curve" smooth="yes"/>
      <point x="162" y="767"/>
      <point x="87" y="707"/>
      <point x="87" y="601" type="curve" smooth="yes"/>
      <point x="87" y="540"/>
      <point x="119" y="487"/>
      <point x="179" y="442" type="curve"/>
      <point x="75" y="404"/>
      <point x="20" y="326"/>
      <point x="20" y="215" type="curve" smooth="yes"/>
      <point x="20" y="74"/>
      <point x="96" y="-10"/>
    </contour>
    <contour>
      <point x="248" y="112" type="curve" smooth="yes"/>
      <point x="198" y="112"/>
      <point x="168" y="152"/>
      <point x="168" y="223" type="curve" smooth="yes"/>
      <point x="168" y="295"/>
      <point x="203" y="357"/>
      <point x="253" y="375" type="curve"/>
      <point x="307" y="340"/>
      <point x="332" y="291"/>
      <point x="332" y="226" type="curve" smooth="yes"/>
      <point x="332" y="152"/>
      <point x="300" y="112"/>
    </contour>
  </outline>
</glyph>
<glyph name="eta" format="2">
  <advance width="530"/>
  <unicode hex="03B7"/>
  <anchor x="253" y="-240" name="bottom"/>
  <anchor x="250" y="553" name="top"/>
  <anchor x="501" y="553" name="topright"/>
  <outline>
    <contour>
      <point x="315" y="-240" type="line"/>
      <point x="470" y="-240" type="line"/>
      <point x="470" y="68" type="line"/>
      <point x="315" y="68" type="line"/>
    </contour>
    <component base="n"/>
  </outline>
</glyph>
<glyph name="lambda" format="2">
  <advance width="530"/>
  <unicode hex="03BB"/>
  <anchor x="237" y="0" name="bottom"/>
  <anchor x="239" y="767" name="top"/>
  <outline>
    <contour>
      <point x="426" y="-10" type="curve" smooth="yes"/>
      <point x="449" y="-10"/>
      <point x="470" y="-7"/>
      <point x="488" y="-2" type="curve"/>
      <point x="488" y="126" type="line"/>
      <point x="478" y="122"/>
      <point x="466" y="120"/>
      <point x="453" y="120" type="curve" smooth="yes"/>
      <point x="427" y="120"/>
      <point x="411" y="134"/>
      <point x="401" y="173" type="curve" smooth="yes"/>
      <point x="300" y="576" type="line" smooth="yes"/>
      <point x="263" y="723"/>
      <point x="210" y="767"/>
      <point x="116" y="767" type="curve" smooth="yes"/>
      <point x="91" y="767"/>
      <point x="70" y="765"/>
      <point x="51" y="760" type="curve"/>
      <point x="51" y="640" type="line"/>
      <point x="64" y="644"/>
      <point x="76" y="646"/>
      <point x="90" y="646" type="curve" smooth="yes"/>
      <point x="132" y="646"/>
      <point x="145" y="611"/>
      <point x="153" y="579" type="curve" smooth="yes"/>
      <point x="168" y="522" type="line"/>
      <point x="13" y="0" type="line"/>
      <point x="166" y="0" type="line"/>
      <point x="224" y="262" type="line" smooth="yes"/>
      <point x="228" y="279"/>
      <point x="231" y="299"/>
      <point x="235" y="322" type="curve"/>
      <point x="239" y="322" type="line"/>
      <point x="242" y="297"/>
      <point x="245" y="284"/>
      <point x="249" y="261" type="curve" smooth="yes"/>
      <point x="273" y="130" type="line" smooth="yes"/>
      <point x="292" y="28"/>
      <point x="338" y="-10"/>
    </contour>
  </outline>
</glyph>
<glyph name="pi" format="2">
  <advance width="530"/>
  <unicode hex="03C0"/>
  <anchor x="250" y="0" name="bottom"/>
  <anchor x="250" y="553" name="top"/>
  <outline>
    <contour>
      <point x="394" y="-10" type="curve" smooth="yes"/>
      <point x="441" y="-10"/>
      <point x="473" y="5"/>
      <point x="491" y="23" type="curve"/>
      <point x="491" y="144" type="line"/>
      <point x="482" y="134"/>
      <point x="470" y="127"/>
      <point x="455" y="127" type="curve" smooth="yes"/>
      <point x="433" y="127"/>
      <point x="425" y="142"/>
      <point x="425" y="179" type="curve" smooth="yes"/>
      <point x="425" y="422" type="line"/>
      <point x="500" y="422" type="line"/>
      <point x="500" y="553" type="line"/>
      <point x="72" y="553" type="line"/>
      <point x="0" y="497" type="line"/>
      <point x="0" y="422" type="line"/>
      <point x="66" y="422" type="line"/>
      <point x="66" y="0" type="line"/>
      <point x="208" y="0" type="line"/>
      <point x="208" y="422" type="line"/>
      <point x="283" y="422" type="line"/>
      <point x="283" y="164" type="line" smooth="yes"/>
      <point x="283" y="46"/>
      <point x="313" y="-10"/>
    </contour>
  </outline>
</glyph>
<glyph name="sigma1" format="2">
  <advance width="530"/>
  <unicode hex="03C2"/>
  <anchor x="268" y="-182" name="bottom"/>
  <anchor x="280" y="553" name="top"/>
  <outline>
    <contour>
      <point x="224" y="-182" type="curve"/>
      <point x="371" y="-182" type="line"/>
      <point x="405" y="-128"/>
      <point x="425" y="-73"/>
      <point x="425" y="-19" type="curve" smooth="yes"/>
      <point x="425" y="78"/>
      <point x="359" y="110"/>
      <point x="311" y="126" type="curve" smooth="yes"/>
      <point x="229" y="153"/>
      <point x="193" y="155"/>
      <point x="193" y="273" type="curve" smooth="yes"/>
      <point x="193" y="387"/>
      <point x="227" y="435"/>
      <point x="298" y="435" type="curve" smooth="yes"/>
      <point x="330" y="435"/>
      <point x="359" y="425"/>
      <point x="389" y="404" type="curve"/>
      <point x="429" y="521" type="line"/>
      <point x="381" y="547"/>
      <point x="339" y="560"/>
      <point x="282" y="560" type="curve" smooth="yes"/>
      <point x="128" y="560"/>
      <point x="45" y="464"/>
      <point x="45" y="261" type="curve" smooth="yes"/>
      <point x="45" y="71"/>
      <point x="117" y="45"/>
      <point x="206" y="15" type="curve" smooth="yes"/>
      <point x="260" y="-3"/>
      <point x="280" y="-15"/>
      <point x="280" y="-47" type="curve" smooth="yes"/>
      <point x="280" y="-82"/>
      <point x="255" y="-137"/>
    </contour>
  </outline>
</glyph>
<glyph name="tau" format="2">
  <advance width="530"/>
  <unicode hex="03C4"/>
  <anchor x="307" y="0" name="bottom"/>
  <anchor x="261" y="553" name="top"/>
  <outline>
    <contour>
      <point x="317" y="-11" type="curve" smooth="yes"/>
      <point x="361" y="-11"/>
      <point x="398" y="-1"/>
      <point x="428" y="16" type="curve"/>
      <point x="428" y="132" type="line"/>
      <point x="405" y="122"/>
      <point x="382" y="116"/>
      <point x="365" y="116" type="curve" smooth="yes"/>
      <point x="333" y="116"/>
      <point x="311" y="137"/>
      <point x="311" y="179" type="curve" smooth="yes"/>
      <point x="311" y="432" type="line"/>
      <point x="445" y="432" type="line"/>
      <point x="445" y="554" type="line"/>
      <point x="124" y="554" type="line"/>
      <point x="55" y="498" type="line"/>
      <point x="55" y="432" type="line"/>
      <point x="164" y="432" type="line"/>
      <point x="164" y="172" type="line" smooth="yes"/>
      <point x="164" y="45"/>
      <point x="211" y="-11"/>
    </contour>
  </outline>
</glyph>
<glyph name="psi" format="2">
  <advance width="530"/>
  <unicode hex="03C8"/>
  <anchor x="250" y="-240" name="bottom"/>
  <anchor x="250" y="760" name="top"/>
  <outline>
    <contour>
      <point x="199" y="-240" type="line"/>
      <point x="309" y="-240" type="line"/>
      <point x="309" y="-9" type="line"/>
      <point x="435" y="5"/>
      <point x="480" y="99"/>
      <point x="480" y="281" type="curve" smooth="yes"/>
      <point x="480" y="365"/>
      <point x="470" y="444"/>
      <point x="442" y="553" type="curve"/>
      <point x="328" y="553" type="line"/>
      <point x="350" y="459"/>
      <point x="361" y="370"/>
      <point x="361" y="278" type="curve" smooth="yes"/>
      <point x="361" y="166"/>
      <point x="347" y="120"/>
      <point x="309" y="110" type="curve"/>
      <point x="309" y="760" type="line"/>
      <point x="199" y="760" type="line"/>
      <point x="199" y="110" type="line"/>
      <point x="166" y="116"/>
      <point x="152" y="160"/>
      <point x="152" y="258" type="curve" smooth="yes"/>
      <point x="152" y="553" type="line"/>
      <point x="35" y="553" type="line"/>
      <point x="35" y="242" type="line" smooth="yes"/>
      <point x="35" y="71"/>
      <point x="76" y="9"/>
      <point x="199" y="-9" type="curve"/>
    </contour>
  </outline>
</glyph>
<glyph name="KaiSymbol" format="2">
  <advance width="500"/>
  <unicode hex="03CF"/>
  <anchor x="250" y="714" name="top"/>
  <anchor x="480" y="714" name="topright"/>
  <anchor x="251" y="0" name="bottom"/>
  <outline>
    <contour>
      <point x="210" y="-240" type="curve" smooth="yes"/>
      <point x="366" y="-240"/>
      <point x="476" y="-137"/>
      <point x="491" y="0" type="curve"/>
      <point x="355" y="0" type="line"/>
      <point x="339" y="-77"/>
      <point x="280" y="-121"/>
      <point x="192" y="-121" type="curve" smooth="yes"/>
      <point x="128" y="-121"/>
      <point x="64" y="-102"/>
      <point x="25" y="-86" type="curve"/>
      <point x="25" y="-206" type="line"/>
      <point x="52" y="-221"/>
      <point x="121" y="-240"/>
    </contour>
    <component base="K"/>
  </outline>
</glyph>
<glyph name="uni03D8" format="2">
  <advance width="500"/>
  <unicode hex="03D8"/>
  <anchor x="250" y="0" name="bottom"/>
  <anchor x="250" y="714" name="top"/>
  <outline>
    <contour>
      <point x="183" y="0" type="line"/>
      <point x="314" y="0" type="line"/>
      <point x="314" y="146" type="line"/>
      <point x="415" y="169"/>
      <point x="467" y="260"/>
      <point x="467" y="433" type="curve" smooth="yes"/>
      <point x="467" y="635"/>
      <point x="392" y="725"/>
      <point x="249" y="725" type="curve" smooth="yes"/>
      <point x="106" y="725"/>
      <point x="30" y="633"/>
      <point x="30" y="434" type="curve" smooth="yes"/>
      <point x="30" y="261"/>
      <point x="82" y="170"/>
      <point x="183" y="147" type="curve"/>
    </contour>
    <contour>
      <point x="249" y="269" type="curve" smooth="yes"/>
      <point x="203" y="269"/>
      <point x="180" y="307"/>
      <point x="180" y="433" type="curve" smooth="yes"/>
      <point x="180" y="550"/>
      <point x="203" y="589"/>
      <point x="249" y="589" type="curve" smooth="yes"/>
      <point x="295" y="589"/>
      <point x="317" y="553"/>
      <point x="317" y="433" type="curve" smooth="yes"/>
      <point x="317" y="304"/>
      <point x="295" y="269"/>
    </contour>
  </outline>
</glyph>
<glyph name="uni03DA" format="2">
  <advance width="500"/>
  <unicode hex="03DA"/>
  <anchor x="320" y="0" name="bottom"/>
  <anchor x="320" y="714" name="top"/>
  <outline>
    <contour>
      <point x="248" y="0" type="line"/>
      <point x="393" y="0" type="line"/>
      <point x="393" y="264" type="line"/>
      <point x="333" y="264" type="line" smooth="yes"/>
      <point x="253" y="264"/>
      <point x="205" y="312"/>
      <point x="205" y="419" type="curve" smooth="yes"/>
      <point x="205" y="517"/>
      <point x="244" y="578"/>
      <point x="321" y="578" type="curve" smooth="yes"/>
      <point x="364" y="578"/>
      <point x="404" y="566"/>
      <point x="442" y="547" type="curve"/>
      <point x="487" y="683" type="line"/>
      <point x="430" y="711"/>
      <point x="376" y="724"/>
      <point x="306" y="724" type="curve" smooth="yes"/>
      <point x="131" y="724"/>
      <point x="28" y="601"/>
      <point x="28" y="419" type="curve" smooth="yes"/>
      <point x="28" y="240"/>
      <point x="110" y="139"/>
      <point x="248" y="121" type="curve"/>
    </contour>
  </outline>
</glyph>
<glyph name="uni03DC" format="2">
  <advance width="500"/>
  <unicode hex="03DC"/>
  <anchor x="270" y="0" name="bottom"/>
  <anchor x="270" y="714" name="top"/>
  <outline>
    <contour>
      <point x="59" y="0" type="line"/>
      <point x="229" y="0" type="line"/>
      <point x="229" y="273" type="line"/>
      <point x="340" y="273" type="line"/>
      <point x="340" y="168" type="line"/>
      <point x="456" y="168" type="line"/>
      <point x="456" y="417" type="line"/>
      <point x="229" y="417" type="line"/>
      <point x="229" y="570" type="line"/>
      <point x="460" y="570" type="line"/>
      <point x="460" y="714" type="line"/>
      <point x="59" y="714" type="line"/>
    </contour>
  </outline>
</glyph>
<glyph name="uni03DE" format="2">
  <advance width="500"/>
  <unicode hex="03DE"/>
  <anchor x="260" y="0" name="bottom"/>
  <anchor x="260" y="714" name="top"/>
  <outline>
    <contour>
      <point x="361" y="-10" type="curve"/>
      <point x="399" y="-10"/>
      <point x="434" y="-3"/>
      <point x="449" y="1" type="curve"/>
      <point x="449" y="130" type="line"/>
      <point x="440" y="126"/>
      <point x="428" y="121"/>
      <point x="412" y="121" type="curve" smooth="yes"/>
      <point x="391" y="121"/>
      <point x="377" y="133"/>
      <point x="377" y="153" type="curve" smooth="yes"/>
      <point x="377" y="171"/>
      <point x="380" y="190"/>
      <point x="388" y="215" type="curve" smooth="yes"/>
      <point x="460" y="441" type="line"/>
      <point x="236" y="441" type="line"/>
      <point x="256" y="507" type="line" smooth="yes"/>
      <point x="265" y="538"/>
      <point x="269" y="568"/>
      <point x="269" y="596" type="curve" smooth="yes"/>
      <point x="269" y="679"/>
      <point x="215" y="724"/>
      <point x="121" y="724" type="curve"/>
      <point x="78" y="724"/>
      <point x="44" y="718"/>
      <point x="18" y="707" type="curve"/>
      <point x="39" y="581" type="line"/>
      <point x="48" y="588"/>
      <point x="63" y="592"/>
      <point x="79" y="592" type="curve"/>
      <point x="101" y="592"/>
      <point x="113" y="579"/>
      <point x="113" y="555" type="curve" smooth="yes"/>
      <point x="113" y="533"/>
      <point x="111" y="517"/>
      <point x="103" y="492" type="curve" smooth="yes"/>
      <point x="40" y="301" type="line"/>
      <point x="267" y="301" type="line"/>
      <point x="238" y="208" type="line" smooth="yes"/>
      <point x="228" y="176"/>
      <point x="223" y="149"/>
      <point x="223" y="125" type="curve" smooth="yes"/>
      <point x="223" y="41"/>
      <point x="276" y="-10"/>
    </contour>
  </outline>
</glyph>
<glyph name="uni03E0" format="2">
  <advance width="500"/>
  <unicode hex="03E0"/>
  <anchor x="260" y="0" name="bottom"/>
  <anchor x="260" y="714" name="top"/>
  <outline>
    <contour>
      <point x="259" y="0" type="curve"/>
      <point x="403" y="0" type="line"/>
      <point x="431" y="79"/>
      <point x="455" y="211"/>
      <point x="455" y="318" type="curve" smooth="yes"/>
      <point x="455" y="582"/>
      <point x="364" y="724"/>
      <point x="193" y="724" type="curve" smooth="yes"/>
      <point x="109" y="724"/>
      <point x="52" y="689"/>
      <point x="20" y="657" type="curve"/>
      <point x="80" y="545" type="line"/>
      <point x="96" y="566"/>
      <point x="129" y="592"/>
      <point x="178" y="592" type="curve" smooth="yes"/>
      <point x="207" y="592"/>
      <point x="229" y="582"/>
      <point x="245" y="561" type="curve"/>
      <point x="116" y="457" type="line"/>
      <point x="152" y="383" type="line"/>
      <point x="284" y="490" type="line"/>
      <point x="296" y="467"/>
      <point x="303" y="440"/>
      <point x="307" y="404" type="curve"/>
      <point x="182" y="306" type="line"/>
      <point x="219" y="232" type="line"/>
      <point x="312" y="309" type="line"/>
      <point x="312" y="302"/>
      <point x="312" y="296"/>
      <point x="312" y="289" type="curve" smooth="yes"/>
      <point x="312" y="186"/>
      <point x="291" y="97"/>
    </contour>
  </outline>
</glyph>
<glyph name="uni03F0" format="2">
  <advance width="500"/>
  <unicode hex="03F0"/>
  <anchor x="250" y="0" name="bottom"/>
  <anchor x="250" y="553" name="top"/>
  <outline>
    <contour>
      <point x="405" y="-10" type="curve" smooth="yes"/>
      <point x="439" y="-10"/>
      <point x="469" y="-3"/>
      <point x="481" y="5" type="curve"/>
      <point x="481" y="119" type="line"/>
      <point x="471" y="115"/>
      <point x="458" y="112"/>
      <point x="443" y="112" type="curve" smooth="yes"/>
      <point x="418" y="112"/>
      <point x="403" y="145"/>
      <point x="403" y="223" type="curve" smooth="yes"/>
      <point x="403" y="327"/>
      <point x="433" y="429"/>
      <point x="485" y="553" type="curve"/>
      <point x="351" y="553" type="line"/>
      <point x="197" y="278" type="line"/>
      <point x="201" y="302"/>
      <point x="205" y="343"/>
      <point x="205" y="393" type="curve" smooth="yes"/>
      <point x="205" y="525"/>
      <point x="149" y="566"/>
      <point x="80" y="566" type="curve" smooth="yes"/>
      <point x="46" y="566"/>
      <point x="16" y="558"/>
      <point x="4" y="551" type="curve"/>
      <point x="18" y="436" type="line"/>
      <point x="24" y="441"/>
      <point x="30" y="444"/>
      <point x="42" y="444" type="curve" smooth="yes"/>
      <point x="67" y="444"/>
      <point x="80" y="402"/>
      <point x="80" y="317" type="curve" smooth="yes"/>
      <point x="80" y="200"/>
      <point x="43" y="76"/>
      <point x="16" y="0" type="curve"/>
      <point x="146" y="0" type="line"/>
      <point x="285" y="243" type="line"/>
      <point x="281" y="218"/>
      <point x="278" y="191"/>
      <point x="278" y="155" type="curve" smooth="yes"/>
      <point x="278" y="22"/>
      <point x="336" y="-10"/>
    </contour>
  </outline>
</glyph>
<glyph name="afii10053" format="2">
  <advance width="530"/>
  <unicode hex="0404"/>
  <anchor x="298" y="0" name="bottom"/>
  <anchor x="304" y="714" name="top"/>
  <outline>
    <contour>
      <point x="304" y="-10" type="curve" smooth="yes"/>
      <point x="360" y="-10"/>
      <point x="415" y="2"/>
      <point x="460" y="28" type="curve"/>
      <point x="460" y="165" type="line"/>
      <point x="416" y="142"/>
      <point x="372" y="123"/>
      <point x="323" y="123" type="curve" smooth="yes"/>
      <point x="232" y="123"/>
      <point x="180" y="188"/>
      <point x="174" y="300" type="curve"/>
      <point x="371" y="300" type="line"/>
      <point x="371" y="431" type="line"/>
      <point x="175" y="431" type="line"/>
      <point x="189" y="518"/>
      <point x="220" y="592"/>
      <point x="316" y="592" type="curve" smooth="yes"/>
      <point x="361" y="592"/>
      <point x="400" y="576"/>
      <point x="441" y="550" type="curve"/>
      <point x="483" y="676" type="line"/>
      <point x="428" y="709"/>
      <point x="369" y="724"/>
      <point x="309" y="724" type="curve" smooth="yes"/>
      <point x="122" y="724"/>
      <point x="15" y="577"/>
      <point x="15" y="348" type="curve" smooth="yes"/>
      <point x="15" y="124"/>
      <point x="117" y="-10"/>
    </contour>
  </outline>
</glyph>
<glyph name="afii10058" format="2">
  <advance width="530"/>
  <unicode hex="0409"/>
  <anchor x="250" y="0" name="bottom"/>
  <anchor x="208" y="714" name="top"/>
  <outline>
    <contour>
      <point x="49" y="-4" type="curve" smooth="yes"/>
      <point x="114" y="-4"/>
      <point x="148" y="38"/>
      <point x="164" y="113" type="curve" smooth="yes"/>
      <point x="187" y="223"/>
      <point x="185" y="437"/>
      <point x="186" y="572" type="curve"/>
      <point x="273" y="572" type="line"/>
      <point x="273" y="714" type="line"/>
      <point x="61" y="714" type="line"/>
      <point x="61" y="543"/>
      <point x="60" y="328"/>
      <point x="48" y="220" type="curve" smooth="yes"/>
      <point x="43" y="176"/>
      <point x="35" y="152"/>
      <point x="21" y="138" type="curve" smooth="yes"/>
      <point x="17" y="134"/>
      <point x="8" y="130"/>
      <point x="0" y="130" type="curve"/>
      <point x="0" y="1" type="line"/>
      <point x="16" y="-2"/>
      <point x="35" y="-4"/>
    </contour>
    <contour>
      <point x="331" y="130" type="line"/>
      <point x="331" y="321" type="line"/>
      <point x="338" y="321" type="line" smooth="yes"/>
      <point x="358" y="321"/>
      <point x="367" y="291"/>
      <point x="367" y="227" type="curve" smooth="yes"/>
      <point x="367" y="163"/>
      <point x="358" y="130"/>
      <point x="339" y="130" type="curve" smooth="yes"/>
    </contour>
    <contour>
      <point x="208" y="0" type="line"/>
      <point x="352" y="0" type="line" smooth="yes"/>
      <point x="443" y="0"/>
      <point x="496" y="83"/>
      <point x="496" y="230" type="curve" smooth="yes"/>
      <point x="496" y="378"/>
      <point x="442" y="451"/>
      <point x="344" y="451" type="curve" smooth="yes"/>
      <point x="331" y="451" type="line"/>
      <point x="331" y="714" type="line"/>
      <point x="208" y="714" type="line"/>
    </contour>
  </outline>
</glyph>
<glyph name="afii10018" format="2">
  <advance width="530"/>
  <unicode hex="0411"/>
  <anchor x="240" y="0" name="bottom"/>
  <anchor x="240" y="714" name="top"/>
  <outline>
    <contour>
      <point x="45" y="0" type="line"/>
      <point x="237" y="0" type="line" smooth="yes"/>
      <point x="387" y="0"/>
      <point x="475" y="82"/>
      <point x="475" y="232" type="curve" smooth="yes"/>
      <point x="475" y="377"/>
      <point x="387" y="451"/>
      <point x="228" y="451" type="curve" smooth="yes"/>
      <point x="198" y="451" type="line"/>
      <point x="198" y="581" type="line"/>
      <point x="427" y="581" type="line"/>
      <point x="427" y="714" type="line"/>
      <point x="45" y="714" type="line"/>
    </contour>
    <contour>
      <point x="198" y="130" type="line"/>
      <point x="198" y="321" type="line"/>
      <point x="228" y="321" type="line" smooth="yes"/>
      <point x="292" y="321"/>
      <point x="322" y="291"/>
      <point x="322" y="227" type="curve" smooth="yes"/>
      <point x="322" y="163"/>
      <point x="291" y="130"/>
      <point x="229" y="130" type="curve" smooth="yes"/>
    </contour>
  </outline>
</glyph>
<glyph name="afii10024" format="2">
  <advance width="530"/>
  <unicode hex="0416"/>
  <anchor x="250" y="0" name="bottom"/>
  <anchor x="480" y="0" name="bottomright"/>
  <anchor x="250" y="714" name="top"/>
  <outline>
    <contour>
      <point x="-1" y="0" type="line"/>
      <point x="132" y="0" type="line"/>
      <point x="183" y="362" type="line"/>
      <point x="183" y="0" type="line"/>
      <point x="318" y="0" type="line"/>
      <point x="318" y="362" type="line"/>
      <point x="367" y="0" type="line"/>
      <point x="501" y="0" type="line"/>
      <point x="438" y="368" type="line"/>
      <point x="495" y="714" type="line"/>
      <point x="364" y="714" type="line"/>
      <point x="318" y="368" type="line"/>
      <point x="318" y="714" type="line"/>
      <point x="183" y="714" type="line"/>
      <point x="183" y="368" type="line"/>
      <point x="135" y="714" type="line"/>
      <point x="5" y="714" type="line"/>
      <point x="58" y="368" type="line"/>
    </contour>
  </outline>
</glyph>
<glyph name="afii10025" format="2">
  <advance width="530"/>
  <unicode hex="0417"/>
  <anchor x="250" y="0" name="bottom"/>
  <anchor x="241" y="714" name="top"/>
  <outline>
    <contour>
      <point x="204" y="-10" type="curve" smooth="yes"/>
      <point x="389" y="-10"/>
      <point x="465" y="82"/>
      <point x="465" y="201" type="curve" smooth="yes"/>
      <point x="465" y="304"/>
      <point x="413" y="361"/>
      <point x="318" y="372" type="curve"/>
      <point x="318" y="376" type="line"/>
      <point x="398" y="393"/>
      <point x="445" y="452"/>
      <point x="445" y="544" type="curve" smooth="yes"/>
      <point x="445" y="654"/>
      <point x="376" y="724"/>
      <point x="233" y="724" type="curve" smooth="yes"/>
      <point x="159" y="724"/>
      <point x="90" y="697"/>
      <point x="32" y="654" type="curve"/>
      <point x="90" y="543" type="line"/>
      <point x="123" y="571"/>
      <point x="163" y="592"/>
      <point x="213" y="592" type="curve" smooth="yes"/>
      <point x="269" y="592"/>
      <point x="291" y="568"/>
      <point x="291" y="516" type="curve" smooth="yes"/>
      <point x="291" y="456"/>
      <point x="258" y="437"/>
      <point x="175" y="437" type="curve" smooth="yes"/>
      <point x="121" y="437" type="line"/>
      <point x="121" y="307" type="line"/>
      <point x="181" y="307" type="line" smooth="yes"/>
      <point x="267" y="307"/>
      <point x="308" y="277"/>
      <point x="308" y="212" type="curve" smooth="yes"/>
      <point x="308" y="153"/>
      <point x="274" y="123"/>
      <point x="197" y="123" type="curve" smooth="yes"/>
      <point x="139" y="123"/>
      <point x="77" y="140"/>
      <point x="35" y="168" type="curve"/>
      <point x="35" y="24" type="line"/>
      <point x="83" y="3"/>
      <point x="140" y="-10"/>
    </contour>
  </outline>
</glyph>
<glyph name="afii10028" format="2">
  <advance width="530"/>
  <unicode hex="041A"/>
  <anchor x="245" y="0" name="bottom"/>
  <anchor x="480" y="0" name="bottomright"/>
  <anchor x="250" y="714" name="top"/>
  <outline>
    <contour>
      <point x="25" y="0" type="line"/>
      <point x="178" y="0" type="line"/>
      <point x="178" y="370" type="line"/>
      <point x="325" y="0" type="line"/>
      <point x="495" y="0" type="line"/>
      <point x="325" y="374" type="line"/>
      <point x="495" y="714" type="line"/>
      <point x="330" y="714" type="line"/>
      <point x="178" y="377" type="line"/>
      <point x="178" y="714" type="line"/>
      <point x="25" y="714" type="line"/>
    </contour>
  </outline>
</glyph>
<glyph name="afii10040" format="2">
  <advance width="530"/>
  <unicode hex="0426"/>
  <anchor x="250" y="-215" name="bottom"/>
  <anchor x="250" y="714" name="top"/>
  <outline>
    <contour>
      <point x="25" y="0" type="line"/>
      <point x="475" y="0" type="line"/>
      <point x="475" y="714" type="line"/>
      <point x="322" y="714" type="line"/>
      <point x="322" y="133" type="line"/>
      <point x="178" y="133" type="line"/>
      <point x="178" y="714" type="line"/>
      <point x="25" y="714" type="line"/>
    </contour>
    <contour>
      <point x="352" y="-216" type="line"/>
      <point x="500" y="-216" type="line"/>
      <point x="500" y="132" type="line"/>
      <point x="280" y="132" type="line"/>
      <point x="280" y="0" type="line"/>
      <point x="352" y="0" type="line"/>
    </contour>
  </outline>
</glyph>
<glyph name="afii10042" format="2">
  <advance width="530"/>
  <unicode hex="0428"/>
  <anchor x="250" y="0" name="bottom"/>
  <anchor x="250" y="714" name="top"/>
  <outline>
    <contour>
      <point x="10" y="0" type="line"/>
      <point x="490" y="0" type="line"/>
      <point x="490" y="714" type="line"/>
      <point x="353" y="714" type="line"/>
      <point x="353" y="132" type="line"/>
      <point x="319" y="132" type="line"/>
      <point x="319" y="714" type="line"/>
      <point x="182" y="714" type="line"/>
      <point x="182" y="132" type="line"/>
      <point x="147" y="132" type="line"/>
      <point x="147" y="714" type="line"/>
      <point x="10" y="714" type="line"/>
    </contour>
  </outline>
</glyph>
<glyph name="afii10045" format="2">
  <advance width="530"/>
  <unicode hex="042B"/>
  <anchor x="250" y="0" name="bottom"/>
  <anchor x="250" y="714" name="top"/>
  <outline>
    <contour>
      <point x="10" y="0" type="line"/>
      <point x="164" y="0" type="line" smooth="yes"/>
      <point x="268" y="0"/>
      <point x="328" y="83"/>
      <point x="328" y="230" type="curve" smooth="yes"/>
      <point x="328" y="378"/>
      <point x="267" y="451"/>
      <point x="156" y="451" type="curve" smooth="yes"/>
      <point x="143" y="451" type="line"/>
      <point x="143" y="714" type="line"/>
      <point x="10" y="714" type="line"/>
    </contour>
    <contour>
      <point x="143" y="130" type="line"/>
      <point x="143" y="321" type="line"/>
      <point x="156" y="321" type="line" smooth="yes"/>
      <point x="182" y="321"/>
      <point x="195" y="291"/>
      <point x="195" y="227" type="curve" smooth="yes"/>
      <point x="195" y="163"/>
      <point x="182" y="130"/>
      <point x="157" y="130" type="curve" smooth="yes"/>
    </contour>
    <contour>
      <point x="357" y="0" type="line"/>
      <point x="490" y="0" type="line"/>
      <point x="490" y="714" type="line"/>
      <point x="357" y="714" type="line"/>
    </contour>
  </outline>
</glyph>
<glyph name="afii10046" format="2">
  <advance width="530"/>
  <unicode hex="042C"/>
  <anchor x="250" y="0" name="bottom"/>
  <anchor x="250" y="714" name="top"/>
  <outline>
    <contour>
      <point x="45" y="0" type="line"/>
      <point x="236" y="0" type="line" smooth="yes"/>
      <point x="387" y="0"/>
      <point x="475" y="82"/>
      <point x="475" y="232" type="curve" smooth="yes"/>
      <point x="475" y="377"/>
      <point x="387" y="451"/>
      <point x="228" y="451" type="curve" smooth="yes"/>
      <point x="198" y="451" type="line"/>
      <point x="198" y="714" type="line"/>
      <point x="45" y="714" type="line"/>
    </contour>
    <contour>
      <point x="198" y="131" type="line"/>
      <point x="198" y="321" type="line"/>
      <point x="228" y="321" type="line" smooth="yes"/>
      <point x="292" y="321"/>
      <point x="322" y="291"/>
      <point x="322" y="227" type="curve" smooth="yes"/>
      <point x="322" y="163"/>
      <point x="291" y="131"/>
      <point x="229" y="131" type="curve" smooth="yes"/>
    </contour>
  </outline>
</glyph>
<glyph name="afii10066" format="2">
  <advance width="530"/>
  <unicode hex="0431"/>
  <anchor x="250" y="0" name="bottom"/>
  <anchor x="250" y="768" name="top"/>
  <outline>
    <contour>
      <point x="250" y="-10" type="curve" smooth="yes"/>
      <point x="397" y="-10"/>
      <point x="480" y="96"/>
      <point x="480" y="273" type="curve" smooth="yes"/>
      <point x="480" y="428"/>
      <point x="416" y="512"/>
      <point x="302" y="512" type="curve" smooth="yes"/>
      <point x="243" y="512"/>
      <point x="192" y="478"/>
      <point x="171" y="432" type="curve"/>
      <point x="164" y="432" type="line"/>
      <point x="170" y="521"/>
      <point x="193" y="572"/>
      <point x="255" y="598" type="curve" smooth="yes"/>
      <point x="291" y="613"/>
      <point x="422" y="632"/>
      <point x="465" y="637" type="curve"/>
      <point x="452" y="768" type="line"/>
      <point x="357" y="758"/>
      <point x="291" y="743"/>
      <point x="251" y="731" type="curve" smooth="yes"/>
      <point x="73" y="678"/>
      <point x="20" y="545"/>
      <point x="20" y="333" type="curve" smooth="yes"/>
      <point x="20" y="82"/>
      <point x="110" y="-10"/>
    </contour>
    <contour>
      <point x="253" y="112" type="curve" smooth="yes"/>
      <point x="196" y="112"/>
      <point x="168" y="193"/>
      <point x="168" y="320" type="curve"/>
      <point x="179" y="354"/>
      <point x="221" y="395"/>
      <point x="258" y="395" type="curve" smooth="yes"/>
      <point x="308" y="395"/>
      <point x="333" y="348"/>
      <point x="333" y="255" type="curve" smooth="yes"/>
      <point x="333" y="160"/>
      <point x="306" y="112"/>
    </contour>
  </outline>
</glyph>
<glyph name="afii10067" format="2">
  <advance width="530"/>
  <unicode hex="0432"/>
  <anchor x="250" y="0" name="bottom"/>
  <anchor x="250" y="553" name="top"/>
  <outline>
    <contour>
      <point x="53" y="0" type="line"/>
      <point x="273" y="0" type="line" smooth="yes"/>
      <point x="402" y="0"/>
      <point x="466" y="54"/>
      <point x="466" y="158" type="curve" smooth="yes"/>
      <point x="466" y="227"/>
      <point x="426" y="276"/>
      <point x="365" y="285" type="curve"/>
      <point x="365" y="289" type="line"/>
      <point x="421" y="301"/>
      <point x="454" y="345"/>
      <point x="454" y="409" type="curve" smooth="yes"/>
      <point x="454" y="507"/>
      <point x="393" y="553"/>
      <point x="273" y="553" type="curve" smooth="yes"/>
      <point x="53" y="553" type="line"/>
    </contour>
    <contour>
      <point x="199" y="109" type="line"/>
      <point x="199" y="233" type="line"/>
      <point x="260" y="233" type="line" smooth="yes"/>
      <point x="299" y="233"/>
      <point x="319" y="215"/>
      <point x="319" y="174" type="curve" smooth="yes"/>
      <point x="319" y="130"/>
      <point x="299" y="109"/>
      <point x="259" y="109" type="curve" smooth="yes"/>
    </contour>
    <contour>
      <point x="199" y="337" type="line"/>
      <point x="199" y="444" type="line"/>
      <point x="255" y="444" type="line" smooth="yes"/>
      <point x="291" y="444"/>
      <point x="308" y="423"/>
      <point x="308" y="388" type="curve" smooth="yes"/>
      <point x="308" y="357"/>
      <point x="292" y="337"/>
      <point x="257" y="337" type="curve" smooth="yes"/>
    </contour>
  </outline>
</glyph>
<glyph name="afii10068" format="2">
  <advance width="530"/>
  <unicode hex="0433"/>
  <anchor x="250" y="0" name="bottom"/>
  <anchor x="480" y="0" name="bottomright"/>
  <anchor x="250" y="553" name="top"/>
  <outline>
    <contour>
      <point x="113" y="0" type="line"/>
      <point x="259" y="0" type="line"/>
      <point x="259" y="428" type="line"/>
      <point x="422" y="428" type="line"/>
      <point x="422" y="553" type="line"/>
      <point x="113" y="553" type="line"/>
    </contour>
  </outline>
</glyph>
<glyph name="afii10073" format="2">
  <advance width="530"/>
  <unicode hex="0437"/>
  <anchor x="250" y="0" name="bottom"/>
  <anchor x="250" y="553" name="top"/>
  <outline>
    <contour>
      <point x="235" y="-10" type="curve" smooth="yes"/>
      <point x="373" y="-10"/>
      <point x="450" y="58"/>
      <point x="450" y="156" type="curve" smooth="yes"/>
      <point x="450" y="223"/>
      <point x="407" y="276"/>
      <point x="337" y="286" type="curve"/>
      <point x="337" y="291" type="line"/>
      <point x="390" y="309"/>
      <point x="426" y="359"/>
      <point x="426" y="417" type="curve" smooth="yes"/>
      <point x="426" y="507"/>
      <point x="360" y="560"/>
      <point x="244" y="560" type="curve" smooth="yes"/>
      <point x="185" y="560"/>
      <point x="123" y="550"/>
      <point x="59" y="517" type="curve"/>
      <point x="109" y="407" type="line"/>
      <point x="147" y="429"/>
      <point x="183" y="441"/>
      <point x="217" y="441" type="curve" smooth="yes"/>
      <point x="260" y="441"/>
      <point x="285" y="426"/>
      <point x="285" y="397" type="curve" smooth="yes"/>
      <point x="285" y="352"/>
      <point x="246" y="337"/>
      <point x="185" y="337" type="curve" smooth="yes"/>
      <point x="140" y="337" type="line"/>
      <point x="140" y="230" type="line"/>
      <point x="193" y="230" type="line" smooth="yes"/>
      <point x="270" y="230"/>
      <point x="303" y="206"/>
      <point x="303" y="169" type="curve" smooth="yes"/>
      <point x="303" y="131"/>
      <point x="270" y="112"/>
      <point x="210" y="112" type="curve" smooth="yes"/>
      <point x="160" y="112"/>
      <point x="106" y="128"/>
      <point x="59" y="155" type="curve"/>
      <point x="59" y="28" type="line"/>
      <point x="114" y="0"/>
      <point x="165" y="-10"/>
    </contour>
  </outline>
</glyph>
<glyph name="afii10074" format="2">
  <advance width="530"/>
  <unicode hex="0438"/>
  <anchor x="280" y="0" name="bottom"/>
  <anchor x="480" y="0" name="bottomright"/>
  <anchor x="246" y="553" name="top"/>
  <outline>
    <contour>
      <point x="35" y="0" type="line"/>
      <point x="197" y="0" type="line"/>
      <point x="334" y="350" type="line"/>
      <point x="330" y="297"/>
      <point x="326" y="248"/>
      <point x="326" y="198" type="curve" smooth="yes"/>
      <point x="326" y="0" type="line"/>
      <point x="465" y="0" type="line"/>
      <point x="465" y="553" type="line"/>
      <point x="305" y="553" type="line"/>
      <point x="167" y="199" type="line"/>
      <point x="172" y="266"/>
      <point x="175" y="307"/>
      <point x="175" y="359" type="curve" smooth="yes"/>
      <point x="175" y="553" type="line"/>
      <point x="35" y="553" type="line"/>
    </contour>
  </outline>
</glyph>
<glyph name="afii10084" format="2">
  <advance width="530"/>
  <unicode hex="0442"/>
  <anchor x="252" y="0" name="bottom"/>
  <anchor x="480" y="0" name="bottomright"/>
  <anchor x="252" y="528" name="top"/>
  <outline>
    <contour>
      <point x="178" y="0" type="line"/>
      <point x="323" y="0" type="line"/>
      <point x="323" y="428" type="line"/>
      <point x="448" y="428" type="line"/>
      <point x="448" y="550" type="line"/>
      <point x="52" y="550" type="line"/>
      <point x="52" y="428" type="line"/>
      <point x="178" y="428" type="line"/>
    </contour>
  </outline>
</glyph>
